<?xml version="1.0" standalone="no"?>
<!DOCTYPE svg PUBLIC "-//W3C//DTD SVG 1.1//EN" "http://www.w3.org/Graphics/SVG/1.1/DTD/svg11.dtd" >
<svg xmlns="http://www.w3.org/2000/svg">
<metadata>
Created by FontForge 20120731 at Sun Apr 13 18:39:30 2014
 By Piet van Dongen
Created by Piet van Dongen with FontForge 2.0 (http://fontforge.sf.net)
</metadata>
<defs>
<font id="iCheckMovies" horiz-adv-x="512" >
  <font-face 
    font-family="iCheckMovies"
    font-weight="500"
    font-stretch="normal"
    units-per-em="512"
    panose-1="2 0 6 3 0 0 0 0 0 0"
    ascent="448"
    descent="-64"
    bbox="-0.925926 -64 512 448"
    underline-thickness="25"
    underline-position="-52"
    unicode-range="U+E001-E045"
  />
<missing-glyph horiz-adv-x="187" 
d="M17 0v341h136v-341h-136zM34 17h102v307h-102v-307z" />
    <glyph glyph-name=".notdef" horiz-adv-x="187" 
d="M17 0v341h136v-341h-136zM34 17h102v307h-102v-307z" />
    <glyph glyph-name=".null" horiz-adv-x="0" 
 />
    <glyph glyph-name="nonmarkingreturn" horiz-adv-x="170" 
 />
    <glyph glyph-name="uniE001" unicode="&#xe001;" 
d="M256 448q106 0 181 -75t75 -181t-75 -181t-181 -75t-181 75t-75 181t75 181t181 75zM256 -47q99 0 169 70t70 169t-70 169t-169 70t-169 -70t-70 -169t70 -169t169 -70zM352 314l60 -60l-126 -126l-28 -28l-33 -33v0l-32 33l-28 28l-53 52l61 61l52 -53z" />
    <glyph glyph-name="uniE002" unicode="&#xe002;" 
d="M256 448q106 0 181 -75t75 -181t-75 -181t-181 -75t-181 75t-75 181t75 181t181 75zM286 128l126 126l-60 60l-127 -126l-52 53l-61 -61l53 -52l30 -31l30 -30v0l30 30z" />
    <glyph glyph-name="uniE003" unicode="&#xe003;" horiz-adv-x="300" 
d="M240 336l60 -61l-127 -126l-28 -28l-32 -32v0l-33 32l-27 28l-53 53l60 60l53 -53z" />
    <glyph glyph-name="uniE004" unicode="&#xe004;" 
d="M256 448q106 0 181 -75t75 -181t-75 -181t-181 -75t-181 75t-75 181t75 181t181 75zM256 -47q99 0 169 70t70 169t-70 169t-169 70t-169 -70t-70 -169t70 -169t169 -70zM213 192q0 43 43 43t43 -43t-43 -43t-43 43zM111 192q0 43 43 43q42 0 42 -43t-42 -43q-43 0 -43 43
zM316 192q0 43 42 43q43 0 43 -43t-43 -43q-42 0 -42 43z" />
    <glyph glyph-name="uniE005" unicode="&#xe005;" 
d="M256 448q106 0 181 -75t75 -181t-75 -181t-181 -75t-181 75t-75 181t75 181t181 75zM154 149q18 0 30 12.5t12 30.5t-12 30.5t-30 12.5t-30.5 -12.5t-12.5 -30.5t12.5 -30.5t30.5 -12.5zM256 149q18 0 30.5 12.5t12.5 30.5t-12.5 30.5t-30.5 12.5t-30.5 -12.5
t-12.5 -30.5t12.5 -30.5t30.5 -12.5zM358 149q18 0 30.5 12.5t12.5 30.5t-12.5 30.5t-30.5 12.5t-30 -12.5t-12 -30.5t12 -30.5t30 -12.5z" />
    <glyph glyph-name="uniE006" unicode="&#xe006;" horiz-adv-x="290" 
d="M102 192q0 43 43 43t43 -43t-43 -43t-43 43zM0 192q0 43 43 43q42 0 42 -43t-42 -43q-43 0 -43 43zM205 192q0 43 42 43q43 0 43 -43t-43 -43q-42 0 -42 43z" />
    <glyph glyph-name="uniE007" unicode="&#xe007;" 
d="M254 282l61 16l62 17l-16 -62l-17 -62l-27 27l-44 -44l-37 36l45 45zM256 448q106 0 181 -75t75 -181t-75 -181t-181 -75t-181 75t-75 181t75 181t181 75zM256 -47q99 0 169 70t70 169t-70 169t-169 70t-169 -70t-70 -169t70 -169t169 -70zM333 124v34h34v-34v-34h-34
h-154h-34v34v136v34h34h34v-34h-34v-136h154z" />
    <glyph glyph-name="uniE008" unicode="&#xe008;" 
d="M256 448q106 0 181 -75t75 -181t-75 -181t-181 -75t-181 75t-75 181t75 181t181 75zM367 124v34h-34v-34h-154v136h34v34h-34h-34v-34v-136v-34h34h154h34v34zM361 253l16 62l-62 -17l-61 -16l27 -27l-45 -45l37 -36l44 44l27 -27z" />
    <glyph glyph-name="uniE009" unicode="&#xe009;" horiz-adv-x="232" 
d="M109 282l61 16l62 17l-17 -62l-16 -62l-27 27l-45 -44l-36 36l45 45zM188 124v34h34v-34v-34h-34h-154h-34v34v136v34h34h34v-34h-34v-136h154z" />
    <glyph glyph-name="uniE00A" unicode="&#xe00a;" 
d="M256 448q106 0 181 -75t75 -181t-75 -181t-181 -75t-181 75t-75 181t75 181t181 75zM256 -47q99 0 169 70t70 169t-70 169t-169 70t-169 -70t-70 -169t70 -169t169 -70zM256 311q27 0 52 -12.5t42 -30t30 -34.5t19 -30l6 -12q-2 -5 -6.5 -13t-19 -28.5t-30.5 -36
t-41 -28.5t-52 -13t-52 12.5t-42 29.5t-30 34.5t-19 30.5l-6 12q2 5 6.5 13t19 28.5t30.5 36t41 28.5t52 13zM256 149q18 0 30.5 12.5t12.5 30.5t-12.5 30.5t-30.5 12.5t-30.5 -12.5t-12.5 -30.5t12.5 -30.5t30.5 -12.5z" />
    <glyph glyph-name="uniE00B" unicode="&#xe00b;" 
d="M256 448q106 0 181 -75t75 -181t-75 -181t-181 -75t-181 75t-75 181t75 181t181 75zM256 73q27 0 52 12.5t42 29.5t30 34.5t19 30.5l6 12q-2 5 -6.5 13t-19 28.5t-30.5 36t-41 28.5t-52 13t-52 -12.5t-42 -30t-30 -34.5t-19 -30l-6 -12q2 -5 6.5 -13t19 -28.5t30.5 -36
t41 -28.5t52 -13zM213 192q0 43 43 43t43 -43t-43 -43t-43 43z" />
    <glyph glyph-name="uniE00C" unicode="&#xe00c;" horiz-adv-x="299" 
d="M149 311q27 0 52 -12.5t42 -30t30.5 -34.5t19.5 -30l6 -12q-2 -5 -6.5 -13t-19 -28.5t-30.5 -36t-41.5 -28.5t-52.5 -13t-52 12.5t-42 29.5t-30 34.5t-19 30.5l-6 12q2 5 6.5 13t19 28.5t30.5 36t41 28.5t52 13zM149 149q18 0 30.5 12.5t12.5 30.5t-12.5 30.5t-30.5 12.5
t-30 -12.5t-12 -30.5t12 -30.5t30 -12.5z" />
    <glyph glyph-name="uniE00D" unicode="&#xe00d;" 
d="M256 448q106 0 181 -75t75 -181t-75 -181t-181 -75t-181 75t-75 181t75 181t181 75zM256 -47q99 0 169 70t70 169t-70 169t-169 70t-169 -70t-70 -169t70 -169t169 -70zM239 64v256h34v-256h-34zM188 64v256h34v-256h-34zM137 64v256h34v-256h-34zM290 64v256h34v-256
h-34zM341 64v256h34v-256h-34z" />
    <glyph glyph-name="uniE00E" unicode="&#xe00e;" 
d="M256 448q106 0 181 -75t75 -181t-75 -181t-181 -75t-181 75t-75 181t75 181t181 75zM171 64v256h-34v-256h34zM222 64v256h-34v-256h34zM273 64v256h-34v-256h34zM324 64v256h-34v-256h34zM375 64v256h-34v-256h34z" />
    <glyph glyph-name="uniE00F" unicode="&#xe00f;" horiz-adv-x="239" 
d="M102 64v256h35v-256h-35zM51 64v256h34v-256h-34zM0 64v256h34v-256h-34zM154 64v256h34v-256h-34zM205 64v256h34v-256h-34z" />
    <glyph glyph-name="uniE010" unicode="&#xe010;" 
d="M256 448q106 0 181 -75t75 -181t-75 -181t-181 -75t-181 75t-75 181t75 181t181 75zM256 -47q99 0 169 70t70 169t-70 169t-169 70t-169 -70t-70 -169t70 -169t169 -70zM310 297q44 5 71 -31q36 -47 -5 -113q-34 -55 -119 -106h-2q-135 81 -140 165q-3 51 40 75
q18 10 39 10q2 0 4 -0.5t4 -0.5q40 -5 54 -36q15 32 54 37z" />
    <glyph glyph-name="uniE011" unicode="&#xe011;" 
d="M256 448q106 0 181 -75t75 -181t-75 -181t-181 -75t-181 75t-75 181t75 181t181 75zM257 47q135 81 140 165q3 51 -40 75q-22 12 -47 9q-40 -5 -54 -36q-14 31 -54 36q-2 0 -4 0.5t-4 0.5q-44 1 -67 -37q-33 -53 19 -122q36 -47 109 -91h2z" />
    <glyph glyph-name="uniE012" unicode="&#xe012;" horiz-adv-x="282" 
d="M195 297q44 5 71 -31q36 -47 -5 -113q-34 -55 -119 -106h-2q-135 81 -140 165q-3 51 40 75q18 10 39 10h8q39 -5 54 -37q15 32 54 37z" />
    <glyph glyph-name="uniE013" unicode="&#xe013;" 
d="M256 448q106 0 181 -75t75 -181t-75 -181t-181 -75t-181 75t-75 181t75 181t181 75zM256 -47q99 0 169 70t70 169t-70 169t-169 70t-169 -70t-70 -169t70 -169t169 -70zM115 288v6h282v-6l-141 -94zM256 173l6 4l135 90v-177h-282v177l135 -90z" />
    <glyph glyph-name="uniE014" unicode="&#xe014;" 
d="M256 448q106 0 181 -75t75 -181t-75 -181t-181 -75t-181 75t-75 181t75 181t181 75zM397 90v177l-135 -90l-6 -4l-6 4l-135 90v-177h282zM397 288v6h-282v-6l141 -94z" />
    <glyph glyph-name="uniE015" unicode="&#xe015;" horiz-adv-x="282" 
d="M0 288v6h282v-6l-141 -94zM141 173l6 4l135 90v-177h-282v177l135 -90z" />
    <glyph glyph-name="uniE016" unicode="&#xe016;" 
d="M256 448q106 0 181 -75t75 -181t-75 -181t-181 -75t-181 75t-75 181t75 181t181 75zM256 -47q99 0 169 70t70 169t-70 169t-169 70t-169 -70t-70 -169t70 -169t169 -70zM341 232q15 -5 25 -19t10 -30v-68q0 -21 -15.5 -36t-36.5 -15h-136q-21 0 -36 15t-15 36v68
q0 37 34 49v24q0 35 25 60t60 25t60 -25t25 -60v-24zM256 307q-21 0 -36 -15t-15 -36v-21h102v21q0 21 -15 36t-36 15z" />
    <glyph glyph-name="uniE017" unicode="&#xe017;" 
d="M256 307q21 0 36 -15t15 -36v-21h-102v21q0 21 15 36t36 15zM256 448q106 0 181 -75t75 -181t-75 -181t-181 -75t-181 75t-75 181t75 181t181 75zM375 115v68q0 37 -34 49v24q0 35 -25 60t-60 25t-60 -25t-25 -60v-24q-34 -12 -34 -49v-68q0 -21 15 -36t36 -15h136
q21 0 36 15t15 36z" />
    <glyph glyph-name="uniE018" unicode="&#xe018;" horiz-adv-x="239" 
d="M205 232q34 -12 34 -49v-68q0 -21 -15 -36t-36 -15h-137q-21 0 -36 15t-15 36v68q0 37 34 49v24q0 35 25 60t60 25t60.5 -25t25.5 -60v-24zM119 307q-21 0 -36 -15t-15 -36v-21h103v21q0 21 -15.5 36t-36.5 15z" />
    <glyph glyph-name="uniE019" unicode="&#xe019;" 
d="M256 448q106 0 181 -75t75 -181t-75 -181t-181 -75t-181 75t-75 181t75 181t181 75zM256 -47q99 0 169 70t70 169t-70 169t-169 70t-169 -70t-70 -169t70 -169t169 -70zM358 209q0 -33 -15 -59l52 -52l-48 -49l-53 54q-26 -13 -55 -13q-50 0 -85 35t-35 84t35.5 84.5
t84.5 35.5t84 -35t35 -85zM239 132q31 0 54 23t23 54t-23 54t-54 23t-54 -23t-23 -54t23 -54t54 -23z" />
    <glyph glyph-name="uniE01A" unicode="&#xe01a;" 
d="M162 209q0 77 77 77t77 -77t-77 -77t-77 77zM256 448q106 0 181 -75t75 -181t-75 -181t-181 -75t-181 75t-75 181t75 181t181 75zM347 49l48 49l-52 52q15 27 15 59q0 50 -35 85t-84 35q-50 0 -85 -35t-35 -85q0 -49 35 -84t85 -35q30 0 55 13z" />
    <glyph glyph-name="uniE01B" unicode="&#xe01b;" horiz-adv-x="276" 
d="M239 209q0 -32 -16 -59l53 -52l-48 -48l-54 53q-26 -13 -55 -13q-49 0 -84 35t-35 84q0 50 35 85t84 35t84.5 -35.5t35.5 -84.5zM119 132q31 0 54 23t23 54t-23 54t-54 23t-53.5 -22.5t-22.5 -54.5t22.5 -54.5t53.5 -22.5z" />
    <glyph glyph-name="uniE01C" unicode="&#xe01c;" 
d="M256 448q106 0 181 -75t75 -181t-75 -181t-181 -75t-181 75t-75 181t75 181t181 75zM256 -47q99 0 169 70t70 169t-70 169t-169 70t-169 -70t-70 -169t70 -169t169 -70zM360 244l24 -21l-24 -20l14 -29l-30 -10l2 -31l-31 2v-1l33 -91l-32 11l-17 -28l-31 84l-12 -15
l-12 15l-31 -84l-17 28l-32 -11l33 91v1l-32 -2l3 31l-30 10l14 29l-24 20l24 21l-14 28l30 10l-3 32l32 -2l10 30l28 -14l21 23l21 -23l28 14l10 -30l31 2l-2 -32l30 -10z" />
    <glyph glyph-name="uniE01D" unicode="&#xe01d;" 
d="M256 448q106 0 181 -75t75 -181t-75 -181t-181 -75t-181 75t-75 181t75 181t181 75zM374 174l-14 29l24 20l-24 21l14 28l-30 10l2 32l-31 -2l-10 30l-28 -14l-21 23l-21 -23l-28 14l-10 -30l-32 2l3 -32l-30 -10l14 -28l-24 -21l24 -20l-14 -29l30 -10l-3 -31l32 2v-1
l-33 -91l32 11l17 -28l31 84l12 -15l12 15l31 -84l17 28l32 -11l-33 91v1l31 -2l-2 31z" />
    <glyph glyph-name="uniE01E" unicode="&#xe01e;" horiz-adv-x="256" 
d="M232 244l24 -21l-24 -20l14 -29l-30 -10l3 -31l-32 2v-1l33 -91l-32 11l-17 -28l-31 84l-12 -15l-12 15l-31 -84l-17 28l-32 -11l33 91v1l-31 -2l2 31l-30 10l14 29l-24 20l24 21l-14 28l30 10l-2 32l31 -2l10 30l28 -14l21 23l21 -23l28 14l10 -30l32 2l-3 -32l30 -10z
" />
    <glyph glyph-name="uniE01F" unicode="&#xe01f;" 
d="M256 448q106 0 181 -75t75 -181t-75 -181t-181 -75t-181 75t-75 181t75 181t181 75zM256 -47q99 0 169 70t70 169t-70 169t-169 70t-169 -70t-70 -169t70 -169t169 -70zM128 149v86h256v-86h-256z" />
    <glyph glyph-name="uniE020" unicode="&#xe020;" 
d="M256 448q106 0 181 -75t75 -181t-75 -181t-181 -75t-181 75t-75 181t75 181t181 75zM384 149v86h-256v-86h256z" />
    <glyph glyph-name="uniE021" unicode="&#xe021;" horiz-adv-x="256" 
d="M0 149v86h256v-86h-256z" />
    <glyph glyph-name="uniE022" unicode="&#xe022;" 
d="M256 448q106 0 181 -75t75 -181t-75 -181t-181 -75t-181 75t-75 181t75 181t181 75zM256 -47q99 0 169 70t70 169t-70 169t-169 70t-169 -70t-70 -169t70 -169t169 -70zM393 219l32 -28l-32 -27l19 -38l-40 -13l3 -42l-42 3l-14 -40l-37 18l-28 -31l-28 31l-37 -18
l-14 40l-42 -3l3 42l-40 13l19 38l-32 27l32 28l-19 38l40 13l-3 42l42 -3l14 40l37 -19l28 32l28 -32l37 19l14 -40l42 3l-3 -42l40 -13zM274 149l84 84l-40 40l-84 -84l-36 35l-40 -40l35 -35l19 -18l22 -22v0l21 21z" />
    <glyph glyph-name="uniE023" unicode="&#xe023;" 
d="M234 189l84 84l40 -40l-84 -84l-19 -19l-21 -21v0l-22 22l-19 18l-35 35l40 40zM256 448q106 0 181 -75t75 -181t-75 -181t-181 -75t-181 75t-75 181t75 181t181 75zM412 126l-19 38l32 27l-32 28l19 38l-40 13l3 42l-42 -3l-14 40l-37 -19l-28 32l-28 -32l-37 19
l-14 -40l-42 3l3 -42l-40 -13l19 -38l-32 -28l32 -27l-19 -38l40 -13l-3 -42l42 3l14 -40l37 18l28 -31l28 31l37 -18l14 40l42 -3l-3 42z" />
    <glyph glyph-name="uniE024" unicode="&#xe024;" horiz-adv-x="341" 
d="M310 219l31 -28l-31 -27l18 -38l-40 -13l3 -42l-42 3l-13 -40l-38 18l-27 -31l-28 31l-38 -18l-13 40l-42 -3l3 42l-40 13l19 38l-32 27l32 28l-19 38l40 13l-3 42l42 -3l13 40l38 -19l28 32l27 -32l38 19l13 -40l42 3l-3 -42l40 -13zM190 149l85 84l-40 40l-85 -84
l-35 35l-40 -40l35 -35l18 -18l22 -22v0l21 21z" />
    <glyph glyph-name="uniE025" unicode="&#xe025;" 
d="M256 448q106 0 181 -75t75 -181t-75 -181t-181 -75t-181 75t-75 181t75 181t181 75zM256 -47q99 0 169 70t70 169t-70 169t-169 70t-169 -70t-70 -169t70 -169t169 -70zM212 214q-7 16 -7 29v43q0 24 14.5 37.5t36.5 13.5t36.5 -13.5t14.5 -37.5v-43q0 -13 -7 -29v0
l-3 -6v-1q-6 -8 -9 -11h-1l-4 -4h-1q-1 0 -3 -2t-3 -2t-3 -1t-3 -1q0 -1 -1 -1t-2.5 -0.5t-2.5 -0.5h-2q-1 0 -3 -0.5t-3 -0.5t-3 0.5t-3 0.5h-2q-1 0 -2.5 0.5t-2.5 0.5q0 1 -1 1l-12 6h-1l-4 4h-1q-3 3 -9 11v1zM318 212q35 -5 49 -16q10 -13 14 -34t3 -35v-14
q-6 -7 -17 -17t-44.5 -26.5t-66.5 -16.5v0q-33 0 -65 15t-47 30l-16 15q-5 53 17 83q14 11 49 16q19 -46 62 -46t62 46z" />
    <glyph glyph-name="uniE026" unicode="&#xe026;" 
d="M256 448q106 0 181 -75t75 -181t-75 -181t-181 -75t-181 75t-75 181t75 181t181 75zM205 286v-43q0 -13 7 -29l3 -6v-1q6 -8 9 -11h1l4 -4h1l12 -6q0 -1 1 -1t2.5 -0.5t2.5 -0.5h2q1 0 3 -0.5t3 -0.5t3 0.5t3 0.5h2q1 0 2.5 0.5t2.5 0.5l1 1q1 0 3 1t3 1t3 2t3 2h1l4 4h1
q3 3 9 11v1l3 6q7 16 7 29v43q0 24 -14.5 37.5t-36.5 13.5t-36.5 -13.5t-14.5 -37.5zM384 113q5 53 -17 83q-14 11 -49 16q-19 -46 -62 -46t-62 46q-35 -5 -49 -16q-10 -13 -14 -34t-3 -35v-14q6 -7 17 -17t44.5 -26.5t66.5 -16.5v0q33 0 65 15t47 30z" />
    <glyph glyph-name="uniE027" unicode="&#xe027;" horiz-adv-x="257" 
d="M84 214q-7 16 -7 29v43q0 24 14.5 37.5t36.5 13.5t36.5 -13.5t14.5 -37.5v-43q0 -15 -6 -29v0q-1 -1 -2.5 -3t-1.5 -3v-1q-6 -8 -9 -11h-1l-4 -4h-1q-1 0 -3 -2t-3 -2t-2.5 -1t-2.5 -1q-1 -1 -2 -1t-2.5 -0.5t-2.5 -0.5h-1q-1 0 -3.5 -0.5t-3.5 -0.5t-3 0.5t-3 0.5h-2
q-1 0 -2 0.5t-2 0.5l-2 1l-6 3t-5 3h-1q-2 1 -5 4t-9 11l-1 1zM191 212q34 -5 48 -16q10 -13 14 -34t3 -35v-14q-6 -7 -16.5 -17t-44 -26.5t-66.5 -16.5h-1q-33 0 -65 15t-47 30l-16 15q-5 53 17 83q14 11 49 16q19 -46 62 -46q44 0 63 46z" />
    <glyph glyph-name="uniE028" unicode="&#xe028;" 
d="M256 448q106 0 181 -75t75 -181t-75 -181t-181 -75t-181 75t-75 181t75 181t181 75zM256 -47q99 0 169 70t70 169t-70 169t-169 70t-169 -70t-70 -169t70 -169t169 -70zM163 310l88 -127h155q-4 -59 -47.5 -100.5t-102.5 -41.5q-62 0 -106.5 44.5t-44.5 106.5
q0 73 58 118zM374 286l-116 -81l-81 116q38 22 79 22q74 0 118 -57zM285 201l100 70q18 -29 21 -70h-121z" />
    <glyph glyph-name="uniE029" unicode="&#xe029;" 
d="M256 448q106 0 181 -75t75 -181t-75 -181t-181 -75t-181 75t-75 181t75 181t181 75zM256 343q-40 0 -78 -22l80 -116l116 80q-47 58 -118 58zM256 41q59 0 103 41.5t48 100.5h-156l-88 127q-58 -45 -58 -118q0 -62 44.5 -106.5t106.5 -44.5zM285 201h121q-3 40 -21 69z
" />
    <glyph glyph-name="uniE02A" unicode="&#xe02a;" horiz-adv-x="301" 
d="M57 310l89 -127h155q-4 -59 -47.5 -100.5t-102.5 -41.5q-62 0 -106.5 44.5t-44.5 106.5q0 74 57 118zM269 286l-116 -81l-81 116q38 22 79 22q72 0 118 -57zM180 201l99 70q21 -33 22 -70h-121z" />
    <glyph glyph-name="uniE02B" unicode="&#xe02b;" 
d="M256 448q106 0 181 -75t75 -181t-75 -181t-181 -75t-181 75t-75 181t75 181t181 75zM256 -47q99 0 169 70t70 169t-70 169t-169 70t-169 -70t-70 -169t70 -169t169 -70zM299 320v-85h85v-86h-85v-85h-86v85h-85v86h85v85h86z" />
    <glyph glyph-name="uniE02C" unicode="&#xe02c;" 
d="M256 448q106 0 181 -75t75 -181t-75 -181t-181 -75t-181 75t-75 181t75 181t181 75zM384 149v86h-85v85h-86v-85h-85v-86h85v-85h86v85h85z" />
    <glyph glyph-name="uniE02D" unicode="&#xe02d;" horiz-adv-x="256" 
d="M171 320v-85h85v-86h-85v-85h-86v85h-85v86h85v85h86z" />
    <glyph glyph-name="uniE02E" unicode="&#xe02e;" 
d="M256 448q106 0 181 -75t75 -181t-75 -181t-181 -75t-181 75t-75 181t75 181t181 75zM256 -47q99 0 169 70t70 169t-70 169t-169 70t-169 -70t-70 -169t70 -169t169 -70zM306 255l104 -18l-73 -76l14 -105l-95 46l-95 -46l14 105l-73 76l104 18l50 93z" />
    <glyph glyph-name="uniE02F" unicode="&#xe02f;" 
d="M256 448q106 0 181 -75t75 -181t-75 -181t-181 -75t-181 75t-75 181t75 181t181 75zM351 56l-14 105l73 76l-104 18l-50 93l-50 -93l-104 -18l73 -76l-14 -105l95 46z" />
    <glyph glyph-name="uniE030" unicode="&#xe030;" horiz-adv-x="307" 
d="M203 255l104 -18l-73 -76l15 -105l-95 46l-95 -46l14 105l-73 76l104 18l50 93z" />
    <glyph glyph-name="uniE031" unicode="&#xe031;" 
d="M256 448q106 0 181 -75t75 -181t-75 -181t-181 -75t-181 75t-75 181t75 181t181 75zM256 -47q99 0 169 70t70 169t-70 169t-169 70t-169 -70t-70 -169t70 -169t169 -70zM405 192q0 -49 -42 -83q11 -22 33 -44q-33 0 -77 19q-30 -11 -63 -11q-62 0 -105.5 35t-43.5 84
t43.5 84t105.5 35t105.5 -35t43.5 -84z" />
    <glyph glyph-name="uniE032" unicode="&#xe032;" 
d="M256 448q106 0 181 -75t75 -181t-75 -181t-181 -75t-181 75t-75 181t75 181t181 75zM396 65q-22 22 -33 44q42 36 42 83q0 49 -43.5 84t-105.5 35t-105.5 -35t-43.5 -84t43.5 -84t105.5 -35q33 0 63 11q44 -19 77 -19z" />
    <glyph glyph-name="uniE033" unicode="&#xe033;" horiz-adv-x="299" 
d="M299 192q0 -49 -42 -83q12 -24 32 -44q-33 0 -77 19q-30 -11 -63 -11q-62 0 -105.5 35t-43.5 84t43.5 84t105.5 35t106 -35t44 -84z" />
    <glyph glyph-name="uniE034" unicode="&#xe034;" 
d="M256 448q106 0 181 -75t75 -181t-75 -181t-181 -75t-181 75t-75 181t75 181t181 75zM256 -47q99 0 169 70t70 169t-70 169t-169 70t-169 -70t-70 -169t70 -169t169 -70zM128 158v68h256v-68h-256zM128 73v68h256v-68h-256zM128 243v68h256v-68h-256z" />
    <glyph glyph-name="uniE035" unicode="&#xe035;" 
d="M256 448q106 0 181 -75t75 -181t-75 -181t-181 -75t-181 75t-75 181t75 181t181 75zM384 73v68h-256v-68h256zM384 158v68h-256v-68h256zM384 243v68h-256v-68h256z" />
    <glyph glyph-name="uniE036" unicode="&#xe036;" horiz-adv-x="256" 
d="M0 158v68h256v-68h-256zM0 73v68h256v-68h-256zM0 243v68h256v-68h-256z" />
    <glyph glyph-name="uniE037" unicode="&#xe037;" 
d="M256 448q106 0 181 -75t75 -181t-75 -181t-181 -75t-181 75t-75 181t75 181t181 75zM256 -47q99 0 169 70t70 169t-70 169t-169 70t-169 -70t-70 -169t70 -169t169 -70zM301 307q17 0 24 -17h57v-146h-36l-2 -2l-24 -16q-21 -15 -21 -41v-17q0 -10 -7.5 -17.5t-17.5 -7.5
t-17 7t-7 18v59h-103q-10 0 -17.5 7.5t-7.5 18.5q0 13 11 21q-11 8 -11 22q0 10 7 17t17 8q-7 9 -7 17q0 10 7 17.5t17 8.5q-7 9 -7 17q0 11 8 18.5t18 7.5h119z" />
    <glyph glyph-name="uniE038" unicode="&#xe038;" 
d="M256 448q106 0 181 -75t75 -181t-75 -181t-181 -75t-181 75t-75 181t75 181t181 75zM382 144v146h-57q-7 17 -24 17h-119q-10 0 -18 -7.5t-8 -18.5q0 -8 7 -17q-10 -1 -17 -8.5t-7 -17.5q0 -8 7 -17q-10 -1 -17 -8t-7 -17q0 -14 11 -22q-11 -8 -11 -21q0 -11 7.5 -18.5
t17.5 -7.5h103v-59q0 -11 7 -18t17 -7t17.5 7.5t7.5 17.5v17q0 26 21 41l24 16l2 2h36z" />
    <glyph glyph-name="uniE039" unicode="&#xe039;" horiz-adv-x="261" 
d="M179 307q17 0 24 -17h58v-146h-36q-1 0 -1 -1l-2 -1l-24 -16q-21 -14 -21 -41v-17q0 -11 -7 -18t-17 -7q-11 0 -18 7.5t-7 17.5v59h-102q-10 0 -18 7.5t-8 18.5q0 12 12 21q-12 9 -12 22q0 10 7 17t17 8q-7 9 -7 17q0 10 7 17.5t17 8.5q-7 9 -7 17q0 11 8 18.5t18 7.5
h119z" />
    <glyph glyph-name="uniE03A" unicode="&#xe03a;" 
d="M256 448q106 0 181 -75t75 -181t-75 -181t-181 -75t-181 75t-75 181t75 181t181 75zM256 -47q99 0 169 70t70 169t-70 169t-169 70t-169 -70t-70 -169t70 -169t169 -70zM390 231q0 -13 -11 -21q11 -8 11 -22q0 -10 -7 -17t-17 -8q7 -9 7 -17q0 -10 -7 -17.5t-17 -8.5
q7 -9 7 -17q0 -11 -8 -18.5t-18 -7.5h-119q-17 0 -24 17h-57v146h36l2 2l24 16q21 14 21 41v17q0 10 7.5 17.5t17.5 7.5t17 -7t7 -18v-59h103q10 0 17.5 -7.5t7.5 -18.5z" />
    <glyph glyph-name="uniE03B" unicode="&#xe03b;" 
d="M256 448q106 0 181 -75t75 -181t-75 -181t-181 -75t-181 75t-75 181t75 181t181 75zM390 188q0 14 -11 22q11 8 11 21q0 11 -7.5 18.5t-17.5 7.5h-103v59q0 11 -7 18t-17 7t-17.5 -7.5t-7.5 -17.5v-17q0 -27 -21 -41l-24 -16l-2 -2h-36v-146h57q7 -17 24 -17h119
q10 0 18 7.5t8 18.5q0 8 -7 17q10 1 17 8.5t7 17.5q0 8 -7 17q10 1 17 8t7 17z" />
    <glyph glyph-name="uniE03C" unicode="&#xe03c;" horiz-adv-x="261" 
d="M261 231q0 -12 -12 -21q12 -9 12 -22q0 -10 -7 -17t-17 -8q6 -8 6 -17q0 -10 -6.5 -17.5t-16.5 -8.5q6 -8 6 -17q0 -11 -7.5 -18.5t-17.5 -7.5h-120q-16 0 -23 17h-58v146h36l2 2l24 16q21 14 21 41v17q0 10 7.5 17.5t17.5 7.5t17.5 -7.5t7.5 -17.5v-59h102
q11 0 18.5 -7.5t7.5 -18.5z" />
    <glyph glyph-name="uniE03D" unicode="&#xe03d;" 
d="M256 448q106 0 181 -75t75 -181t-75 -181t-181 -75t-181 75t-75 181t75 181t181 75zM256 -47q99 0 169 70t70 169t-70 169t-169 70t-169 -70t-70 -169t70 -169t169 -70zM115 192l111 64l111 64v-128v-128l-111 64z" />
    <glyph glyph-name="uniE03E" unicode="&#xe03e;" 
d="M256 448q106 0 181 -75t75 -181t-75 -181t-181 -75t-181 75t-75 181t75 181t181 75zM337 192v128l-111 -64l-111 -64l111 -64l111 -64v128z" />
    <glyph glyph-name="uniE03F" unicode="&#xe03f;" horiz-adv-x="222" 
d="M0 192l111 64l111 64v-128v-128l-111 64z" />
    <glyph glyph-name="uniE040" unicode="&#xe040;" 
d="M256 448q106 0 181 -75t75 -181t-75 -181t-181 -75t-181 75t-75 181t75 181t181 75zM256 -47q99 0 169 70t70 169t-70 169t-169 70t-169 -70t-70 -169t70 -169t169 -70zM175 320l111 -64l111 -64l-111 -64l-111 -64v128v128z" />
    <glyph glyph-name="uniE041" unicode="&#xe041;" 
d="M256 448q106 0 181 -75t75 -181t-75 -181t-181 -75t-181 75t-75 181t75 181t181 75zM286 128l111 64l-111 64l-111 64v-128v-128z" />
    <glyph glyph-name="uniE042" unicode="&#xe042;" horiz-adv-x="222" 
d="M0 320l111 -64l111 -64l-111 -64l-111 -64v128v128z" />
    <glyph glyph-name="uniE043" unicode="&#xe043;" 
d="M256 448q106 0 181 -75t75 -181t-75 -181t-181 -75t-181 75t-75 181t75 181t181 75zM256 -47q99 0 169 70t70 169t-70 169t-169 70t-169 -70t-70 -169t70 -169t169 -70zM324 320l60 -60l-68 -68l68 -68l-60 -60l-68 68l-68 -68l-60 60l68 68l-68 68l60 60l68 -68z" />
    <glyph glyph-name="uniE044" unicode="&#xe044;" 
d="M256 448q106 0 181 -75t75 -181t-75 -181t-181 -75t-181 75t-75 181t75 181t181 75zM384 124l-68 68l68 68l-60 60l-68 -68l-68 68l-60 -60l68 -68l-68 -68l60 -60l68 68l68 -68z" />
    <glyph glyph-name="uniE045" unicode="&#xe045;" horiz-adv-x="257" 
d="M196 342l61 -61l-68 -68l68 -68l-61 -60l-68 68l-68 -68l-60 60l68 68l-68 68l60 61l68 -68z" />
  </font>
</defs>
</svg>
