<?xml version="1.0" standalone="no"?> 
<!DOCTYPE svg PUBLIC "-//W3C//DTD SVG 1.1//EN" "http://www.w3.org/Graphics/SVG/1.1/DTD/svg11.dtd" >
<svg xmlns="http://www.w3.org/2000/svg">
<defs>
  <font id="iCheckMovies" horiz-adv-x="512">
    <font-face font-family="iCheckMovies"
      units-per-em="512" ascent="448"
      descent="64" />
    <missing-glyph horiz-adv-x="0" />
    <glyph glyph-name="check-circled"
      unicode="&#xE001;"
      horiz-adv-x="512" d=" M256 448C114.625 448 0 333.375 0 192S114.625 -64 256 -64S512 50.625 512 192S397.375 448 256 448zM256 -46.938C124.25 -46.938 17.062 60.25 17.062 192S124.25 430.938 256 430.938S494.938 323.75 494.938 192S387.75 -46.938 256 -46.938z M351.78 314.438L225.312 187.938L172.609 240.641L112.219 180.314L164.951 127.564H164.921L192.951 99.502L225.279 67.252H225.311L258.077 100.0319999999999L285.624 127.565H285.5940000000001L412.124 254.112" />
    <glyph glyph-name="check-filled"
      unicode="&#xE002;"
      horiz-adv-x="512" d=" M256 448C114.625 448 0 333.375 0 192S114.625 -64 256 -64S512 50.625 512 192S397.375 448 256 448zM285.625 127.5L255.047 96.938L225.313 67.188L195.453 97.126L165 127.562L112.22 180.312L172.61 240.64L225.282 187.937L351.7820000000001 314.467L412.1260000000001 254.137L285.6260000000001 127.5z" />
    <glyph glyph-name="check"
      unicode="&#xE003;"
      horiz-adv-x="512" d=" M341.78 317.438L215.312 190.938L162.609 243.641L102.219 183.314L154.951 130.564H154.921L182.951 102.502L215.279 70.252H215.311L248.077 103.0319999999999L275.624 130.565H275.594L402.124 257.112" />
    <glyph glyph-name="dots-circled"
      unicode="&#xE004;"
      horiz-adv-x="512" d=" M256 430.9340000000001C387.75 430.9340000000001 494.934 323.75 494.934 192S387.75 -46.934 256 -46.934S17.066 60.25 17.066 192S124.25 430.9340000000001 256 430.9340000000001M256 448C114.617 448 0 333.3880000000001 0 192S114.617 -64 256 -64C397.3830000000001 -64 512 50.612 512 192S397.383 448 256 448z M213.334 192C213.334 168.4362188637194 232.4362188637194 149.334 256 149.334C279.5637811362806 149.334 298.666 168.4362188637194 298.666 192C298.666 215.5637811362806 279.5637811362806 234.666 256 234.666C232.4362188637194 234.666 213.334 215.5637811362806 213.334 192z M110.933 192C110.933 168.4356665789695 130.0356665789696 149.333 153.6 149.333C177.1643334210305 149.333 196.267 168.4356665789695 196.267 192C196.267 215.5643334210305 177.1643334210305 234.667 153.6 234.667C130.0356665789696 234.667 110.933 215.5643334210305 110.933 192z M315.733 192C315.733 168.4356665789695 334.8356665789695 149.333 358.4 149.333C381.9643334210305 149.333 401.067 168.4356665789695 401.067 192C401.067 215.5643334210305 381.9643334210305 234.667 358.4 234.667C334.8356665789695 234.667 315.733 215.5643334210305 315.733 192z" />
    <glyph glyph-name="dots-filled"
      unicode="&#xE005;"
      horiz-adv-x="512" d=" M256 448C114.625 448 0 333.375 0 192S114.625 -64 256 -64S512 50.625 512 192S397.375 448 256 448zM153.594 149.312C130.016 149.312 110.938 168.437 110.938 192C110.938 215.547 130.016 234.656 153.594 234.656C177.188 234.656 196.25 215.546 196.25 192C196.25 168.438 177.156 149.312 153.594 149.312zM256 149.312C232.453 149.312 213.344 168.437 213.344 192C213.344 215.547 232.454 234.656 256 234.656C279.562 234.656 298.688 215.546 298.688 192C298.688 168.438 279.562 149.312 256 149.312zM358.406 149.312C334.844 149.312 315.75 168.437 315.75 192C315.75 215.547 334.844 234.656 358.406 234.656C381.9360000000001 234.656 401.062 215.546 401.062 192C401.062 168.438 382 149.312 358.406 149.312z" />
    <glyph glyph-name="dots"
      unicode="&#xE006;"
      horiz-adv-x="512" d=" M203.334 192C203.334 168.4362188637194 222.4362188637194 149.334 246 149.334C269.5637811362806 149.334 288.666 168.4362188637194 288.666 192C288.666 215.5637811362806 269.5637811362806 234.666 246 234.666C222.4362188637194 234.666 203.334 215.5637811362806 203.334 192z M100.933 192C100.933 168.4356665789695 120.0356665789695 149.333 143.6 149.333C167.1643334210305 149.333 186.267 168.4356665789695 186.267 192C186.267 215.5643334210305 167.1643334210305 234.667 143.6 234.667C120.0356665789695 234.667 100.933 215.5643334210305 100.933 192z M305.733 192C305.733 168.4356665789695 324.8356665789695 149.333 348.4 149.333C371.9643334210305 149.333 391.067 168.4356665789695 391.067 192C391.067 215.5643334210305 371.9643334210305 234.667 348.4 234.667C324.8356665789695 234.667 305.733 215.5643334210305 305.733 192z" />
    <glyph glyph-name="exit-site-circled"
      unicode="&#xE007;"
      horiz-adv-x="512" d=" M253.86 281.625L280.812 254.625L236.312 210.078L272.562 173.875L317.062 218.438L344.062 191.422L360.562 253.032L377.094 314.656L315.438 298.141 M256 448C114.625 448 0 333.375 0 192S114.625 -64 256 -64S512 50.625 512 192S397.375 448 256 448zM256 -46.938C124.25 -46.938 17.062 60.25 17.062 192S124.25 430.938 256 430.938S494.938 323.75 494.938 192S387.75 -46.938 256 -46.938z M332.75 123.75H179.203V260.25H213.343V294.406H145.063V89.594H366.938V157.874H332.75" />
    <glyph glyph-name="exit-site-filled"
      unicode="&#xE008;"
      horiz-adv-x="512" d=" M256 448C114.625 448 0 333.375 0 192C0 50.594 114.625 -64 256 -64S512 50.594 512 192C512 333.375 397.375 448 256 448zM366.938 123.688V89.563H145.063V294.375H213.343V260.25H179.203V123.688H332.813V157.876H366.937V123.688zM360.562 253.031L344.062 191.391L317.062 218.408L272.562 173.8779999999999L236.312 210.0799999999999L280.874 254.6259999999999L253.8580000000001 281.6259999999999L315.5 298.14L377.125 314.657L360.562 253.031z" />
    <glyph glyph-name="exit-site"
      unicode="&#xE009;"
      horiz-adv-x="512" d=" M253.86 281.625L280.812 254.625L236.312 210.078L272.562 173.875L317.062 218.438L344.062 191.422L360.562 253.032L377.094 314.656L315.438 298.141 M332.75 123.75H179.203V260.25H213.343V294.406H145.063V89.594H366.938V157.874H332.75" />
    <glyph glyph-name="eye-circled"
      unicode="&#xE00A;"
      horiz-adv-x="512" d=" M256 448C114.625 448 0 333.375 0 192S114.625 -64 256 -64S512 50.625 512 192S397.375 448 256 448zM256 -46.938C124.25 -46.938 17.062 60.25 17.062 192S124.25 430.938 256 430.938S494.938 323.75 494.938 192S387.75 -46.938 256 -46.938z M256.016 311.445C160.626 311.445 106.672 191.992 106.672 191.992S160.625 72.554 256.016 72.554C351.391 72.554 405.3280000000001 191.992 405.3280000000001 191.992S351.39 311.445 256.016 311.445zM256.016 149.305C232.469 149.305 213.36 168.43 213.36 191.993C213.36 215.54 232.4700000000001 234.649 256.016 234.649C279.5780000000001 234.649 298.704 215.539 298.704 191.991C298.704 168.429 279.5780000000001 149.303 256.016 149.303z" />
    <glyph glyph-name="eye-filled"
      unicode="&#xE00B;"
      horiz-adv-x="512" d=" M256 448C114.625 448 0 333.375 0 192S114.625 -64 256 -64S512 50.625 512 192S397.375 448 256 448zM256 72.5C160.61 72.5 106.656 192 106.656 192S160.61 311.453 256 311.453C351.375 311.453 405.312 192 405.312 192S351.375 72.5 256 72.5z M256 234.656C279.562 234.656 298.656 215.562 298.656 192C298.656 168.438 279.562 149.344 256 149.344C232.438 149.344 213.344 168.438 213.344 192C213.344 215.562 232.438 234.656 256 234.656z" />
    <glyph glyph-name="eye"
      unicode="&#xE00C;"
      horiz-adv-x="512" d=" M249.016 311.445C153.626 311.445 99.672 191.992 99.672 191.992S153.625 72.554 249.016 72.554C344.391 72.554 398.328 191.992 398.328 191.992S344.39 311.445 249.016 311.445zM249.016 149.305C225.469 149.305 206.36 168.43 206.36 191.993C206.36 215.54 225.47 234.649 249.016 234.649C272.578 234.649 291.704 215.539 291.704 191.991C291.704 168.431 272.5780000000001 149.303 249.016 149.303z" />
    <glyph glyph-name="five-bars-circled"
      unicode="&#xE00D;"
      horiz-adv-x="512" d=" M256 448C114.625 448 0 333.375 0 192S114.625 -64 256 -64S512 50.625 512 192S397.375 448 256 448zM256 -46.938C124.25 -46.938 17.062 60.25 17.062 192S124.25 430.938 256 430.938S494.938 323.75 494.938 192S387.75 -46.938 256 -46.938z M238.938 320H273.063V64H238.938zM187.75 320H221.86V64H187.75zM136.547 320H170.657V64H136.547zM290.125 320H324.25V64H290.125zM341.3450000000001 320H375.4380000000001V64H341.3440000000001z" />
    <glyph glyph-name="five-bars-filled"
      unicode="&#xE00E;"
      horiz-adv-x="512" d=" M256 448C114.625 448 0 333.375 0 192S114.625 -64 256 -64S512 50.625 512 192S397.375 448 256 448zM170.656 64H136.546V320H170.656V64zM221.891 64H187.751V320H221.8610000000001V64H221.8910000000001zM273.064 64H238.939V320H273.064V64zM324.284 64H290.127V320H324.252V64H324.282zM375.44 64H341.3450000000001V320H375.439V64z" />
    <glyph glyph-name="five-bars"
      unicode="&#xE00F;"
      horiz-adv-x="512" d=" M238.938 320H273.063V64H238.938zM187.75 320H221.86V64H187.75zM136.547 320H170.657V64H136.547zM290.125 320H324.25V64H290.125zM341.3450000000001 320H375.4380000000001V64H341.3440000000001z" />
    <glyph glyph-name="heart-circled"
      unicode="&#xE010;"
      horiz-adv-x="512" d=" M256 448C114.625 448 0 333.375 0 192S114.625 -64 256 -64S512 50.625 512 192S397.375 448 256 448zM256 -46.938C124.25 -46.938 17.062 60.25 17.062 192S124.25 430.938 256 430.938S494.938 323.75 494.938 192S387.75 -46.938 256 -46.938z M309.938 296.516C278.063 292.64 263.11 274.938 256 259.75C248.89 274.938 233.922 292.64 202.047 296.4840000000001C199.453 296.7960000000001 196.922 297 194.407 297.031C115.327 298.439 42.14 174.814 255.359 46.595C255.545 47.001 256.514 47.001 256.7320000000001 46.595C476.75 178.97 391.688 306.438 309.938 296.516z" />
    <glyph glyph-name="heart-filled"
      unicode="&#xE011;"
      horiz-adv-x="512" d=" M256 448C114.625 448 0 333.375 0 192C0 50.594 114.625 -64 256 -64S512 50.594 512 192C512 333.375 397.375 448 256 448zM256.703 46.562C256.483 47 255.515 47 255.328 46.562C42.108 174.812 115.298 298.468 194.375 297.0320000000001C196.891 297 199.453 296.7970000000001 202.015 296.4840000000001C233.89 292.64 248.89 274.938 256 259.75C263.11 274.938 278.062 292.61 309.938 296.4840000000001C391.688 306.406 476.75 178.938 256.703 46.562z" />
    <glyph glyph-name="heart"
      unicode="&#xE012;"
      horiz-adv-x="512" d=" M309.938 296.516C278.063 292.64 263.11 274.938 256 259.75C248.89 274.938 233.922 292.64 202.047 296.4840000000001C199.453 296.7960000000001 196.922 297 194.407 297.031C115.327 298.439 42.14 174.814 255.359 46.595C255.545 47.001 256.514 47.001 256.7320000000001 46.595C476.75 178.97 391.688 306.438 309.938 296.516z" />
    <glyph glyph-name="letter-circled"
      unicode="&#xE013;"
      horiz-adv-x="512" d=" M256 430.9340000000001C387.75 430.9340000000001 494.934 323.75 494.934 192S387.75 -46.934 256 -46.934S17.067 60.25 17.067 192S124.25 430.9340000000001 256 430.9340000000001M256 448C114.617 448 0 333.3880000000001 0 192C0 50.617 114.617 -64 256 -64C397.384 -64 512 50.617 512 192C512 333.3880000000001 397.384 448 256 448z M396.8 287.587V294.4H115.2V287.587L256 193.72 M262.15 177.316L256 173.216L249.85 177.316L115.2 267.0800000000001V89.6H396.8V267.0800000000001" />
    <glyph glyph-name="letter-filled"
      unicode="&#xE014;"
      horiz-adv-x="512" d=" M256 448C114.625 448 0 333.375 0 192C0 50.594 114.625 -64 256 -64S512 50.594 512 192C512 333.375 397.375 448 256 448zM396.812 89.562H115.202V267.078L249.859 177.312L255.999 173.187L262.139 177.312L396.81 267.0800000000001V89.56zM396.812 287.5470000000001L256 193.734L115.203 287.546V294.374H396.813V287.5470000000001z" />
    <glyph glyph-name="letter"
      unicode="&#xE015;"
      horiz-adv-x="512" d=" M396.8 287.587V294.4H115.2V287.587L256 193.72 M262.15 177.316L256 173.216L249.85 177.316L115.2 267.0800000000001V89.6H396.8V267.0800000000001" />
    <glyph glyph-name="lock-circled"
      unicode="&#xE016;"
      horiz-adv-x="512" d=" M256 448C114.625 448 0 333.375 0 192S114.625 -64 256 -64S512 50.625 512 192S397.375 448 256 448zM256 -46.938C124.25 -46.938 17.062 60.25 17.062 192S124.25 430.938 256 430.938S494.938 323.75 494.938 192S387.75 -46.938 256 -46.938z M341.344 231.516V256C341.344 303.1720000000001 303.188 341.344 256 341.344C208.828 341.344 170.688 303.1720000000001 170.688 256V231.516C150.876 224.422 136.548 205.626 136.548 183.454V115.187C136.548 87.062 159.578 63.999 187.781 63.999H324.314C352.502 63.999 375.502 87.059 375.502 115.185V183.451C375.442 205.623 361.128 224.421 341.347 231.514zM256 307.203C284.25 307.203 307.188 284.219 307.188 256V234.656H204.798V256C204.798 284.2200000000001 227.781 307.203 256 307.203z" />
    <glyph glyph-name="lock-filled"
      unicode="&#xE017;"
      horiz-adv-x="512" d=" M256 307.203C227.78 307.203 204.797 284.219 204.797 256V234.656H307.187V256C307.187 284.2200000000001 284.25 307.203 256 307.203z M256 448C114.625 448 0 333.375 0 192C0 50.594 114.625 -64 256 -64S512 50.594 512 192C512 333.375 397.375 448 256 448zM375.438 115.188C375.438 87 352.438 64 324.25 64H187.75C159.547 64 136.516 87 136.516 115.188V183.454C136.516 205.594 150.813 224.548 170.656 231.657V256C170.656 303.14 208.798 341.312 255.969 341.312C303.123 341.312 341.342 303.14 341.342 256V231.656C361.154 224.546 375.436 205.626 375.436 183.453V115.188z" />
    <glyph glyph-name="lock"
      unicode="&#xE018;"
      horiz-adv-x="512" d=" M341.344 231.516V256C341.344 303.1720000000001 303.188 341.344 256 341.344C208.828 341.344 170.688 303.1720000000001 170.688 256V231.516C150.876 224.422 136.548 205.626 136.548 183.454V115.187C136.548 87.062 159.578 63.999 187.781 63.999H324.314C352.502 63.999 375.502 87.059 375.502 115.185V183.451C375.442 205.623 361.128 224.421 341.347 231.514zM256 307.203C284.25 307.203 307.188 284.219 307.188 256V234.656H204.798V256C204.798 284.2200000000001 227.781 307.203 256 307.203z" />
    <glyph glyph-name="logo-imdb-circled"
      unicode="&#xE019;"
      horiz-adv-x="512" d=" M256 430.9340000000001C387.75 430.9340000000001 494.934 323.75 494.934 192S387.75 -46.934 256 -46.934S17.067 60.25 17.067 192S124.25 430.9340000000001 256 430.9340000000001M256 448C114.617 448 0 333.3880000000001 0 192C0 50.617 114.617 -64 256 -64C397.384 -64 512 50.617 512 192C512 333.3880000000001 397.384 448 256 448z M85.8 261.788C97.917 261.726 110.033 261.7340000000001 122.15 261.771C122.117 215.536 122.076 169.3010000000001 122.184 123.069C110.05 123.019 97.917 123.019 85.784 123.036C85.892 169.302 85.867 215.536 85.8 261.79zM134.217 261.675C149.884 261.613 165.542 261.7000000000001 181.2 261.621C182.842 251.485 184.533 241.361 185.533 231.135C187.275 220.077 188.733 208.96 190.533 197.923C193.6 219.108 195.717 240.441 198.741 261.6330000000001C214.541 261.6330000000001 230.318 261.687 246.111 261.608C245.985 215.441 246.061 169.288 246.061 123.112C235.461 123.112 224.876 123.052 214.293 123.145C214.461 149.662 214.169 176.211 214.277 202.728C214.467 206.865 214.452 210.986 214.135 215.108C212.675 208.881 212.902 202.428 211.751 196.152C208.443 171.826 204.876 147.518 201.943 123.142C194.476 123.068 187.001 123.018 179.551 123.142C178.651 124.11 178.935 125.702 178.601 126.926C174.701 155.668 170.176 184.351 166.234 213.101C165.7520000000001 209.037 166.2940000000001 204.961 166.2180000000001 200.881C166.1430000000001 174.957 166.126 149.041 166.1010000000001 123.107C155.4680000000001 123.09 144.8340000000001 123.032 134.1930000000001 123.124C134.3130000000001 169.316 134.2360000000001 215.492 134.22 261.674zM258.1 261.685C272.767 261.575 287.434 261.875 302.1 261.4550000000001C310.534 261.218 319.35 260.4550000000001 326.834 256.23C334.066 252.247 338.717 244.32 339.342 236.168C340.6169999999999 223.208 340.0999999999999 210.143 340.2 197.134C340.075 182.259 340.45 167.368 339.933 152.484C339.4579999999999 145.1 339.266 136.6590000000001 333.673 131.067C328.108 124.859 319.266 123.401 311.333 123.317C293.591 122.809 275.823 123.175 258.065 123.092C258.158 169.3 258.125 215.492 258.1 261.684zM294.483 237.992C294.25 207.672 294.45 177.35 294.3829999999999 147.042C297.5329999999999 147.392 301.466 147.267 303.6329999999999 150.042C305.166 154.408 305.108 159.125 305.3159999999999 163.684C305.3339999999999 184.467 305.3339999999999 205.234 305.3159999999999 225.996C305.0489999999999 229.416 305.616 233.538 302.95 236.184C300.4919999999999 237.904 297.3159999999999 237.658 294.483 237.992zM351.95 261.77C363.6669999999999 261.726 375.384 261.734 387.108 261.78C386.8999999999999 246.793 387.298 231.8 386.875 216.826C389.709 219.843 392.867 222.692 396.685 224.359C404.185 226.995 412.535 227.465 420.159 225.082C425.765 223.628 430.409 219.224 432.532 213.894C434.015 209.394 433.7579999999999 204.599 433.882 199.928C433.932 184.431 433.949 168.965 433.8999999999999 153.498C433.9179999999999 147.531 433.517 141.573 432.2999999999999 135.748C430.5999999999999 130.858 426.7169999999999 127.015 422.4169999999999 124.314C410.7999999999999 118.231 394.8089999999999 120.964 386.8999999999999 131.764C386.4839999999999 128.839 385.6749999999999 126.014 385.0259999999999 123.122C373.9759999999999 122.9139999999999 362.9509999999999 123.03 351.9009999999999 123.062C352.0769999999999 169.312 351.9849999999999 215.53 351.9509999999999 261.7679999999999zM389.8999999999999 206.05C386.95 204.6 387.39 200.833 387.1169999999999 198.08C386.9589999999999 184.433 387.092 170.783 387.0569999999999 157.125C387.1499999999999 153.059 386.8999999999999 148.95 387.7909999999999 144.975C388.6259999999999 139.767 398.4609999999999 140.767 398.3509999999999 146.042C399.4939999999999 160.566 398.6609999999999 175.15 398.9349999999999 189.7120000000001C398.9519999999999 194.0880000000001 398.9349999999999 198.5320000000001 398.0679999999999 202.829C397.2349999999999 206.406 392.8109999999999 206.511 389.9019999999999 206.049z" />
    <glyph glyph-name="logo-imdb-filled"
      unicode="&#xE01A;"
      horiz-adv-x="512" d=" M294.483 237.992C294.25 207.672 294.45 177.35 294.383 147.042C297.533 147.392 301.466 147.267 303.633 150.042C305.166 154.408 305.108 159.125 305.316 163.684C305.333 184.467 305.333 205.234 305.316 225.996C305.049 229.416 305.616 233.538 302.95 236.184C300.492 237.904 297.316 237.658 294.483 237.992zM398.933 189.717C398.951 194.084 398.933 198.533 398.067 202.829C397.234 206.406 392.8090000000001 206.511 389.901 206.049C386.951 204.599 387.394 200.832 387.1210000000001 198.079C386.961 184.431 387.0950000000001 170.781 387.0610000000001 157.123C387.153 153.057 386.903 148.948 387.7940000000001 144.973C388.6270000000001 139.765 398.4600000000001 140.765 398.3520000000001 146.04C399.495 160.565 398.6620000000001 175.15 398.937 189.716z M256 448C114.617 448 0 333.3880000000001 0 192C0 50.617 114.617 -64 256 -64C397.3830000000001 -64 512 50.617 512 192C512 333.3880000000001 397.383 448 256 448zM85.783 123.033C85.891 169.3 85.866 215.533 85.8 261.7870000000001C97.917 261.725 110.033 261.733 122.15 261.77C122.117 215.532 122.075 169.3 122.184 123.065C110.05 123.017 97.917 123.017 85.784 123.033zM246.0590000000001 123.108C235.456 123.108 224.873 123.048 214.289 123.141C214.456 149.661 214.165 176.211 214.273 202.726C214.465 206.863 214.448 210.984 214.131 215.106C212.673 208.88 212.898 202.426 211.748 196.151C208.438 171.825 204.872 147.516 201.938 123.141C194.472 123.066 186.998 123.016 179.548 123.141C178.648 124.108 178.93 125.701 178.598 126.924C174.698 155.6660000000001 170.171 184.3490000000001 166.228 213.0990000000001C165.746 209.037 166.288 204.9620000000001 166.212 200.8830000000001C166.137 174.958 166.12 149.0410000000001 166.095 123.1080000000001C155.462 123.0910000000001 144.828 123.0330000000001 134.185 123.1250000000001C134.303 169.3150000000001 134.228 215.4920000000001 134.2110000000001 261.6750000000001C149.8780000000001 261.6130000000001 165.536 261.7000000000001 181.1940000000001 261.6210000000001C182.8360000000001 251.4830000000001 184.5270000000001 241.3580000000001 185.5270000000001 231.1340000000001C187.2670000000001 220.0740000000001 188.727 208.9590000000001 190.5270000000001 197.9210000000001C193.5930000000001 219.1050000000001 195.71 240.4380000000001 198.734 261.6290000000001C214.5340000000001 261.6290000000001 230.3090000000001 261.6830000000001 246.1010000000001 261.6040000000001C245.979 215.4390000000001 246.0550000000001 169.2840000000001 246.0550000000001 123.109zM339.932 152.483C339.456 145.099 339.2650000000001 136.658 333.6720000000001 131.066C328.1070000000001 124.858 319.2650000000001 123.4 311.3320000000001 123.316C293.5900000000001 122.8080000000001 275.8220000000001 123.174 258.0640000000001 123.091C258.1560000000001 169.301 258.1240000000001 215.491 258.0970000000001 261.685C272.7630000000001 261.577 287.4300000000001 261.875 302.0970000000001 261.4550000000001C310.5300000000001 261.2190000000001 319.3470000000001 260.4550000000001 326.8290000000001 256.231C334.0620000000001 252.247 338.7130000000001 244.3210000000001 339.3390000000001 236.1680000000001C340.6130000000001 223.21 340.0960000000001 210.143 340.1960000000001 197.1350000000001C340.0710000000001 182.2600000000001 340.4460000000001 167.3680000000001 339.9300000000001 152.4850000000001zM432.3 135.75C430.6 130.858 426.717 127.017 422.4170000000001 124.316C410.8 118.233 394.8090000000001 120.966 386.9000000000001 131.766C386.4830000000001 128.841 385.6740000000001 126.016 385.0250000000001 123.124C373.975 122.916 362.9500000000001 123.032 351.9000000000001 123.064C352.0750000000001 169.314 351.9830000000001 215.532 351.9500000000001 261.77C363.6670000000001 261.724 375.3830000000001 261.732 387.1080000000001 261.778C386.9000000000001 246.791 387.2980000000001 231.798 386.8750000000001 216.824C389.7080000000001 219.841 392.8670000000001 222.691 396.6850000000001 224.357C404.1850000000001 226.995 412.5350000000001 227.465 420.1590000000001 225.0819999999999C425.7650000000001 223.6279999999999 430.4090000000001 219.2239999999999 432.5320000000001 213.894C434.0150000000001 209.394 433.7570000000001 204.598 433.8820000000001 199.9269999999999C433.9320000000001 184.4309999999999 433.9490000000001 168.9649999999999 433.9000000000001 153.497C433.9160000000001 147.533 433.516 141.5749999999999 432.3 135.75z" />
    <glyph glyph-name="logo-imdb"
      unicode="&#xE01B;"
      horiz-adv-x="512" d=" M85.8 261.788C97.917 261.726 110.033 261.7340000000001 122.15 261.771C122.117 215.536 122.076 169.3010000000001 122.184 123.069C110.05 123.019 97.917 123.019 85.784 123.036C85.892 169.302 85.867 215.536 85.8 261.79zM134.217 261.675C149.884 261.613 165.542 261.7000000000001 181.2 261.621C182.842 251.485 184.533 241.361 185.533 231.135C187.275 220.077 188.733 208.96 190.533 197.923C193.6 219.108 195.717 240.441 198.741 261.6330000000001C214.541 261.6330000000001 230.318 261.687 246.111 261.608C245.985 215.441 246.061 169.288 246.061 123.112C235.461 123.112 224.876 123.052 214.293 123.142C214.461 149.6619999999999 214.169 176.2099999999999 214.277 202.7269999999999C214.467 206.8639999999999 214.452 210.9849999999999 214.135 215.1069999999999C212.675 208.8799999999999 212.902 202.4269999999999 211.751 196.1509999999999C208.443 171.8249999999999 204.876 147.517 201.943 123.1409999999999C194.476 123.0679999999999 187.001 123.0169999999999 179.551 123.1409999999999C178.651 124.1109999999999 178.935 125.7009999999999 178.601 126.9249999999999C174.701 155.6669999999999 170.176 184.3509999999999 166.234 213.0999999999999C165.7520000000001 209.0369999999999 166.2940000000001 204.9599999999999 166.2180000000001 200.8819999999999C166.1430000000001 174.9579999999999 166.126 149.0419999999999 166.1010000000001 123.1089999999999C155.4680000000001 123.089 144.8340000000001 123.0329999999999 134.1930000000001 123.125C134.3130000000001 169.317 134.2360000000001 215.493 134.22 261.675zM258.1 261.685C272.768 261.575 287.434 261.875 302.1 261.4550000000001C310.535 261.218 319.35 260.4550000000001 326.834 256.23C334.066 252.247 338.717 244.32 339.342 236.168C340.6169999999999 223.208 340.0999999999999 210.143 340.2 197.134C340.075 182.259 340.45 167.368 339.933 152.484C339.457 145.1 339.265 136.66 333.673 131.0680000000001C328.107 124.86 319.265 123.4020000000001 311.333 123.3180000000001C293.59 122.8080000000001 275.823 123.1750000000001 258.063 123.0920000000001C258.158 169.3000000000001 258.125 215.4920000000001 258.1 261.6840000000001zM294.482 237.992C294.25 207.672 294.45 177.349 294.382 147.042C297.532 147.392 301.465 147.268 303.632 150.042C305.165 154.408 305.107 159.125 305.316 163.684C305.334 184.467 305.334 205.234 305.316 225.996C305.048 229.416 305.616 233.538 302.95 236.184C300.492 237.904 297.316 237.658 294.482 237.992zM351.95 261.77C363.667 261.726 375.384 261.734 387.107 261.78C386.9 246.793 387.297 231.8 386.875 216.826C389.709 219.843 392.867 222.692 396.685 224.359C404.185 226.995 412.535 227.465 420.16 225.082C425.767 223.628 430.41 219.224 432.535 213.894C434.017 209.394 433.761 204.599 433.885 199.928C433.935 184.43 433.952 168.965 433.905 153.498C433.921 147.531 433.519 141.573 432.302 135.748C430.602 130.858 426.719 127.015 422.419 124.314C410.799 118.231 394.809 120.964 386.899 131.764C386.483 128.838 385.673 126.014 385.024 123.121C373.974 122.913 362.95 123.029 351.899 123.061C352.074 169.313 351.981 215.531 351.949 261.768zM389.9 206.05C386.95 204.6 387.39 200.833 387.117 198.08C386.959 184.433 387.092 170.783 387.057 157.125C387.15 153.059 386.9 148.95 387.79 144.975C388.623 139.767 398.457 140.767 398.348 146.042C399.492 160.566 398.658 175.15 398.932 189.7120000000001C398.95 194.0880000000001 398.932 198.5320000000001 398.066 202.829C397.233 206.406 392.809 206.511 389.9 206.049z" />
    <glyph glyph-name="logo-rottentomatoes-circled"
      unicode="&#xE01C;"
      horiz-adv-x="512" d=" M256 430.938C387.75 430.938 494.938 323.75 494.938 192S387.75 -46.938 256 -46.938S17.062 60.25 17.062 192S124.25 430.938 256 430.938M256 448C114.625 448 0 333.375 0 192S114.625 -64 256 -64S512 50.625 512 192S397.375 448 256 448z M368.312 93.093S301.124 128 291.374 44.905C270.89 42.343 174.5 20.25 125.796 140.78C125.796 140.78 140.64 176.14 110.436 188.968C111.968 220.265 125.281 353.576 263.749 296.656C265.249 311.5 264.264 321.266 259.105 342.281C268.8250000000001 338.674 291.903 326.891 298.589 295.627C304.746 302.83 309.871 316.657 345.246 322.283C341.152 312.081 334.996 301.815 318.058 287.956C335.525 284.846 362.681 284.846 378.058 277.176C366.744 269.486 359.588 271.5659999999999 331.9 264.363C354.994 251.535 382.65 254.613 401.62 202.316C395.9940000000001 195.66 394.9940000000001 196.332 390.93 187.988C390.556 186.38 388.306 179.285 393.43 166.941C397.93 156.191 403.18 154.691 399.12 141.316C393.997 124.846 378.56 100.784 368.31 93.096" />
    <glyph glyph-name="logo-rottentomatoes-filled"
      unicode="&#xE01D;"
      horiz-adv-x="512" d=" M256 448C114.625 448 0 333.375 0 192S114.625 -64 256 -64S512 50.625 512 192S397.375 448 256 448zM393.406 166.938C397.936 156.158 403.186 154.658 399.062 141.283C394 124.813 378.562 100.753 368.2820000000001 93.095C368.2820000000001 93.095 301.1250000000001 127.97 291.3750000000001 44.875C270.8750000000001 42.345 174.5000000000001 20.251 125.7970000000001 140.751C125.7970000000001 140.751 140.6410000000001 176.128 110.4370000000001 188.956C111.9370000000001 220.253 125.2500000000001 353.566 263.6870000000001 296.676C265.2190000000001 311.519 264.2190000000001 321.284 259.1100000000001 342.3C268.7980000000001 338.69 291.8770000000001 326.91 298.5630000000001 295.61C304.6880000000001 302.814 309.8750000000001 316.64 345.2190000000001 322.267C341.1230000000001 312.064 334.9360000000001 301.797 318.0610000000001 287.939C335.4990000000001 284.829 362.6550000000001 284.829 377.9990000000001 277.159C366.7190000000001 269.469 359.5620000000001 271.549 331.8750000000001 264.345C354.9690000000001 251.517 382.6250000000001 254.595 401.5950000000001 202.298C395.9690000000001 195.658 394.9380000000001 196.313 390.875 187.968C390.53 186.374 388.28 179.265 393.405 166.938z" />
    <glyph glyph-name="logo-rottentomatoes"
      unicode="&#xE01E;"
      horiz-adv-x="512" d=" M368.312 93.093S301.124 127.9980000000001 291.374 44.905C270.89 42.343 174.5 20.25 125.796 140.78C125.796 140.78 140.64 176.14 110.436 188.968C111.968 220.265 125.281 353.575 263.749 296.656C265.249 311.5 264.264 321.266 259.105 342.281C268.8250000000001 338.674 291.903 326.891 298.589 295.627C304.745 302.83 309.869 316.657 345.245 322.283C341.151 312.081 334.995 301.815 318.057 287.956C335.5270000000001 284.846 362.682 284.846 378.057 277.176C366.745 269.486 359.587 271.5659999999999 331.9020000000001 264.363C354.9960000000001 251.535 382.6520000000001 254.613 401.6220000000001 202.316C395.9960000000001 195.66 394.9960000000001 196.332 390.9320000000001 187.988C390.5580000000001 186.38 388.3080000000001 179.285 393.4320000000001 166.941C397.9340000000001 156.191 403.1840000000001 154.691 399.1220000000001 141.316C393.9990000000001 124.846 378.5620000000001 100.784 368.3120000000001 93.096" />
    <glyph glyph-name="logo-twitter-circled"
      unicode="&#xE01F;"
      horiz-adv-x="512" d=" M256 430.938C387.75 430.938 494.938 323.75 494.938 192S387.75 -46.938 256 -46.938S17.062 60.25 17.062 192S124.25 430.938 256 430.938M256 448C114.625 448 0 333.375 0 192S114.625 -64 256 -64S512 50.625 512 192S397.375 448 256 448z M413.25 275.7200000000001C402.312 270.875 390.53 267.578 378.188 266.11C390.813 273.6570000000001 400.438 285.626 405.033 299.876C393.2530000000001 292.86 380.188 287.814 366.2530000000001 285.064C355.1270000000001 296.924 339.2530000000001 304.314 321.7530000000001 304.314C288.0000000000001 304.312 260.7030000000001 277 260.7030000000001 243.297C260.7030000000001 238.531 261.2500000000001 233.859 262.2650000000001 229.407C211.5450000000001 231.937 166.6230000000001 256.217 136.5150000000001 293.157C131.2650000000001 284.125 128.2490000000001 273.657 128.2490000000001 262.467C128.2490000000001 241.28 139.0440000000001 222.624 155.4190000000001 211.687C145.4040000000001 212 135.999 214.719 127.7790000000001 219.327V218.562C127.7790000000001 189 148.7950000000001 164.312 176.732 158.718C171.576 157.313 166.202 156.563 160.638 156.563C156.698 156.563 152.888 157.001 149.184 157.657C156.918 133.437 179.481 115.782 206.168 115.313C185.31 98.938 158.966 89.188 130.403 89.188C125.465 89.188 120.606 89.5 115.841 90.063C142.841 72.751 174.935 62.625 209.3710000000001 62.625C321.591 62.625 382.966 155.625 382.966 236.25C382.966 238.906 382.904 241.53 382.8110000000001 244.156C394.7170000000001 252.703 405.0610000000001 263.453 413.2480000000001 275.719z" />
    <glyph glyph-name="logo-twitter-filled"
      unicode="&#xE020;"
      horiz-adv-x="512" d=" M256 448C114.625 448 0 333.375 0 192S114.625 -64 256 -64S512 50.625 512 192S397.375 448 256 448zM382.812 244.094C382.906 241.469 382.967 238.844 382.967 236.188C382.967 155.563 321.592 62.563 209.373 62.563C174.903 62.563 142.843 72.688 115.843 90.001C120.608 89.409 125.467 89.128 130.403 89.128C158.998 89.128 185.31 98.908 206.17 115.253C179.45 115.785 156.92 133.443 149.186 157.66C152.889 156.94 156.702 156.564 160.639 156.564C166.199 156.564 171.575 157.314 176.699 158.72C148.763 164.314 127.749 189 127.749 218.563V219.33C135.999 214.72 145.403 212.002 155.419 211.69C139.044 222.627 128.249 241.314 128.249 262.4700000000001C128.249 273.658 131.263 284.126 136.513 293.126C166.623 256.2200000000001 211.543 231.906 262.293 229.376C261.247 233.829 260.7 238.501 260.7 243.266C260.7 276.956 288.03 304.283 321.748 304.283C339.248 304.283 355.122 296.8930000000001 366.248 285.033C380.185 287.7530000000001 393.248 292.8300000000001 405.028 299.8450000000001C400.4340000000001 285.5950000000001 390.808 273.625 378.1840000000001 266.0790000000001C390.528 267.5490000000001 402.3090000000001 270.8440000000001 413.2460000000001 275.689C405.0600000000001 263.4550000000001 394.716 252.705 382.8100000000001 244.0960000000001z" />
    <glyph glyph-name="logo-twitter"
      unicode="&#xE021;"
      horiz-adv-x="512" d=" M413.25 275.7200000000001C402.312 270.875 390.53 267.578 378.188 266.11C390.813 273.6570000000001 400.438 285.626 405.034 299.876C393.254 292.86 380.188 287.814 366.254 285.064C355.1280000000001 296.924 339.254 304.314 321.754 304.314C288 304.312 260.704 277 260.704 243.297C260.704 238.531 261.25 233.859 262.264 229.407C211.544 231.937 166.622 256.217 136.514 293.157C131.264 284.125 128.249 273.657 128.249 262.467C128.249 241.28 139.044 222.624 155.4190000000001 211.687C145.4040000000001 212 135.999 214.719 127.7790000000001 219.327V218.562C127.7790000000001 189 148.7950000000001 164.312 176.732 158.718C171.576 157.313 166.202 156.563 160.638 156.563C156.698 156.563 152.888 157.001 149.184 157.658C156.918 133.438 179.481 115.783 206.168 115.313C185.31 98.938 158.966 89.188 130.403 89.188C125.465 89.188 120.606 89.5 115.841 90.063C142.841 72.751 174.935 62.625 209.3710000000001 62.625C321.591 62.625 382.966 155.625 382.966 236.25C382.966 238.906 382.904 241.53 382.8110000000001 244.156C394.7170000000001 252.703 405.0610000000001 263.453 413.2480000000001 275.719z" />
    <glyph glyph-name="magnifier-circled"
      unicode="&#xE022;"
      horiz-adv-x="512" d=" M256 448C114.625 448 0 333.375 0 192S114.625 -64 256 -64S512 50.625 512 192S397.375 448 256 448zM256 -46.938C124.25 -46.938 17.062 60.25 17.062 192S124.25 430.938 256 430.938S494.938 323.75 494.938 192S387.75 -46.938 256 -46.938z M358.406 209.062C358.406 275 304.9360000000001 328.515 238.936 328.515C172.953 328.515 119.453 274.999 119.453 209.062S172.923 89.594 238.906 89.594C258.626 89.594 277.1860000000001 94.469 293.562 102.938L347.062 49.438L395.312 97.75L342.7820000000001 150.25C352.6880000000001 167.625 358.4060000000001 187.656 358.4060000000001 209.062zM238.938 132.25C196.578 132.25 162.141 166.72 162.141 209.062C162.141 251.4220000000001 196.581 285.8590000000001 238.941 285.8590000000001C281.284 285.8590000000001 315.751 251.419 315.751 209.059C315.751 166.7170000000001 281.281 132.249 238.941 132.249z" />
    <glyph glyph-name="magnifier-filled"
      unicode="&#xE023;"
      horiz-adv-x="512" d=" M238.938 285.86C281.376 285.86 315.75 251.468 315.75 209.062C315.75 166.624 281.375 132.25 238.938 132.25C196.532 132.25 162.141 166.625 162.141 209.062C162.141 251.469 196.531 285.8590000000001 238.941 285.8590000000001z M256 448C114.625 448 0 333.375 0 192S114.625 -64 256 -64S512 50.625 512 192S397.375 448 256 448zM347.062 49.438L293.592 102.938C277.217 94.438 258.654 89.563 238.936 89.563C172.952 89.563 119.483 143.125 119.483 209.063C119.483 274.969 172.953 328.516 238.936 328.516C304.936 328.516 358.406 275 358.406 209.063C358.406 187.657 352.6859999999999 167.625 342.8109999999999 150.251L395.3109999999999 97.751L347.0639999999999 49.441z" />
    <glyph glyph-name="magnifier"
      unicode="&#xE024;"
      horiz-adv-x="512" d=" M358.406 209.062C358.406 275 304.9360000000001 328.515 238.936 328.515C172.953 328.515 119.453 274.999 119.453 209.062S172.923 89.594 238.906 89.594C258.626 89.594 277.1860000000001 94.469 293.562 102.938L347.062 49.438L395.312 97.75L342.7820000000001 150.25C352.6880000000001 167.625 358.4060000000001 187.656 358.4060000000001 209.062zM238.938 132.25C196.578 132.25 162.141 166.72 162.141 209.062C162.141 251.4220000000001 196.581 285.8590000000001 238.941 285.8590000000001C281.284 285.8590000000001 315.751 251.419 315.751 209.059C315.751 166.7170000000001 281.281 132.249 238.941 132.249z" />
    <glyph glyph-name="medal-circled"
      unicode="&#xE025;"
      horiz-adv-x="512" d=" M256 448C114.625 448 0 333.375 0 192S114.625 -64 256 -64S512 50.625 512 192S397.375 448 256 448zM256 -46.938C124.25 -46.938 17.062 60.25 17.062 192S124.25 430.938 256 430.938S494.938 323.75 494.938 192S387.75 -46.938 256 -46.938z M360.188 244.03L374.25 272.28L344.312 282.344L346.5 313.7970000000001L315 311.6570000000001L305 341.531L276.75 327.5180000000001L256 351.2970000000001L235.266 327.517L207 341.53L196.953 311.656L165.469 313.796L167.639 282.344L137.732 272.281L151.779 244.031L128 223.3L151.78 202.565L137.734 174.315L167.641 164.253L165.471 132.753L196.9550000000001 134.943L197.3150000000001 133.879L164.3610000000001 43.316L195.751 53.942L213 25.593L243.547 109.561L256 95.312L268.453 109.562L299 25.594L316.25 53.938L347.625 43.312L314.688 133.875L315 134.938L346.5 132.75L344.312 164.25L374.25 174.312L360.188 202.562L384 223.297" />
    <glyph glyph-name="medal-filled"
      unicode="&#xE026;"
      horiz-adv-x="512" d=" M256 448C114.625 448 0 333.375 0 192C0 50.594 114.625 -64 256 -64S512 50.594 512 192C512 333.375 397.375 448 256 448zM374.25 174.312L344.312 164.25L346.5 132.75L315 134.938L314.688 133.876L347.626 43.314L316.25 53.874L299 25.564L268.453 109.564L256 95.31L243.547 109.56L213 25.56L195.75 53.872L164.36 43.31L197.312 133.872L196.952 134.934L165.469 132.7460000000001L167.609 164.216L137.733 174.309L151.78 202.559L128 223.3L151.78 244L137.734 272.28L167.64 282.2970000000001L165.468 313.7970000000001L196.921 311.687L206.971 341.563L235.2360000000001 327.547L256 351.2970000000001L276.75 327.517L305 341.53L314.9700000000001 311.656L346.4700000000001 313.766L344.3130000000001 282.2960000000001L374.2510000000001 272.2800000000001L360.2200000000001 244L384 223.297L360.188 202.562L374.25 174.312z" />
    <glyph glyph-name="medal"
      unicode="&#xE027;"
      horiz-adv-x="512" d=" M360.188 244.03L374.25 272.28L344.312 282.344L346.5 313.7970000000001L315 311.6570000000001L305 341.531L276.75 327.5180000000001L256 351.2970000000001L235.266 327.517L207 341.53L196.953 311.656L165.469 313.796L167.639 282.344L137.732 272.281L151.779 244.031L128 223.3L151.78 202.565L137.734 174.315L167.641 164.253L165.471 132.753L196.9550000000001 134.943L197.3150000000001 133.879L164.3610000000001 43.316L195.751 53.942L213 25.593L243.547 109.561L256 95.312L268.453 109.562L299 25.594L316.25 53.938L347.625 43.312L314.688 133.875L315 134.938L346.5 132.75L344.312 164.25L374.25 174.312L360.188 202.562L384 223.297" />
    <glyph glyph-name="minus-circled"
      unicode="&#xE028;"
      horiz-adv-x="512" d=" M256 448C114.625 448 0 333.375 0 192S114.625 -64 256 -64S512 50.625 512 192S397.375 448 256 448zM256 -46.938C124.25 -46.938 17.094 60.25 17.094 192S124.25 430.938 256 430.938S494.938 323.75 494.938 192S387.75 -46.938 256 -46.938z M128 234.688H384V149.313H128z" />
    <glyph glyph-name="minus-filled"
      unicode="&#xE029;"
      horiz-adv-x="512" d=" M256 448C114.625 448 0 333.375 0 192C0 50.594 114.625 -64 256 -64S512 50.594 512 192C512 333.375 397.375 448 256 448zM384 149.312H128V234.656H384V149.312z" />
    <glyph glyph-name="minus"
      unicode="&#xE02A;"
      horiz-adv-x="512" d=" M128 234.688H384V149.313H128z" />
    <glyph glyph-name="official-circled"
      unicode="&#xE02B;"
      horiz-adv-x="512" d=" M256 448C114.625 448 0 333.375 0 192S114.625 -64 256 -64S512 50.625 512 192S397.375 448 256 448zM256 -46.938C124.25 -46.938 17.062 60.25 17.062 192S124.25 430.938 256 430.938S494.938 323.75 494.938 192S387.75 -46.938 256 -46.938z M392.938 219.078L411.718 256.7340000000001L371.813 270.14L374.719 312.093L332.749 309.218L319.3090000000001 349.093L281.685 330.4050000000001L254.045 362.0780000000001L226.403 330.406L188.7 349.094L175.326 309.219L133.342 312.092L136.217 270.139L96.359 256.702L115.079 219.046L83.329 191.4209999999999L115.046 163.781L96.312 126.124L136.187 112.686L133.311 70.716L175.327 73.591L188.733 33.747L226.405 52.435L254.045 20.747L281.685 52.435L319.373 33.747L332.748 73.591L374.748 70.747L371.843 112.685L411.748 126.123L392.938 163.779L424.688 191.419L392.9359999999999 219.077zM273.75 148.812L254.72 129.812L233.563 108.624H233.533L211.61 130.562L193.313 148.812L158.173 184L198.438 224.22L233.563 189.063L317.875 273.408L358.125 233.188L273.75 148.812z" />
    <glyph glyph-name="official-filled"
      unicode="&#xE02C;"
      horiz-adv-x="512" d=" M233.562 189.062L198.438 224.219L158.172 184L193.312 148.812L211.609 130.5320000000001L233.529 108.6250000000001H233.559L254.717 129.7500000000001L273.809 148.8120000000001H273.747L358.059 233.2190000000001L317.872 273.4040000000001 M256 448C114.625 448 0 333.375 0 192C0 50.594 114.625 -64 256 -64S512 50.594 512 192C512 333.375 397.375 448 256 448zM411.7200000000001 126.062L371.8130000000001 112.687L374.7190000000001 70.687L332.749 73.531L319.3090000000001 33.689L281.654 52.439L254.014 20.751L226.374 52.438L188.701 33.688L175.295 73.533L133.342 70.721L136.217 112.691L96.357 126.0650000000001L115.077 163.7530000000001L83.327 191.393L115.046 219L96.36 256.703L136.218 270.1090000000001L133.343 312.091L175.327 309.216L188.733 349.06L226.405 330.373L254.045 362.045L281.688 330.373L319.376 349.0610000000001L332.751 309.218L374.751 312.093L371.847 270.1090000000001L411.753 256.702L392.943 219.047L424.693 191.422L392.943 163.75L411.723 126.062z" />
    <glyph glyph-name="official"
      unicode="&#xE02D;"
      horiz-adv-x="512" d=" M392.938 219.078L411.718 256.7340000000001L371.813 270.14L374.719 312.093L332.749 309.218L319.3090000000001 349.093L281.685 330.4050000000001L254.043 362.0780000000001L226.403 330.406L188.7 349.094L175.326 309.219L133.342 312.092L136.217 270.139L96.36 256.702L115.08 219.046L83.33 191.4209999999999L115.048 163.781L96.314 126.124L136.189 112.686L133.312 70.716L175.328 73.59L188.733 33.7480000000001L226.405 52.436L254.045 20.748L281.685 52.436L319.373 33.7480000000001L332.748 73.592L374.748 70.749L371.844 112.686L411.7489999999999 126.124L392.9389999999999 163.779L424.6889999999999 191.421L392.9389999999999 219.079zM273.75 148.812L254.72 129.812L233.563 108.624H233.533L211.61 130.562L193.313 148.812L158.173 184L198.438 224.22L233.563 189.063L317.875 273.409L358.125 233.189L273.75 148.809z" />
    <glyph glyph-name="pencil-circled"
      unicode="&#xE02E;"
      horiz-adv-x="512" d=" M256 430.9340000000001C387.75 430.9340000000001 494.934 323.75 494.934 192S387.75 -46.934 256 -46.934S17.067 60.25 17.067 192S124.25 430.9340000000001 256 430.9340000000001M256 448C114.617 448 0 333.3880000000001 0 192C0 50.617 114.617 -64 256 -64C397.384 -64 512 50.617 512 192C512 333.3880000000001 397.384 448 256 448z M373.142 272.94L336.942 309.14C330.3090000000001 315.783 319.442 315.783 312.8090000000001 309.145L288.915 285.258L169.45 165.792L131.358 67.367L229.792 105.441L229.782 105.451L349.25 224.926L373.142 248.806C379.775 255.442 379.775 266.301 373.142 272.942z" />
    <glyph glyph-name="pencil-filled"
      unicode="&#xE02F;"
      horiz-adv-x="512" d=" M256 448C114.625 448 0 333.375 0 192S114.625 -64 256 -64S512 50.625 512 192S397.375 448 256 448zM131.36 67.375L169.437 165.75L229.7970000000001 105.406L131.359 67.376zM246.844 122.531L186.532 182.845L271.876 268.189L332.219 207.877L246.842 122.533zM373.156 248.8L349.25 224.925L288.875 285.2850000000001L312.813 309.159C319.438 315.8150000000001 330.313 315.8150000000001 336.938 309.159L373.158 272.956C379.781 266.3 379.781 255.426 373.156 248.8z" />
    <glyph glyph-name="pencil"
      unicode="&#xE030;"
      horiz-adv-x="512" d=" M373.143 272.94L336.943 309.14C330.309 315.783 319.443 315.783 312.809 309.145L288.915 285.258L169.45 165.792L131.358 67.367L229.792 105.441L229.782 105.451L349.25 224.926L373.1430000000001 248.806C379.7750000000001 255.442 379.7750000000001 266.301 373.1430000000001 272.942z" />
    <glyph glyph-name="person-circled"
      unicode="&#xE031;"
      horiz-adv-x="512" d=" M256 448C114.625 448 0 333.375 0 192S114.625 -64 256 -64S512 50.625 512 192S397.375 448 256 448zM256 -46.938C124.25 -46.938 17.062 60.25 17.062 192S124.25 430.938 256 430.938S494.938 323.75 494.938 192S387.75 -46.938 256 -46.938z M211.578 213.703C212.608 211.578 213.766 209.563 215 207.656C215.14 207.422 215.297 207.234 215.422 207C217.984 203.078 221 199.484 224.312 196.422C224.515 196.25 224.702 196.094 224.89 195.938C226.296 194.658 227.843 193.408 229.374 192.313C229.7340000000001 192.063 230.0770000000001 191.813 230.4360000000001 191.579C233.9830000000001 189.185 237.7640000000001 187.232 241.7640000000001 185.889C242.2640000000001 185.733 242.7800000000001 185.592 243.2640000000001 185.436C244.7940000000001 184.953 246.3740000000001 184.578 247.9360000000001 184.2810000000001C248.5140000000001 184.186 249.0920000000001 184.061 249.7020000000001 183.9690000000001C251.7820000000001 183.6870000000001 253.8590000000001 183.4520000000001 256 183.4520000000001C258.14 183.4520000000001 260.2200000000001 183.686 262.2970000000001 183.9680000000001C262.9070000000001 184.0600000000001 263.485 184.1540000000001 264.0630000000001 184.2780000000001C265.6580000000001 184.5750000000001 267.2050000000001 184.9500000000001 268.7050000000001 185.4030000000001C269.2520000000001 185.5590000000001 269.7670000000001 185.7000000000001 270.235 185.8870000000001C272.252 186.5570000000001 274.188 187.3240000000001 276.063 188.2770000000001C276.063 188.2770000000001 276.093 188.2770000000001 276.125 188.307C278 189.247 279.813 190.37 281.531 191.542C281.939 191.8080000000001 282.2510000000001 192.058 282.658 192.308C284.188 193.434 285.688 194.621 287.1280000000001 195.903C287.3150000000001 196.059 287.5020000000001 196.247 287.7210000000001 196.419C291.0640000000001 199.479 294.0010000000001 203.075 296.6260000000001 206.997C296.7510000000001 207.23 296.8760000000001 207.449 297.0320000000001 207.652C298.2520000000001 209.59 299.4400000000001 211.652 300.5020000000001 213.762C304.7520000000001 222.495 307.1920000000001 232.5120000000001 307.1920000000001 243.1990000000001V285.855C307.1920000000001 318.7150000000001 284.1620000000001 337.0580000000001 256.0020000000001 337.0580000000001S204.8 318.7150000000001 204.8 285.856V243.2C204.8 232.513 207.3 222.467 211.52 213.763L211.58 213.703z M318.25 211.875C307.562 185.125 283.7200000000001 166.405 256 166.405S204.453 185.095 193.766 211.845C173 209 154.72 204.125 145.188 196C123.454 165.875 128.126 113.062 128.126 113.062S181.438 53.312 256 53.312C256.03 53.312 256.094 53.342 256.125 53.342S256.187 53.312 256.25 53.312C330.812 53.312 384.125 113.062 384.125 113.062S388.813 165.874 367.125 196C357.5 204.156 339.125 209.03 318.25 211.875z" />
    <glyph glyph-name="person-filled"
      unicode="&#xE032;"
      horiz-adv-x="512" d=" M256 448C114.625 448 0 333.375 0 192S114.625 -64 256 -64S512 50.625 512 192S397.375 448 256 448zM204.797 285.86C204.797 318.718 227.844 337.062 256 337.062S307.188 318.718 307.188 285.8590000000001V243.2C307.188 232.544 304.75 222.497 300.5 213.794C299.438 211.654 298.25 209.591 297 207.654C296.875 207.419 296.75 207.2 296.562 206.997C294 203.074 291.062 199.512 287.718 196.417C287.498 196.247 287.312 196.09 287.124 195.902C285.6860000000001 194.622 284.1860000000001 193.432 282.654 192.308C282.249 192.058 281.936 191.808 281.561 191.543C279.811 190.371 278.001 189.276 276.125 188.31H276.063C274.189 187.357 272.219 186.59 270.236 185.888C269.766 185.701 269.252 185.561 268.706 185.405C267.206 184.952 265.658 184.577 264.064 184.28C263.456 184.186 262.877 184.06 262.298 183.968C260.2200000000001 183.688 258.1430000000001 183.452 256.001 183.452C253.861 183.452 251.781 183.6859999999999 249.704 183.968C249.094 184.03 248.516 184.156 247.938 184.28C246.376 184.577 244.798 184.952 243.298 185.405C242.781 185.561 242.266 185.702 241.766 185.889C237.766 187.235 233.986 189.189 230.438 191.5459999999999C230.078 191.812 229.735 192.0619999999999 229.376 192.3119999999999C227.846 193.4059999999999 226.298 194.624 224.86 195.9369999999999C224.67 196.0929999999999 224.515 196.249 224.312 196.4209999999999C221 199.4849999999999 217.984 203.0789999999999 215.392 207.001C215.266 207.235 215.142 207.423 214.969 207.657C213.765 209.563 212.609 211.579 211.579 213.704C211.579 213.734 211.546 213.734 211.546 213.766C207.296 222.469 204.796 232.516 204.796 243.204V285.86zM384.125 113.06S330.813 53.31 256.25 53.31H256C181.438 53.31 128.125 113.06 128.125 113.06S123.453 165.872 145.188 195.998C154.75 204.092 173.032 208.998 193.766 211.842C204.453 185.092 228.281 166.404 256 166.404S307.562 185.124 318.25 211.874C339.125 209.029 357.5 204.154 367.062 195.998C388.812 165.873 384.125 113.06 384.125 113.06z" />
    <glyph glyph-name="person"
      unicode="&#xE033;"
      horiz-adv-x="512" d=" M211.578 213.703C212.608 211.578 213.766 209.563 215 207.656C215.14 207.422 215.297 207.234 215.422 207C217.984 203.078 221 199.484 224.312 196.422C224.515 196.25 224.702 196.094 224.89 195.938C226.296 194.658 227.843 193.408 229.374 192.313C229.7340000000001 192.063 230.0770000000001 191.813 230.4360000000001 191.579C233.9830000000001 189.185 237.7640000000001 187.232 241.7640000000001 185.889C242.2640000000001 185.733 242.7800000000001 185.592 243.2640000000001 185.436C244.7940000000001 184.954 246.3740000000001 184.579 247.9360000000001 184.2820000000001C248.5140000000001 184.186 249.0920000000001 184.062 249.7020000000001 183.97C251.7820000000001 183.6880000000001 253.8590000000001 183.453 256 183.453C258.14 183.453 260.2200000000001 183.687 262.2970000000001 183.9690000000001C262.9070000000001 184.0620000000001 263.485 184.1560000000001 264.0630000000001 184.2790000000001C265.6590000000001 184.5770000000001 267.206 184.9520000000001 268.706 185.405C269.2530000000001 185.561 269.7680000000001 185.7020000000001 270.236 185.889C272.253 186.562 274.188 187.329 276.063 188.281C276.063 188.281 276.093 188.281 276.125 188.311C278 189.251 279.813 190.374 281.531 191.545C281.939 191.811 282.2510000000001 192.061 282.658 192.311C284.188 193.436 285.688 194.623 287.1280000000001 195.905C287.3150000000001 196.061 287.5020000000001 196.249 287.7210000000001 196.4209999999999C291.0640000000001 199.481 294.0010000000001 203.0759999999999 296.6260000000001 206.9979999999999C296.7510000000001 207.2299999999999 296.8760000000001 207.4479999999999 297.0320000000001 207.6519999999999C298.2520000000001 209.5899999999999 299.4400000000001 211.6519999999999 300.5020000000001 213.762C304.7520000000001 222.495 307.1920000000001 232.512 307.1920000000001 243.199V285.856C307.1920000000001 318.716 284.1620000000001 337.059 256.0020000000001 337.059S204.8 318.717 204.8 285.858V243.202C204.8 232.514 207.3 222.468 211.52 213.764L211.58 213.704z M318.25 211.875C307.562 185.125 283.7200000000001 166.405 256 166.405S204.453 185.095 193.766 211.845C173 209 154.72 204.125 145.188 196C123.454 165.875 128.126 113.062 128.126 113.062S181.438 53.312 256 53.312C256.03 53.312 256.094 53.342 256.125 53.342S256.187 53.312 256.25 53.312C330.812 53.312 384.125 113.062 384.125 113.062S388.813 165.874 367.125 196C357.5 204.156 339.125 209.03 318.25 211.875z" />
    <glyph glyph-name="pie-circled"
      unicode="&#xE034;"
      horiz-adv-x="512" d=" M256 448C114.625 448 0 333.375 0 192S114.625 -64 256 -64S512 50.625 512 192S397.375 448 256 448zM256 -46.938C124.25 -46.938 17.094 60.25 17.094 192S124.25 430.938 256 430.938S494.938 323.75 494.938 192S387.75 -46.938 256 -46.938z M162.53 310.266C126.594 281.796 105.25 237.953 105.25 192C105.25 108.875 172.89 41.25 256 41.25C335.188 41.25 401.75 104.344 406.5 182.844H251.266L162.53 310.266z M374.312 285.5C345.812 321.438 301.937 342.75 256 342.75C228.125 342.75 201.094 335.14 177.47 320.7340000000001L258.266 204.734L374.312 285.5zM285.125 201.156H406.5C405 225.766 397.562 249.562 384.75 270.531L285.125 201.158z" />
    <glyph glyph-name="pie-filled"
      unicode="&#xE035;"
      horiz-adv-x="512" d=" M256 448C114.625 448 0 333.375 0 192C0 50.594 114.625 -64 256 -64S512 50.594 512 192C512 333.375 397.375 448 256 448zM256 342.75C301.938 342.75 345.812 321.438 374.312 285.4700000000001L258.296 204.703L177.499 320.703C201.092 335.173 228.123 342.75 255.999 342.75zM256 41.22C172.86 41.22 105.25 108.8130000000001 105.25 192C105.25 237.9220000000001 126.594 281.7970000000001 162.53 310.2340000000001L251.266 182.8440000000001H406.5320000000001C401.75 104.312 335.188 41.22 256 41.22zM285.125 201.125L384.75 270.5C397.53 249.53 405 225.734 406.5 201.125H285.125z" />
    <glyph glyph-name="pie"
      unicode="&#xE036;"
      horiz-adv-x="512" d=" M162.53 310.266C126.594 281.796 105.25 237.953 105.25 192C105.25 108.875 172.89 41.25 256 41.25C335.188 41.25 401.75 104.344 406.5 182.844H251.266L162.53 310.266z M374.312 285.5C345.812 321.438 301.937 342.75 256 342.75C228.125 342.75 201.094 335.14 177.47 320.7340000000001L258.266 204.734L374.312 285.5zM285.125 201.156H406.5C405 225.766 397.562 249.562 384.75 270.531L285.125 201.158z" />
    <glyph glyph-name="plus-circled"
      unicode="&#xE037;"
      horiz-adv-x="512" d=" M256 448C114.625 448 0 333.375 0 192S114.625 -64 256 -64S512 50.625 512 192S397.375 448 256 448zM256 -46.938C124.25 -46.938 17.062 60.25 17.062 192S124.25 430.938 256 430.938S494.938 323.75 494.938 192S387.75 -46.938 256 -46.938z M298.656 320H213.344V234.656H128V149.312H213.344V64H298.656V149.312H384V234.656H298.656" />
    <glyph glyph-name="plus-filled"
      unicode="&#xE038;"
      horiz-adv-x="512" d=" M256 448C114.625 448 0 333.375 0 192C0 50.594 114.625 -64 256 -64S512 50.594 512 192C512 333.375 397.375 448 256 448zM384 149.312H298.656V64H213.344V149.312H128V234.656H213.344V320H298.688V234.656H384V149.312z" />
    <glyph glyph-name="plus"
      unicode="&#xE039;"
      horiz-adv-x="512" d=" M298.656 320H213.344V234.656H128V149.312H213.344V64H298.656V149.312H384V234.656H298.656" />
    <glyph glyph-name="reply-circled"
      unicode="&#xE03A;"
      horiz-adv-x="512" d=" M256 430.9C288.3 430.9 319.6 424.6 349 412.1C377.4 400.1 403 382.8 425 360.9C446.9 339 464.2 313.4 476.2 284.9C488.7 255.5 495 224.2 495 191.9S488.7 128.3 476.2 98.9C464.2 70.4 446.9 44.9 425 22.9C403.1 1 377.5 -16.3000000000001 349 -28.3000000000001C319.6 -40.8000000000001 288.3 -47.1 256 -47.1S192.4 -40.8000000000001 163 -28.3000000000001C134.5 -16.3000000000001 109 0.9999999999999 87 22.9C65.1 45 47.9 70.6 35.8 99C23.3 128.4 17 159.7 17 192S23.3 255.6 35.8 285C47.8 313.5 65.1 339 87 361C108.9 382.9 134.5 400.2 163 412.2C192.4 424.6 223.7 430.9 256 430.9M256 448C114.6 448 0 333.4 0 192S114.6 -64 256 -64S512 50.6 512 192S397.4 448 256 448z M393.4 72.5L376.6 88.7C351.5 112.4 324.8 132.4 295.2 145C277.6 152.5 259.7 157.1 241.1 155.9C234.2 155.5 227.3 153.4 220.4 152.1C218.4 151.7 217.8 150.3 217.9 147.7C218 127 218 106.2 218 85.5V80.6C213.5 84.8 209.2 88.3 205.4 92.3C183.3 115.4 161.3 138.8 139.2 161.9C124.5 177.3 109.7 192.5 95 207.7V210C135 248.6 175 287.3 215.1 325.9C215.9 326.7 216.8 327.4 218.1 328.5V264.2C222.4 263.9 226.5 263.6 230.5 263.2C269.5 259 303.1 238.6 332.1 205C357.2 175.9 376.6 141.3 388.7 100.2C390.9 92.7 392.1 84.8 393.8 77C393.4000000000001 75.6 393.4000000000001 74.1 393.4000000000001 72.5z" />
    <glyph glyph-name="reply-filled"
      unicode="&#xE03B;"
      horiz-adv-x="512" d=" M256 448C114.6 448 0 333.4 0 192S114.6 -64 256 -64S512 50.6 512 192S397.4 448 256 448zM393.4 72.5L376.6 88.7C351.5 112.4 324.8 132.4 295.2 145C277.6 152.5 259.7 157.1 241.1 155.9C234.2 155.5 227.3 153.4 220.4 152.1C218.4 151.7 217.8 150.3 217.9 147.7C218 127 218 106.2 218 85.5V80.6C213.5 84.8 209.2 88.3 205.4 92.3C183.3 115.4 161.3 138.8 139.2 161.9C124.5 177.3 109.7 192.5 95 207.7V210C135 248.6 175 287.3 215.1 325.9C215.9 326.7 216.8 327.4 218.1 328.5V264.2C222.4 263.9 226.5 263.6 230.5 263.2C269.5 259 303.1 238.6 332.1 205C357.2 175.9 376.6 141.3 388.7 100.2C390.9 92.7 392.1 84.8 393.8 77C393.4000000000001 75.6 393.4000000000001 74.1 393.4000000000001 72.5z" />
    <glyph glyph-name="reply"
      unicode="&#xE03C;"
      horiz-adv-x="512" d=" M393.4 72.5L376.6 88.7C351.5 112.4 324.8 132.4 295.2 145C277.6 152.5 259.7 157.1 241.1 155.9C234.2 155.5 227.3 153.4 220.4 152.1C218.4 151.7 217.8 150.3 217.9 147.7C218 127 218 106.2 218 85.5V80.6C213.5 84.8 209.2 88.3 205.4 92.3C183.3 115.4 161.3 138.8 139.2 161.9C124.5 177.3 109.7 192.5 95 207.7V210C135 248.6 175 287.3 215.1 325.9C215.9 326.7 216.8 327.4 218.1 328.5V264.2C222.4 263.9 226.5 263.6 230.5 263.2C269.5 259 303.1 238.6 332.1 205C357.2 175.9 376.6 141.3 388.7 100.2C390.9 92.7 392.1 84.8 393.8 77C393.4000000000001 75.6 393.4000000000001 74.1 393.4000000000001 72.5z" />
    <glyph glyph-name="save-circled"
      unicode="&#xE03D;"
      horiz-adv-x="512" d=" M256 430.9C288.3 430.9 319.6 424.6 349 412.1C377.4 400.1 403 382.8 425 360.9C446.9 339 464.2 313.4 476.2 284.9C488.7 255.5 495 224.2 495 191.9S488.7 128.3 476.2 98.9C464.2 70.4 446.9 44.9 425 22.9C403.1 1 377.5 -16.3000000000001 349 -28.3000000000001C319.6 -40.8000000000001 288.3 -47.1 256 -47.1S192.4 -40.8000000000001 163 -28.3000000000001C134.5 -16.3000000000001 109 0.9999999999999 87 22.9C65.1 45 47.9 70.6 35.8 99C23.3 128.4 17 159.7 17 192S23.3 255.6 35.8 285C47.8 313.5 65.1 339 87 361C108.9 382.9 134.5 400.2 163 412.2C192.4 424.6 223.7 430.9 256 430.9M256 448C114.6 448 0 333.4 0 192S114.6 -64 256 -64S512 50.6 512 192S397.4 448 256 448z M129 192V302.5C129 311.2 133.1 317.3 140.5 319.3C142.3 319.8 144.3 319.9000000000001 146.3 319.9000000000001C196.9 319.9000000000001 247.5 320.0000000000001 298.2 319.9000000000001C309.9 319.9000000000001 320 315.5000000000001 328.3 307.3C342.9000000000001 292.8 357.5 278.2 372 263.6C380.6 255 384.9 244.7000000000001 384.9 232.5V112.7C384.9 102.7 384.5 92.7 385 82.7C385.6 71.1 377.7 63.8 366.4 64C332 64.4 297.6 64.1 263.2 64.1H146.3C137.7 64.1 131.5 68.4 129.6 75.8000000000001C129.1 77.9000000000001 129 80.2000000000001 129 82.4000000000001V192zM363.4 85.5C363.5 86.4 363.5 87 363.5 87.7V233.8C363.5 239 361.5 243.8 357.9 247.5C342.8 262.8 327.6 277.9 312.4 293.1C309 296.5 304.6 297.9000000000001 299.8 298.8C299.7 297.8 299.6 297 299.6 296.3V235.9000000000001C299.6 232.8 299.8 229.6 299.4 226.6C298.5 220.3 292.7000000000001 213.3 282.4 213.4C251.4 213.6 220.4 213.7000000000001 189.4 213.4C178.7 213.3 171.4 221.1 171.6 231.2000000000001C172 252.6 171.7 274.0000000000001 171.7 295.3000000000001V298.6000000000001H150.5V85.6000000000001H171.7V153.3C171.7 164.3 178 170.6 189.1 170.6H325C326.8 170.6 328.7 170.5 330.5 170.1C337.7 168.3 342.3 162.1 342.3 154.1V85.5H363.4000000000001zM320.8 149.3H193.1V85.6H320.8V149.3zM278.3 266.4V291.2C278.3 297.1 276.6 298.8 270.6 298.8H242.3C237.5 298.8 235.5 296.9000000000001 235.5 292.1V241.4000000000001C235.5 236.6 237.5 234.7000000000001 242.3 234.7000000000001H271.1C276.3 234.7000000000001 278.2 236.5000000000001 278.2 241.7000000000001C278.3 249.9000000000001 278.3 258.2000000000001 278.3 266.4000000000001z" />
    <glyph glyph-name="save-filled"
      unicode="&#xE03E;"
      horiz-adv-x="512" d=" M256 448C114.6 448 0 333.4 0 192S114.6 -64 256 -64S512 50.6 512 192S397.4 448 256 448zM129 192V302.5C129 311.2 133.1 317.3 140.5 319.3C142.3 319.8 144.3 319.9000000000001 146.3 319.9000000000001C196.9 319.9000000000001 247.5 320.0000000000001 298.2 319.9000000000001C309.9 319.9000000000001 320 315.5000000000001 328.3 307.3C342.9000000000001 292.8 357.5 278.2 372 263.6C380.6 255 384.9 244.7000000000001 384.9 232.5V112.7C384.9 102.7 384.5 92.7 385 82.7C385.6 71.1 377.7 63.8 366.4 64C332 64.4 297.6 64.1 263.2 64.1H146.3C137.7 64.1 131.5 68.4 129.6 75.8000000000001C129.1 77.9000000000001 129 80.2000000000001 129 82.4000000000001V192zM363.4 85.5C363.5 86.4 363.5 87 363.5 87.7V233.8C363.5 239 361.5 243.8 357.9 247.5C342.8 262.8 327.6 277.9 312.4 293.1C309 296.5 304.6 297.9000000000001 299.8 298.8C299.7 297.8 299.6 297 299.6 296.3V235.9000000000001C299.6 232.8 299.8 229.6 299.4 226.6C298.5 220.3 292.7000000000001 213.3 282.4 213.4C251.4 213.6 220.4 213.7000000000001 189.4 213.4C178.7 213.3 171.4 221.1 171.6 231.2000000000001C172 252.6 171.7 274.0000000000001 171.7 295.3000000000001V298.6000000000001H150.5V85.6000000000001H171.7V153.3C171.7 164.3 178 170.6 189.1 170.6H325C326.8 170.6 328.7 170.5 330.5 170.1C337.7 168.3 342.3 162.1 342.3 154.1V85.5H363.4000000000001zM320.8 149.3H193.1V85.6H320.8V149.3zM278.3 266.4V291.2C278.3 297.1 276.6 298.8 270.6 298.8H242.3C237.5 298.8 235.5 296.9000000000001 235.5 292.1V241.4000000000001C235.5 236.6 237.5 234.7000000000001 242.3 234.7000000000001H271.1C276.3 234.7000000000001 278.2 236.5000000000001 278.2 241.7000000000001C278.3 249.9000000000001 278.3 258.2000000000001 278.3 266.4000000000001z" />
    <glyph glyph-name="save"
      unicode="&#xE03F;"
      horiz-adv-x="512" d=" M129 192V302.5C129 311.2 133.1 317.3 140.5 319.3C142.3 319.8 144.3 319.9000000000001 146.3 319.9000000000001C196.9 319.9000000000001 247.5 320.0000000000001 298.2 319.9000000000001C309.9 319.9000000000001 320 315.5000000000001 328.3 307.3C342.9000000000001 292.8 357.5 278.2 372 263.6C380.6 255 384.9 244.7000000000001 384.9 232.5V112.7C384.9 102.7 384.5 92.7 385 82.7C385.6 71.1 377.7 63.8 366.4 64C332 64.4 297.6 64.1 263.2 64.1H146.3C137.7 64.1 131.5 68.4 129.6 75.8000000000001C129.1 77.9000000000001 129 80.2000000000001 129 82.4000000000001V192zM363.4 85.5C363.5 86.4 363.5 87 363.5 87.7V233.8C363.5 239 361.5 243.8 357.9 247.5C342.8 262.8 327.6 277.9 312.4 293.1C309 296.5 304.6 297.9000000000001 299.8 298.8C299.7 297.8 299.6 297 299.6 296.3V235.9000000000001C299.6 232.8 299.8 229.6 299.4 226.6C298.5 220.3 292.7000000000001 213.3 282.4 213.4C251.4 213.6 220.4 213.7000000000001 189.4 213.4C178.7 213.3 171.4 221.1 171.6 231.2000000000001C172 252.6 171.7 274.0000000000001 171.7 295.3000000000001V298.6000000000001H150.5V85.6000000000001H171.7V153.3C171.7 164.3 178 170.6 189.1 170.6H325C326.8 170.6 328.7 170.5 330.5 170.1C337.7 168.3 342.3 162.1 342.3 154.1V85.5H363.4000000000001zM320.8 149.3H193.1V85.6H320.8V149.3zM278.3 266.4V291.2C278.3 297.1 276.6 298.8 270.6 298.8H242.3C237.5 298.8 235.5 296.9000000000001 235.5 292.1V241.4000000000001C235.5 236.6 237.5 234.7000000000001 242.3 234.7000000000001H271.1C276.3 234.7000000000001 278.2 236.5000000000001 278.2 241.7000000000001C278.3 249.9000000000001 278.3 258.2000000000001 278.3 266.4000000000001z" />
    <glyph glyph-name="star-circled"
      unicode="&#xE040;"
      horiz-adv-x="512" d=" M256 448C114.625 448 0 333.375 0 192S114.625 -64 256 -64S512 50.625 512 192S397.375 448 256 448zM256 -46.938C124.25 -46.938 17.094 60.25 17.094 192S124.25 430.938 256 430.938S494.938 323.75 494.938 192S387.75 -46.938 256 -46.938z M305.875 255.453L256 348.28L206.11 255.453L102.406 236.673L175.266 160.563L161.094 56.125L256 101.938L350.938 56.125L336.75 160.562L409.625 236.6720000000001" />
    <glyph glyph-name="star-filled"
      unicode="&#xE041;"
      horiz-adv-x="512" d=" M256 448C114.625 448 0 333.375 0 192C0 50.594 114.625 -64 256 -64S512 50.594 512 192C512 333.375 397.375 448 256 448zM350.938 56.125L256 101.875L161.094 56.125L175.266 160.563L102.406 236.673L206.11 255.423L256 348.28L305.875 255.453L409.625 236.703L336.75 160.563L350.938 56.125z" />
    <glyph glyph-name="star"
      unicode="&#xE042;"
      horiz-adv-x="512" d=" M305.875 255.453L256 348.28L206.11 255.453L102.406 236.673L175.266 160.563L161.094 56.125L256 101.938L350.938 56.125L336.75 160.562L409.625 236.6720000000001" />
    <glyph glyph-name="text-balloon-circled"
      unicode="&#xE043;"
      horiz-adv-x="512" d=" M256 448C114.625 448 0 333.375 0 192S114.625 -64 256 -64S512 50.625 512 192S397.375 448 256 448zM256 -46.938C124.25 -46.938 17.062 60.25 17.062 192S124.25 430.938 256 430.938S494.938 323.75 494.938 192S387.75 -46.938 256 -46.938z M405.312 192C405.312 257.984 338.467 311.453 256 311.453S106.656 257.983 106.656 192C106.656 126 173.531 72.562 256 72.562C278.5 72.562 299.75 76.624 318.906 83.782C342 73.437 368.876 65.1250000000001 395.75 65.1250000000001C380.875 80.0310000000001 370.5 95.1870000000001 363.312 109.0630000000001C389.2820000000001 130.5310000000001 405.312 159.7500000000001 405.312 192.0000000000001z" />
    <glyph glyph-name="text-balloon-filled"
      unicode="&#xE044;"
      horiz-adv-x="512" d=" M256 448C114.625 448 0 333.375 0 192S114.625 -64 256 -64S512 50.625 512 192S397.375 448 256 448zM395.75 65.062C368.875 65.062 342 73.374 318.906 83.75C299.75 76.625 278.5 72.5 256 72.5C173.53 72.5 106.656 126 106.656 192C106.656 257.984 173.5 311.453 256 311.453S405.312 257.983 405.312 192C405.312 159.75 389.2820000000001 130.5 363.312 109C370.5 95.125 380.875 80 395.75 65.062z" />
    <glyph glyph-name="text-balloon"
      unicode="&#xE045;"
      horiz-adv-x="512" d=" M405.312 192C405.312 257.984 338.466 311.453 256 311.453S106.656 257.983 106.656 192C106.656 126 173.531 72.562 256 72.562C278.5 72.562 299.75 76.624 318.906 83.782C342 73.437 368.876 65.1250000000001 395.75 65.1250000000001C380.875 80.0310000000001 370.5 95.1870000000001 363.312 109.0630000000001C389.2820000000001 130.5310000000001 405.312 159.7500000000001 405.312 192.0000000000001z" />
    <glyph glyph-name="three-bars-circled"
      unicode="&#xE046;"
      horiz-adv-x="512" d=" M256 448C114.6 448 0 333.4 0 192S114.6 -64 256 -64S512 50.6 512 192S397.4 448 256 448zM256 -46.9C124.2 -46.9 17.1 60.3000000000001 17.1 192S124.2 430.9 256 430.9S494.9 323.7000000000001 494.9 192S387.8 -46.9 256 -46.9z M128 226.1H384V157.8H128z M128 226.2H384V157.9H128zM128 136.2000000000001H384V67.9H128zM128 316.1H384V247.9000000000001H128z" />
    <glyph glyph-name="three-bars-filled"
      unicode="&#xE047;"
      horiz-adv-x="512" d=" M256 448C114.625 448 0 333.375 0 192C0 50.594 114.625 -64 256 -64S512 50.594 512 192C512 333.375 397.375 448 256 448zM384 72.5H128V140.75H384V72.5zM384 157.875H128V226.11H384V157.875zM384 243.203H128V311.453H384V243.203z" />
    <glyph glyph-name="three-bars"
      unicode="&#xE048;"
      horiz-adv-x="512" d=" M128 226.1H384V157.8H128zM128 136.1999999999999H384V67.9H128zM128 316.0999999999999H384V247.9H128z" />
    <glyph glyph-name="thumbs-down-circled"
      unicode="&#xE049;"
      horiz-adv-x="512" d=" M256 448C114.625 448 0 333.375 0 192S114.625 -64 256 -64S512 50.625 512 192S397.375 448 256 448zM256 -46.938C124.25 -46.938 17.094 60.25 17.094 192S124.25 430.938 256 430.938S494.938 323.75 494.938 192S387.75 -46.938 256 -46.938z M301.062 306.53H181.562C167.484 306.53 155.968 295 155.968 280.9220000000001C155.968 274.266 158.624 268.25 162.78 263.688C149.5 262.782 138.905 251.782 138.905 238.266C138.905 231.61 141.53 225.594 145.733 221.032C132.453 220.126 121.858 209.094 121.858 195.579C121.858 186.719 126.468 178.844 133.374 174.249C126.436 169.624 121.858 161.811 121.858 152.874C121.858 138.844 133.374 127.249 147.452 127.249H249.86V68.189C249.86 54.126 260.92 42.626 274.5 42.626C288.03 42.626 299.188 54.126 299.188 68.188V85.311C299.25 99.373 308.688 117.561 320.188 125.623L344.126 142.435C344.938 143.06 345.626 143.685 346.314 144.341H382.439V290.1710000000001H324.873C321.123 299.717 311.873 306.531 301.06 306.531z" />
    <glyph glyph-name="thumbs-down-filled"
      unicode="&#xE04A;"
      horiz-adv-x="512" d=" M256 448C114.625 448 0 333.375 0 192C0 50.594 114.625 -64 256 -64S512 50.594 512 192C512 333.375 397.375 448 256 448zM382.438 144.375H346.313C345.625 143.75 344.938 143.063 344.125 142.469L320.188 125.686C308.688 117.592 299.25 99.436 299.188 85.374V68.249C299.126 54.187 288 42.624 274.468 42.624C260.922 42.624 249.828 54.186 249.828 68.249V127.311H147.422C133.344 127.311 121.828 138.811 121.828 152.936C121.828 161.811 126.438 169.656 133.344 174.248C126.406 178.871 121.828 186.715 121.828 195.605C121.828 209.121 132.453 220.152 145.734 221.027C141.531 225.587 138.906 231.573 138.906 238.229C138.906 251.745 149.531 262.776 162.812 263.682C158.624 268.2440000000001 155.968 274.26 155.968 280.885C155.968 294.962 167.484 306.525 181.562 306.525H301.062C311.874 306.525 321.124 299.681 324.874 290.135H382.4360000000001V144.37H382.4380000000001z" />
    <glyph glyph-name="thumbs-down"
      unicode="&#xE04B;"
      horiz-adv-x="512" d=" M291.062 306.53H171.562C157.484 306.53 145.968 295 145.968 280.9220000000001C145.968 274.266 148.624 268.25 152.78 263.688C139.5 262.782 128.905 251.782 128.905 238.266C128.905 231.61 131.53 225.594 135.733 221.032C122.453 220.126 111.858 209.094 111.858 195.579C111.858 186.719 116.468 178.844 123.3740000000001 174.249C116.436 169.624 111.858 161.811 111.858 152.874C111.858 138.844 123.3740000000001 127.249 137.452 127.249H239.86V68.189C239.86 54.126 250.92 42.626 264.5 42.626C278.03 42.626 289.188 54.126 289.188 68.188V85.311C289.25 99.373 298.688 117.561 310.188 125.623L334.126 142.435C334.938 143.06 335.626 143.685 336.314 144.341H372.439V290.1710000000001H314.873C311.123 299.717 301.873 306.531 291.06 306.531z" />
    <glyph glyph-name="thumbs-up-circled"
      unicode="&#xE04C;"
      horiz-adv-x="512" d=" M256 448C114.625 448 0 333.375 0 192S114.625 -64 256 -64S512 50.625 512 192S397.375 448 256 448zM256 -46.938C124.25 -46.938 17.062 60.25 17.062 192S124.25 430.938 256 430.938S494.938 323.75 494.938 192S387.75 -46.938 256 -46.938z M390.125 231.078C390.125 245.156 378.625 256.6720000000001 364.563 256.6720000000001H262.14V315.75C262.14 329.828 251.08 341.344 237.5 341.344C223.938 341.344 212.828 329.828 212.828 315.75L212.798 298.625C212.766 284.5470000000001 203.328 266.405 191.781 258.2970000000001L167.908 241.5C167.048 240.89 166.408 240.25 165.658 239.578H129.596V93.812H187.174C190.908 84.25 200.158 77.437 210.971 77.437H330.439C344.5010000000001 77.437 356.0010000000001 88.937 356.0010000000001 103.062C356.0010000000001 109.687 353.3760000000001 115.717 349.189 120.2820000000001C362.5010000000001 121.1560000000001 373.064 132.2190000000001 373.064 145.7500000000001C373.064 152.3440000000001 370.439 158.4060000000001 366.252 162.9380000000001C379.5660000000001 163.8440000000001 390.129 174.876 390.129 188.391C390.129 197.251 385.5350000000001 205.127 378.629 209.737C385.565 214.347 390.129 222.174 390.129 231.08z" />
    <glyph glyph-name="thumbs-up-filled"
      unicode="&#xE04D;"
      horiz-adv-x="512" d=" M256 448C114.625 448 0 333.375 0 192C0 50.594 114.625 -64 256 -64S512 50.594 512 192C512 333.375 397.375 448 256 448zM390.125 188.39C390.125 174.908 379.563 163.875 366.25 162.97C370.438 158.407 373.062 152.375 373.062 145.75C373.062 132.22 362.5 121.188 349.187 120.28C353.375 115.72 355.999 109.687 355.999 103.062C355.999 88.9999999999999 344.499 77.437 330.435 77.437H210.97C200.157 77.437 190.907 84.249 187.172 93.812H129.594V239.578H165.656C166.376 240.218 167.046 240.89 167.906 241.5L191.812 258.266C203.328 266.376 212.796 284.516 212.828 298.594L212.858 315.719C212.89 329.795 224 341.311 237.531 341.311C251.081 341.311 262.174 329.827 262.174 315.717V256.637H364.564C378.627 256.637 390.127 245.122 390.127 231.044C390.127 222.138 385.565 214.294 378.657 209.7C385.5639999999999 205.123 390.127 197.28 390.127 188.3900000000001z" />
    <glyph glyph-name="thumbs-up"
      unicode="&#xE04E;"
      horiz-adv-x="512" d=" M380.125 231.078C380.125 245.156 368.625 256.6720000000001 354.563 256.6720000000001H252.14V315.75C252.14 329.828 241.08 341.344 227.5 341.344C213.938 341.344 202.828 329.828 202.828 315.75L202.798 298.625C202.766 284.5470000000001 193.328 266.405 181.781 258.2970000000001L157.908 241.5C157.048 240.89 156.408 240.25 155.658 239.578H119.596V93.812H177.174C180.908 84.25 190.158 77.437 200.971 77.437H320.438C334.5 77.437 346 88.937 346 103.062C346 109.687 343.373 115.715 339.186 120.2820000000001C352.498 121.1560000000001 363.061 132.2190000000001 363.061 145.7500000000001C363.061 152.3440000000001 360.437 158.4060000000001 356.251 162.9380000000001C369.561 163.8440000000001 380.125 174.876 380.125 188.391C380.125 197.251 375.531 205.127 368.625 209.737C375.562 214.347 380.125 222.174 380.125 231.08z" />
    <glyph glyph-name="triangle-left-circled"
      unicode="&#xE04F;"
      horiz-adv-x="512" d=" M256 448C114.625 448 0 333.375 0 192S114.625 -64 256 -64S512 50.625 512 192S397.375 448 256 448zM256 -46.938C124.25 -46.938 17.062 60.25 17.062 192S124.25 430.938 256 430.938C387.7200000000001 430.938 494.938 323.75 494.938 192S387.718 -46.938 256 -46.938z M114.906 192L225.766 128L336.6260000000001 64V320L225.766 256" />
    <glyph glyph-name="triangle-left-filled"
      unicode="&#xE050;"
      horiz-adv-x="512" d=" M256 448C114.625 448 0 333.375 0 192C0 50.594 114.625 -64 256 -64S512 50.594 512 192C512 333.375 397.375 448 256 448zM336.625 192V64L225.765 128L114.905 192L225.765 256L336.625 320V192z" />
    <glyph glyph-name="triangle-left"
      unicode="&#xE051;"
      horiz-adv-x="512" d=" M114.906 192L225.766 128L336.6260000000001 64V320L225.766 256" />
    <glyph glyph-name="triangle-right-circled"
      unicode="&#xE052;"
      horiz-adv-x="512" d=" M256 448C114.625 448 0 333.375 0 192S114.625 -64 256 -64S512 50.625 512 192S397.375 448 256 448zM256 -46.938C124.25 -46.938 17.062 60.25 17.062 192S124.25 430.938 256 430.938S494.938 323.75 494.938 192S387.75 -46.938 256 -46.938z M175.39 320V64L286.25 128L397.062 192L286.25 256" />
    <glyph glyph-name="triangle-right-filled"
      unicode="&#xE053;"
      horiz-adv-x="512" d=" M256 448C114.625 448 0 333.375 0 192C0 50.594 114.625 -64 256 -64S512 50.594 512 192C512 333.375 397.375 448 256 448zM286.25 128L175.39 64V320L286.25 256L397.062 192L286.25 128z" />
    <glyph glyph-name="triangle-right"
      unicode="&#xE054;"
      horiz-adv-x="512" d=" M175.39 320V64L286.25 128L397.062 192L286.25 256" />
    <glyph glyph-name="x-circled"
      unicode="&#xE055;"
      horiz-adv-x="512" d=" M256 448C114.625 448 0 333.375 0 192S114.625 -64 256 -64S512 50.625 512 192S397.375 448 256 448zM256 -46.938C124.25 -46.938 17.062 60.25 17.062 192S124.25 430.938 256 430.938S494.938 323.75 494.938 192S387.75 -46.938 256 -46.938z M323.954 320.2970000000001L255.984 252.359L188.016 320.295L127.703 259.982L195.626 192.014L127.703 124.044L188.016 63.701L255.9840000000001 131.6709999999999L323.9540000000001 63.7009999999999L384.2970000000001 124.0449999999999L316.3590000000001 192.0149999999999L384.2950000000001 259.9819999999999" />
    <glyph glyph-name="x-filled"
      unicode="&#xE056;"
      horiz-adv-x="512" d=" M256 448C114.625 448 0 333.375 0 192S114.625 -64 256 -64S512 50.625 512 192S397.375 448 256 448zM384.312 124.03L323.967 63.687L256 131.657L188.03 63.687L127.72 124.031L195.64 192L127.72 259.9700000000001L188.03 320.28L256 252.345L323.9700000000001 320.315L384.31 260L316.372 192L384.31 124.03z" />
    <glyph glyph-name="x"
      unicode="&#xE057;"
      horiz-adv-x="512" d=" M323.954 320.2970000000001L255.984 252.359L188.016 320.295L127.703 259.982L195.626 192.014L127.703 124.044L188.016 63.701L255.9840000000001 131.6709999999999L323.9540000000001 63.7009999999999L384.2970000000001 124.0449999999999L316.3590000000001 192.0149999999999L384.2950000000001 259.9819999999999" />
  </font>
</defs>
</svg>
