<?xml version="1.0" standalone="no"?> 
<!DOCTYPE svg PUBLIC "-//W3C//DTD SVG 1.1//EN" "http://www.w3.org/Graphics/SVG/1.1/DTD/svg11.dtd" >
<svg xmlns="http://www.w3.org/2000/svg">
<defs>
  <font id="iCheckMovies" horiz-adv-x="16">
    <font-face font-family="iCheckMovies"
      units-per-em="512" ascent="576"
      descent="64" />
    <missing-glyph horiz-adv-x="0" />
    <glyph glyph-name="check-circled"
      unicode="&#xE001;"
      horiz-adv-x="512" d=" M256 512C114.624 512 0 397.376 0 256C0 114.62400000000002 114.624 0 256 0C397.376 0 512 114.62400000000002 512 256C512 397.376 397.376 512 256 512zM256 17.055999999999983C124.256 17.055999999999983 17.05600000000001 124.25599999999997 17.05600000000001 256S124.256 494.944 256 494.944S494.944 387.744 494.944 256S387.744 17.055999999999983 256 17.055999999999983z M351.776 378.432L225.312 251.93599999999998L172.608 304.64L112.224 244.32L164.96 191.55200000000002L164.928 191.55200000000002L192.96 163.51999999999998L225.28 131.23200000000003L225.28 131.264L225.312 131.23200000000003L258.08 164.03199999999998L285.632 191.55200000000002L285.6 191.55200000000002L412.128 318.11199999999997z" />
    <glyph glyph-name="check-filled"
      unicode="&#xE002;"
      horiz-adv-x="512" d=" M256 512C114.624 512 0 397.376 0 256C0 114.62400000000002 114.624 0 256 0C397.376 0 512 114.62400000000002 512 256C512 397.376 397.376 512 256 512zM285.632 191.51999999999998L255.04 160.95999999999998L225.31199999999998 131.2H225.31199999999998H225.31199999999998L195.456 161.08799999999997L164.992 191.55199999999996H164.992L112.224 244.32L172.608 304.64L225.28 251.93599999999998L351.776 378.464L412.128 318.144L285.632 191.51999999999998L285.632 191.51999999999998z" />
    <glyph glyph-name="check"
      unicode="&#xE003;"
      horiz-adv-x="512" d=" M358.432 387.2L231.936 260.672L179.264 313.408L118.848 253.08800000000002L171.584 200.288L171.552 200.288L199.008 172.832L231.904 139.96800000000002L231.936 139.96800000000002L231.936 139.96800000000002L264 172.03199999999998L292.256 200.288L292.256 200.288L418.752 326.88z" />
    <glyph glyph-name="dots-circled"
      unicode="&#xE004;"
      horiz-adv-x="512" d=" M256 512C114.624 512 0 397.376 0 256C0 114.62400000000002 114.624 0 256 0C397.376 0 512 114.62400000000002 512 256C512 397.376 397.376 512 256 512zM256 17.055999999999983C124.256 17.055999999999983 17.05600000000001 124.25599999999997 17.05600000000001 256S124.256 494.944 256 494.944S494.944 387.744 494.944 256S387.744 17.055999999999983 256 17.055999999999983z M213.312 256C213.312 232.42406859922306 232.4240685992231 213.312 256 213.312C279.57593140077694 213.312 298.688 232.42406859922306 298.688 256C298.688 279.5759314007769 279.57593140077694 298.688 256 298.688C232.4240685992231 298.688 213.312 279.5759314007769 213.312 256z M110.91199999999999 256C110.91199999999999 232.42406859922306 130.02406859922309 213.312 153.6 213.312C177.1759314007769 213.312 196.288 232.42406859922306 196.288 256C196.288 279.5759314007769 177.1759314007769 298.688 153.6 298.688C130.02406859922309 298.688 110.91199999999999 279.5759314007769 110.91199999999999 256z M315.712 256C315.712 232.42406859922306 334.82406859922304 213.312 358.4 213.312C381.9759314007769 213.312 401.08799999999997 232.42406859922306 401.08799999999997 256C401.08799999999997 279.5759314007769 381.9759314007769 298.688 358.4 298.688C334.82406859922304 298.688 315.712 279.5759314007769 315.712 256z" />
    <glyph glyph-name="dots-filled"
      unicode="&#xE005;"
      horiz-adv-x="512" d=" M256 512C114.624 512 0 397.376 0 256S114.624 0 256 0C397.376 0 512 114.62400000000002 512 256S397.376 512 256 512zM153.6 213.312C130.016 213.312 110.944 232.44799999999998 110.944 256S130.016 298.656 153.6 298.656S196.256 279.552 196.256 256S177.152 213.312 153.6 213.312zM256 213.312C232.448 213.312 213.344 232.44799999999998 213.344 256S232.448 298.656 256 298.656S298.688 279.552 298.688 256S279.552 213.312 256 213.312zM358.4 213.312C334.84799999999996 213.312 315.74399999999997 232.44800000000004 315.74399999999997 256S334.84799999999996 298.656 358.4 298.656S401.056 279.552 401.056 256S381.984 213.312 358.4 213.312z" />
    <glyph glyph-name="dots"
      unicode="&#xE006;"
      horiz-adv-x="512" d=" M213.344 256C213.344 232.44174171121767 232.44174171121767 213.344 256 213.344C279.5582582887823 213.344 298.656 232.44174171121767 298.656 256C298.656 279.5582582887823 279.5582582887823 298.656 256 298.656C232.44174171121767 298.656 213.344 279.5582582887823 213.344 256z M110.94399999999999 256C110.94399999999999 232.44174171121767 130.04174171121767 213.344 153.6 213.344C177.15825828878232 213.344 196.256 232.44174171121767 196.256 256C196.256 279.5582582887823 177.15825828878232 298.656 153.6 298.656C130.04174171121767 298.656 110.94399999999999 279.5582582887823 110.94399999999999 256z M315.74399999999997 256C315.74399999999997 232.44174171121767 334.84174171121765 213.344 358.4 213.344C381.9582582887823 213.344 401.056 232.44174171121767 401.056 256C401.056 279.5582582887823 381.9582582887823 298.656 358.4 298.656C334.84174171121765 298.656 315.74399999999997 279.5582582887823 315.74399999999997 256z" />
    <glyph glyph-name="exit-site-circled"
      unicode="&#xE007;"
      horiz-adv-x="512" d=" M253.856 345.632L280.832 318.624L236.32 274.08000000000004L272.544 237.88799999999998L317.056 282.432L344.064 255.42399999999998L360.576 317.024L377.088 378.656L315.456 362.144z M256 512C114.624 512 0 397.376 0 256C0 114.62400000000002 114.624 0 256 0S512 114.62400000000002 512 256C512 397.376 397.376 512 256 512zM256 17.055999999999983C124.256 17.055999999999983 17.05600000000001 124.25599999999997 17.05600000000001 256S124.256 494.944 256 494.944S494.944 387.744 494.944 256S387.744 17.055999999999983 256 17.055999999999983z M332.768 187.74400000000003L179.2 187.74400000000003L179.2 324.256L213.344 324.256L213.344 358.4L179.2 358.4L145.056 358.4L145.056 324.256L145.056 187.74400000000003L145.056 153.60000000000002L179.2 153.60000000000002L332.768 153.60000000000002L366.944 153.60000000000002L366.944 187.74400000000003L366.944 221.88799999999998L332.768 221.88799999999998z" />
    <glyph glyph-name="exit-site-filled"
      unicode="&#xE008;"
      horiz-adv-x="512" d=" M256 512C114.624 512 0 397.376 0 256C0 114.59199999999998 114.624 0 256 0S512 114.59199999999998 512 256C512 397.376 397.376 512 256 512zM366.944 187.68V153.56799999999998H332.8H179.2H145.056V187.68V324.256V358.368H179.2H213.344V324.256H179.2V187.68H332.79999999999995V221.856H366.94399999999996V187.68zM360.576 317.024L344.064 255.392L317.056 282.4L272.544 237.88799999999998L236.32 274.08000000000004L280.864 318.624L253.856 345.632L315.488 362.144L377.12 378.656L360.576 317.024z" />
    <glyph glyph-name="exit-site"
      unicode="&#xE009;"
      horiz-adv-x="512" d=" M253.088 345.664L280.096 318.624L235.552 274.11199999999997L271.776 237.92000000000002L316.32 282.432L343.328 255.42399999999998L359.808 317.024L376.352 378.656L314.72 362.144z M332.032 187.74400000000003L178.432 187.74400000000003L178.432 324.288L212.608 324.288L212.608 358.4L178.432 358.4L144.32 358.4L144.32 324.288L144.32 187.74400000000003L144.32 153.632L178.432 153.632L332.032 153.632L366.176 153.632L366.176 187.74400000000003L366.176 221.88799999999998L332.032 221.88799999999998z" />
    <glyph glyph-name="eye-circled"
      unicode="&#xE00A;"
      horiz-adv-x="512" d=" M256 512C114.624 512 0 397.376 0 256C0 114.62400000000002 114.624 0 256 0C397.376 0 512 114.62400000000002 512 256C512 397.376 397.376 512 256 512zM256 17.055999999999983C124.256 17.055999999999983 17.05600000000001 124.25599999999997 17.05600000000001 256S124.256 494.944 256 494.944S494.944 387.744 494.944 256S387.744 17.055999999999983 256 17.055999999999983z M256 375.456C160.608 375.456 106.656 256 106.656 256S160.608 136.54399999999998 256 136.54399999999998C351.36 136.54399999999998 405.312 256 405.312 256S351.36 375.456 256 375.456zM256 213.312C232.448 213.312 213.344 232.44799999999998 213.344 256S232.448 298.656 256 298.656S298.688 279.552 298.688 256S279.552 213.312 256 213.312z" />
    <glyph glyph-name="eye-filled"
      unicode="&#xE00B;"
      horiz-adv-x="512" d=" M256 512C114.624 512 0 397.376 0 256S114.624 0 256 0C397.376 0 512 114.62400000000002 512 256S397.376 512 256 512zM256 136.512C160.608 136.512 106.656 256 106.656 256S160.608 375.456 256 375.456C351.36 375.456 405.312 256 405.312 256S351.36 136.512 256 136.512z M213.344 256C213.344 232.44174171121767 232.44174171121767 213.344 256 213.344C279.5582582887823 213.344 298.656 232.44174171121767 298.656 256C298.656 279.5582582887823 279.5582582887823 298.656 256 298.656C232.44174171121767 298.656 213.344 279.5582582887823 213.344 256z" />
    <glyph glyph-name="eye"
      unicode="&#xE00C;"
      horiz-adv-x="512" d=" M253.248 375.456C157.856 375.456 103.936 256 103.936 256S157.888 136.57600000000002 253.24800000000002 136.57600000000002S402.56 256 402.56 256S348.64 375.456 253.248 375.456zM253.248 213.344C229.728 213.344 210.592 232.44799999999998 210.592 256S229.728 298.688 253.24800000000002 298.688C276.8 298.688 295.936 279.552 295.936 256S276.8 213.344 253.248 213.344z" />
    <glyph glyph-name="five-bars-circled"
      unicode="&#xE00D;"
      horiz-adv-x="512" d=" M256 512C114.624 512 0 397.376 0 256C0 114.62400000000002 114.624 0 256 0S512 114.62400000000002 512 256C512 397.376 397.376 512 256 512zM256 17.055999999999983C124.256 17.055999999999983 17.05600000000001 124.25599999999997 17.05600000000001 256S124.256 494.944 256 494.944S494.944 387.744 494.944 256S387.744 17.055999999999983 256 17.055999999999983z M238.944 384H273.056V128H238.944z M187.744 384H221.856V128H187.744z M136.544 384H170.656V128H136.544z M290.112 384H324.25600000000003V128H290.112z M341.344 384H375.456V128H341.344z" />
    <glyph glyph-name="five-bars-filled"
      unicode="&#xE00E;"
      horiz-adv-x="512" d=" M256 512C114.624 512 0 397.376 0 256S114.624 0 256 0S512 114.62400000000002 512 256S397.376 512 256 512zM170.656 128H136.544V384H170.656V128zM221.888 128H187.744V384H221.856V128zM273.056 128H238.944V384H273.056V128zM324.288 128H290.112V384H324.25600000000003V128zM375.456 128H341.344V384H375.456V128z" />
    <glyph glyph-name="five-bars"
      unicode="&#xE00F;"
      horiz-adv-x="512" d=" M236.224 384H270.336V128H236.22400000000002z M185.024 384H219.136V128H185.024z M133.824 384H167.936V128H133.824z M287.392 384H321.536V128H287.392z M338.624 384H372.73600000000005V128H338.624z" />
    <glyph glyph-name="hart-circled"
      unicode="&#xE010;"
      horiz-adv-x="512" d=" M256 512C114.624 512 0 397.376 0 256C0 114.62400000000002 114.624 0 256 0C397.376 0 512 114.62400000000002 512 256C512 397.376 397.376 512 256 512zM256 17.055999999999983C124.256 17.055999999999983 17.05600000000001 124.25599999999997 17.05600000000001 256S124.256 494.944 256 494.944S494.944 387.744 494.944 256S387.744 17.055999999999983 256 17.055999999999983z M309.952 360.512C278.08 356.64 263.104 338.94399999999996 256 323.744C248.896 338.94399999999996 233.92000000000002 356.64 202.048 360.48C199.456 360.79999999999995 196.928 360.99199999999996 194.4 361.024C115.328 362.432 42.144000000000005 238.81600000000003 255.36 110.59199999999998C255.55200000000002 111.00799999999998 256.512 111.00799999999998 256.736 110.59199999999998C476.736 242.976 391.68 370.432 309.952 360.512z" />
    <glyph glyph-name="hart-filled"
      unicode="&#xE011;"
      horiz-adv-x="512" d=" M256 512C114.624 512 0 397.376 0 256C0 114.59199999999998 114.624 0 256 0C397.376 0 512 114.59199999999998 512 256C512 397.376 397.376 512 256 512zM256.704 110.56C256.48 111.00799999999998 255.52 111.00799999999998 255.328 110.56C42.112 238.81599999999997 115.296 362.464 194.368 361.024C196.896 360.99199999999996 199.456 360.8 202.016 360.48C233.888 356.64 248.896 338.94399999999996 256 323.744C263.104 338.94399999999996 278.08 356.608 309.952 360.48C391.68 370.4 476.736 242.94400000000002 256.704 110.56z" />
    <glyph glyph-name="hart"
      unicode="&#xE012;"
      horiz-adv-x="512" d=" M307.264 360.544C275.36 356.672 260.384 338.976 253.28 323.776C246.176 338.976 231.2 356.64 199.296 360.512C196.736 360.832 194.176 361.024 191.648 361.05600000000004C112.576 362.464 39.391999999999996 238.848 252.608 110.62400000000002C252.8 111.072 253.728 111.072 253.984 110.62400000000002C474.016 242.976 388.96 370.432 307.264 360.544z" />
    <glyph glyph-name="letter-circled"
      unicode="&#xE013;"
      horiz-adv-x="512" d=" M256 512C114.624 512 0 397.376 0 256C0 114.62400000000002 114.624 0 256 0S512 114.62400000000002 512 256C512 397.376 397.376 512 256 512zM256 17.055999999999983C124.256 17.055999999999983 17.087999999999994 124.25599999999997 17.087999999999994 256S124.256 494.944 256 494.944S494.944 387.744 494.944 256S387.744 17.055999999999983 256 17.055999999999983z M115.2 351.584L256 257.728L396.8 351.584L396.8 358.4L115.2 358.4z M256 237.216L249.856 241.312L115.2 331.072L115.2 153.60000000000002L396.8 153.60000000000002L396.8 331.072L262.144 241.312z" />
    <glyph glyph-name="letter-filled"
      unicode="&#xE014;"
      horiz-adv-x="512" d=" M256 512C114.624 512 0 397.376 0 256C0 114.59199999999998 114.624 0 256 0S512 114.59199999999998 512 256C512 397.376 397.376 512 256 512zM396.8 153.56799999999998H115.2V331.072L249.856 241.312L256 237.18400000000003L262.144 241.312L396.8 331.072V153.56799999999998zM396.8 351.552L256 257.728L115.2 351.552V358.368H396.8V351.552z" />
    <glyph glyph-name="letter"
      unicode="&#xE015;"
      horiz-adv-x="512" d=" M112.48 351.584L253.28 257.728L394.048 351.584L394.048 358.4L112.48 358.4z M253.28 237.216L247.136 241.344L112.48 331.10400000000004L112.48 153.632L394.048 153.632L394.048 331.10400000000004L259.424 241.344z" />
    <glyph glyph-name="lock-circled"
      unicode="&#xE016;"
      horiz-adv-x="512" d=" M256 512C114.624 512 0 397.376 0 256C0 114.62400000000002 114.624 0 256 0S512 114.62400000000002 512 256C512 397.376 397.376 512 256 512zM256 17.055999999999983C124.256 17.055999999999983 17.05600000000001 124.25599999999997 17.05600000000001 256S124.256 494.944 256 494.944S494.944 387.744 494.944 256S387.744 17.055999999999983 256 17.055999999999983z M341.344 295.52V320C341.344 367.168 303.168 405.344 256 405.344S170.688 367.168 170.688 320V295.52C150.88 288.416 136.544 269.632 136.544 247.45600000000002V179.2C136.544 151.072 159.584 128 187.776 128H324.32000000000005C352.4800000000001 128 375.52000000000004 151.072 375.52000000000004 179.2V247.45600000000002C375.456 269.632 361.12 288.416 341.344 295.52zM256 371.2C284.256 371.2 307.2 348.224 307.2 320V298.656H204.8V320C204.8 348.224 227.776 371.2 256 371.2z" />
    <glyph glyph-name="lock-filled"
      unicode="&#xE017;"
      horiz-adv-x="512" d=" M256 371.2C227.776 371.2 204.8 348.224 204.8 320V298.656H307.2V320C307.2 348.224 284.256 371.2 256 371.2z M256 512C114.624 512 0 397.376 0 256C0 114.59199999999998 114.624 0 256 0S512 114.59199999999998 512 256C512 397.376 397.376 512 256 512zM375.456 179.2C375.456 151.00799999999998 352.416 128 324.25600000000003 128H187.744C159.552 128 136.512 151.00799999999998 136.512 179.2V247.45600000000002C136.512 269.6 150.816 288.544 170.656 295.648V320C170.656 367.13599999999997 208.8 405.312 255.96800000000002 405.312S341.344 367.13599999999997 341.344 320V295.648C361.152 288.544 375.456 269.632 375.456 247.45600000000002V179.2z" />
    <glyph glyph-name="lock"
      unicode="&#xE018;"
      horiz-adv-x="512" d=" M341.344 295.68V320C341.344 367.168 303.168 405.344 256 405.344S170.688 367.168 170.688 320V295.68C150.84799999999998 288.576 136.54399999999998 269.664 136.54399999999998 247.45600000000002V179.20000000000005C136.54399999999998 151.04000000000002 159.58399999999997 127.96800000000007 187.77599999999998 127.96800000000007H324.32C352.48 127.96800000000007 375.52 151.04000000000008 375.52 179.20000000000005V247.45600000000002C375.456 269.664 361.152 288.608 341.344 295.68zM256 371.23199999999997C284.256 371.23199999999997 307.2 348.256 307.2 320V298.688H204.8V320C204.8 348.256 227.776 371.23199999999997 256 371.23199999999997z" />
    <glyph glyph-name="magnifier-circled"
      unicode="&#xE019;"
      horiz-adv-x="512" d=" M256 512C114.624 512 0 397.376 0 256C0 114.62400000000002 114.624 0 256 0S512 114.62400000000002 512 256C512 397.376 397.376 512 256 512zM256 17.055999999999983C124.256 17.055999999999983 17.05600000000001 124.25599999999997 17.05600000000001 256S124.256 494.944 256 494.944S494.944 387.744 494.944 256S387.744 17.055999999999983 256 17.055999999999983z M358.4 273.05600000000004C358.4 339.00800000000004 304.928 392.512 238.94399999999996 392.512S119.456 339.00800000000004 119.456 273.05600000000004C119.456 207.10400000000004 172.928 153.60000000000002 238.912 153.60000000000002C258.624 153.60000000000002 277.184 158.464 293.568 166.94400000000002L347.03999999999996 113.44L395.29599999999994 161.76L342.78399999999993 214.272C352.672 231.61599999999999 358.4 251.64800000000002 358.4 273.05600000000004zM238.944 196.25599999999997C196.576 196.25599999999997 162.144 230.71999999999997 162.144 273.056C162.144 315.424 196.57600000000002 349.856 238.94400000000002 349.856C281.28000000000003 349.856 315.744 315.424 315.744 273.056C315.744 230.72000000000003 281.28 196.25599999999997 238.944 196.25599999999997z" />
    <glyph glyph-name="magnifier-filled"
      unicode="&#xE01A;"
      horiz-adv-x="512" d=" M162.144 273.05600000000004C162.144 230.64053121299509 196.52853121299503 196.25600000000003 238.944 196.25600000000003C281.3594687870049 196.25600000000003 315.74399999999997 230.64053121299509 315.74399999999997 273.05600000000004C315.74399999999997 315.47146878700494 281.3594687870049 349.856 238.944 349.856C196.52853121299503 349.856 162.144 315.47146878700494 162.144 273.05600000000004z M256 512C114.624 512 0 397.376 0 256S114.624 0 256 0S512 114.62400000000002 512 256S397.376 512 256 512zM347.072 113.44L293.6 166.94400000000002C277.216 158.43200000000002 258.656 153.56800000000004 238.94400000000002 153.56800000000004C172.96000000000004 153.56800000000004 119.48800000000001 207.13600000000002 119.48800000000001 273.05600000000004S172.96 392.51200000000006 238.94400000000002 392.51200000000006S358.4 339.00800000000004 358.4 273.05600000000004C358.4 251.64800000000002 352.67199999999997 231.61599999999999 342.816 214.24L395.328 161.728L347.072 113.44z" />
    <glyph glyph-name="magnifier"
      unicode="&#xE01B;"
      horiz-adv-x="512" d=" M355.648 273.08799999999997C355.648 339.03999999999996 302.17600000000004 392.512 236.192 392.512S116.704 339.03999999999996 116.704 273.08799999999997C116.704 207.10399999999998 170.176 153.632 236.16 153.632C255.87199999999999 153.632 274.432 158.49599999999998 290.848 166.94400000000002L344.288 113.50400000000002L392.544 161.76L340.032 214.272C349.952 231.61599999999999 355.648 251.68 355.648 273.08799999999997zM236.192 196.288C193.856 196.288 159.424 230.72000000000003 159.424 273.088C159.424 315.42400000000004 193.856 349.856 236.192 349.856S312.992 315.42400000000004 312.992 273.088C312.992 230.72000000000003 278.528 196.288 236.192 196.288z" />
    <glyph glyph-name="medal-circled"
      unicode="&#xE01C;"
      horiz-adv-x="512" d=" M256 512C114.624 512 0 397.376 0 256C0 114.62400000000002 114.624 0 256 0C397.376 0 512 114.62400000000002 512 256C512 397.376 397.376 512 256 512zM256 17.055999999999983C124.256 17.055999999999983 17.05600000000001 124.25599999999997 17.05600000000001 256S124.256 494.944 256 494.944S494.944 387.744 494.944 256S387.744 17.055999999999983 256 17.055999999999983z M360.192 308.03200000000004L374.24 336.288L344.32 346.336L346.496 377.79200000000003L315.008 375.648L304.992 405.536L276.736 391.52L256 415.296L235.264 391.52L207.008 405.536L196.96 375.648L165.472 377.79200000000003L167.648 346.336L137.728 336.288L151.776 308.03200000000004L128 287.296L151.776 266.56L137.728 238.30399999999997L167.648 228.25599999999997L165.472 196.76799999999997L196.96 198.94400000000002L197.312 197.88799999999998L164.352 107.32799999999997L195.744 117.92000000000002L212.992 89.60000000000002L243.552 173.56799999999998L256 159.32799999999997L268.448 173.56799999999998L299.008 89.60000000000002L316.256 117.92000000000002L347.616 107.32799999999997L314.688 197.88799999999998L315.008 198.94400000000002L346.496 196.76799999999997L344.32 228.25599999999997L374.24 238.30399999999997L360.192 266.56L384 287.296z" />
    <glyph glyph-name="medal-filled"
      unicode="&#xE01D;"
      horiz-adv-x="512" d=" M256 512C114.624 512 0 397.376 0 256C0 114.59199999999998 114.624 0 256 0C397.376 0 512 114.59199999999998 512 256C512 397.376 397.376 512 256 512zM374.24 238.30399999999997L344.32 228.25599999999997L346.496 196.76799999999997L315.008 198.94400000000002L314.688 197.856L347.616 107.29599999999999L316.256 117.88799999999998L299.008 89.56799999999998L268.448 173.56799999999998L256 159.296L243.552 173.56799999999998L212.992 89.56799999999998L195.744 117.88799999999998L164.352 107.29599999999999L197.312 197.856L196.96 198.94400000000002L165.472 196.736L167.616 228.224L137.728 238.30399999999997L151.776 266.56L128 287.296L151.776 308L137.728 336.288L167.64800000000002 346.304L165.472 377.79200000000003L196.928 375.68L206.976 405.568L235.232 391.552L256 415.296L276.736 391.52L304.99199999999996 405.536L314.97599999999994 375.648L346.46399999999994 377.76L344.32 346.304L374.272 336.288L360.224 308L384 287.296L360.192 266.56L374.24 238.30399999999997z" />
    <glyph glyph-name="medal"
      unicode="&#xE01E;"
      horiz-adv-x="512" d=" M357.504 308.03200000000004L371.552 336.288L341.632 346.336L343.808 377.824L312.32 375.648L302.272 405.568L274.016 391.52L253.28 415.328L232.576 391.52L204.32 405.568L194.24 375.648L162.784 377.824L164.928 346.336L135.04 336.288L149.056 308.03200000000004L125.28 287.328L149.056 266.592L135.04 238.336L164.928 228.288L162.784 196.8L194.24 198.94400000000002L194.592 197.88799999999998L161.632 107.32799999999997L193.024 117.952L210.272 89.632L240.832 173.56799999999998L253.28 159.32799999999997L265.728 173.56799999999998L296.288 89.632L313.536 117.952L344.928 107.32799999999997L311.968 197.88799999999998L312.32 198.94400000000002L343.808 196.8L341.632 228.288L371.552 238.336L357.504 266.592L381.312 287.328z" />
    <glyph glyph-name="minus-circled"
      unicode="&#xE01F;"
      horiz-adv-x="512" d=" M256 512C114.624 512 0 397.376 0 256C0 114.62400000000002 114.624 0 256 0S512 114.62400000000002 512 256C512 397.376 397.376 512 256 512zM256 17.055999999999983C124.256 17.055999999999983 17.087999999999994 124.25599999999997 17.087999999999994 256S124.256 494.944 256 494.944S494.944 387.744 494.944 256S387.744 17.055999999999983 256 17.055999999999983z M128 298.688H384V213.312H128z" />
    <glyph glyph-name="minus-filled"
      unicode="&#xE020;"
      horiz-adv-x="512" d=" M256 512C114.624 512 0 397.376 0 256C0 114.59199999999998 114.624 0 256 0S512 114.59199999999998 512 256C512 397.376 397.376 512 256 512zM384 213.312H128V298.656H384V213.312z" />
    <glyph glyph-name="minus"
      unicode="&#xE021;"
      horiz-adv-x="512" d=" M128 298.656H384V213.344H128z" />
    <glyph glyph-name="official-circled"
      unicode="&#xE022;"
      horiz-adv-x="512" d=" M256 512C114.624 512 0 397.376 0 256C0 114.62400000000002 114.624 0 256 0S512 114.62400000000002 512 256C512 397.376 397.376 512 256 512zM256 17.055999999999983C124.256 17.055999999999983 17.05600000000001 124.25599999999997 17.05600000000001 256S124.256 494.944 256 494.944S494.944 387.744 494.944 256S387.744 17.055999999999983 256 17.055999999999983z M392.96 283.072L411.712 320.736L371.808 334.144L374.71999999999997 376.096L332.736 373.216L319.328 413.08799999999997L281.696 394.4L254.04800000000003 426.08000000000004L226.40000000000003 394.4L188.704 413.08799999999997L175.328 373.216L133.344 376.096L136.224 334.144L96.352 320.704L115.072 283.04L83.328 255.42399999999998L115.04 227.77599999999995L96.32000000000001 190.11199999999997L136.192 176.67199999999997L133.312 134.71999999999997L175.328 137.60000000000002L188.736 97.75999999999999L226.39999999999998 116.44799999999998L254.04799999999997 84.76799999999997L281.69599999999997 116.44799999999998L319.35999999999996 97.75999999999999L332.768 137.60000000000002L374.75199999999995 134.752L371.84 176.704L411.74399999999997 190.144L392.96 227.776L424.67199999999997 255.42400000000004L392.96 283.072zM273.76 212.832L273.76 212.832L254.72 193.79199999999997L233.56799999999998 172.64H233.536L233.536 172.64L211.616 194.56L193.312 212.832L193.312 212.832L158.176 248L198.432 288.224L233.56799999999998 253.05599999999998L317.888 337.408L358.11199999999997 297.18399999999997L273.76 212.832z" />
    <glyph glyph-name="official-filled"
      unicode="&#xE023;"
      horiz-adv-x="512" d=" M233.568 253.05599999999998L198.432 288.224L158.176 248L193.312 212.8L193.312 212.8L211.616 194.52800000000002L233.536 172.608L233.536 172.64L233.568 172.608L254.72 193.76L273.792 212.8L273.76 212.8L358.08 297.216L317.888 337.408z M256 512C114.624 512 0 397.376 0 256C0 114.59199999999998 114.624 0 256 0S512 114.59199999999998 512 256C512 397.376 397.376 512 256 512zM411.712 190.07999999999998L371.808 176.67199999999997L374.71999999999997 134.688L332.736 137.536L319.328 97.69600000000003L281.664 116.41600000000005L254.016 84.73600000000005L226.368 116.41600000000005L188.704 97.69600000000003L175.29600000000002 137.53600000000006L133.344 134.72000000000003L136.224 176.704L96.352 190.07999999999998L115.072 227.74399999999997L83.328 255.392L115.04 283.008L96.352 320.704L136.224 334.11199999999997L133.344 376.096L175.328 373.216L188.736 413.05600000000004L226.39999999999998 394.368L254.04799999999997 426.048L281.69599999999997 394.368L319.35999999999996 413.056L332.768 373.216L374.75199999999995 376.096L371.84 334.11199999999997L411.74399999999997 320.704L392.96 283.03999999999996L424.67199999999997 255.42399999999998L392.96 227.74400000000003L411.712 190.07999999999998z" />
    <glyph glyph-name="official"
      unicode="&#xE024;"
      horiz-adv-x="512" d=" M392.224 283.072L410.976 320.76800000000003L371.072 334.176L373.984 376.128L332 373.28L318.592 413.08799999999997L280.928 394.4L253.28 426.08000000000004L225.632 394.4L187.968 413.08799999999997L174.56 373.248L132.608 376.096L135.488 334.144L95.584 320.736L114.304 283.03999999999996L82.592 255.42399999999998L114.304 227.77599999999995L95.584 190.11199999999997L135.45600000000002 176.70399999999995L132.57600000000002 134.71999999999997L174.56000000000003 137.59999999999997L187.96800000000002 97.72799999999995L225.632 116.44799999999998L253.28 84.76799999999997L280.928 116.44799999999998L318.592 97.72799999999995L332 137.59999999999997L373.984 134.71999999999997L371.072 176.70399999999995L410.976 190.11199999999997L392.224 227.77599999999995L423.936 255.42399999999998L392.224 283.072zM272.992 212.832L272.992 212.832L253.984 193.824L232.832 172.64L232.79999999999998 172.67199999999997V172.64L210.88 194.56L192.576 212.832V212.86399999999998L157.44 248.03199999999998L197.696 288.256L232.832 253.08799999999997L317.12 337.44L357.344 297.216L272.992 212.832z" />
    <glyph glyph-name="person-circled"
      unicode="&#xE025;"
      horiz-adv-x="512" d=" M256 512C114.624 512 0 397.376 0 256C0 114.62400000000002 114.624 0 256 0S512 114.62400000000002 512 256C512 397.376 397.376 512 256 512zM256 17.055999999999983C124.256 17.055999999999983 17.05600000000001 124.25599999999997 17.05600000000001 256S124.256 494.944 256 494.944S494.944 387.744 494.944 256S387.744 17.055999999999983 256 17.055999999999983z M211.584 277.696C212.608 275.584 213.76 273.568 215.008 271.648C215.136 271.424 215.29600000000002 271.23199999999997 215.424 271.00800000000004C217.984 267.072 220.992 263.488 224.32 260.416C224.512 260.256 224.70399999999998 260.096 224.896 259.93600000000004C226.304 258.656 227.84 257.408 229.376 256.32C229.728 256.06399999999996 230.08 255.808 230.432 255.584C233.984 253.18400000000003 237.76 251.23200000000003 241.76 249.88799999999998C242.272 249.72799999999995 242.784 249.59999999999997 243.26399999999998 249.44C244.8 248.95999999999998 246.368 248.57600000000002 247.936 248.288C248.512 248.192 249.088 248.06400000000002 249.696 247.96800000000002C251.776 247.68 253.856 247.45600000000002 256 247.45600000000002S260.224 247.68 262.304 247.96800000000002C262.912 248.06400000000002 263.488 248.16000000000003 264.06399999999996 248.288C265.664 248.57600000000002 267.2 248.95999999999998 268.704 249.40800000000002C269.248 249.56799999999998 269.76 249.69600000000003 270.24 249.88799999999998C272.256 250.56 274.208 251.32799999999997 276.064 252.288C276.064 252.288 276.096 252.288 276.12800000000004 252.32C278.016 253.248 279.80800000000005 254.368 281.53600000000006 255.55200000000002C281.952 255.808 282.272 256.06399999999996 282.656 256.32C284.192 257.44 285.696 258.624 287.136 259.904C287.32800000000003 260.06399999999996 287.52000000000004 260.256 287.71200000000005 260.416C291.04 263.488 294.016 267.072 296.60800000000006 271.00800000000004C296.7680000000001 271.23199999999997 296.8960000000001 271.456 297.02400000000006 271.648C298.24 273.6 299.424 275.648 300.48 277.76C300.48 277.76 300.48 277.76 300.48 277.76L300.48 277.76C304.736 286.496 307.2 296.512 307.2 307.2V349.856C307.2 382.72 284.15999999999997 401.056 256 401.056S204.8 382.72 204.8 349.856V307.2C204.8 296.512 207.29600000000002 286.464 211.52 277.76C211.552 277.728 211.552 277.728 211.584 277.696z M318.24 275.872C307.584 249.12 283.712 230.39999999999998 256 230.39999999999998C228.288 230.39999999999998 204.448 249.08799999999997 193.76 275.84C172.992 272.99199999999996 154.72 268.128 145.184 260C123.45599999999999 229.856 128.128 177.05599999999998 128.128 177.05599999999998S181.44 117.31200000000001 256 117.31200000000001C256.032 117.31200000000001 256.096 117.344 256.128 117.344C256.15999999999997 117.344 256.192 117.31200000000001 256.256 117.31200000000001C330.816 117.31200000000001 384.128 177.05600000000004 384.128 177.05600000000004S388.8 229.85600000000005 367.104 260.00000000000006C357.504 268.15999999999997 339.136 273.024 318.24 275.872z" />
    <glyph glyph-name="person-filled"
      unicode="&#xE026;"
      horiz-adv-x="512" d=" M256 512C114.624 512 0 397.376 0 256S114.624 0 256 0S512 114.62400000000002 512 256S397.376 512 256 512zM204.8 349.856C204.8 382.72 227.84 401.056 256 401.056S307.2 382.72 307.2 349.856V307.2C307.2 296.544 304.768 286.496 300.47999999999996 277.792V277.792C299.424 275.648 298.24 273.6 296.992 271.648C296.86400000000003 271.424 296.73600000000005 271.2 296.576 271.00800000000004C294.016 267.072 291.04 263.52 287.712 260.416C287.52 260.256 287.328 260.096 287.13599999999997 259.904C285.696 258.624 284.192 257.44 282.656 256.32C282.272 256.06399999999996 281.952 255.808 281.568 255.55200000000002C279.808 254.368 278.016 253.27999999999997 276.128 252.32C276.128 252.32 276.096 252.32 276.06399999999996 252.32C274.176 251.36 272.224 250.59199999999998 270.23999999999995 249.88799999999998C269.76 249.69600000000003 269.248 249.56799999999998 268.704 249.40800000000002C267.2 248.95999999999998 265.664 248.57600000000002 264.064 248.288C263.456 248.192 262.88 248.06400000000002 262.30400000000003 247.96800000000002C260.224 247.68 258.144 247.45600000000002 256 247.45600000000002S251.776 247.68 249.696 247.96800000000002C249.088 248.03200000000004 248.512 248.16000000000003 247.936 248.288C246.368 248.57600000000002 244.8 248.95999999999998 243.296 249.40800000000002C242.784 249.56799999999998 242.272 249.69600000000003 241.76 249.88799999999998C237.76 251.23200000000003 233.984 253.18400000000003 230.432 255.55200000000002C230.08 255.808 229.728 256.06399999999996 229.376 256.32C227.84 257.408 226.304 258.624 224.864 259.93600000000004C224.672 260.096 224.512 260.256 224.32 260.416C220.992 263.488 217.984 267.072 215.392 271.00800000000004C215.264 271.23199999999997 215.136 271.424 214.976 271.648C213.76 273.568 212.608 275.584 211.584 277.696C211.584 277.728 211.552 277.728 211.552 277.76C207.296 286.464 204.8 296.512 204.8 307.2V349.856zM384.128 177.05599999999998C384.128 177.05599999999998 330.816 117.31200000000001 256.256 117.31200000000001C256.224 117.31200000000001 256.15999999999997 117.31200000000001 256.128 117.31200000000001C256.096 117.31200000000001 256.032 117.31200000000001 256 117.31200000000001C181.44 117.31200000000001 128.128 177.05600000000004 128.128 177.05600000000004S123.45599999999999 229.85600000000005 145.184 260.00000000000006C154.752 268.09600000000006 173.024 272.9920000000001 193.76 275.84000000000003C204.448 249.08800000000002 228.288 230.39999999999998 256 230.39999999999998C283.712 230.39999999999998 307.584 249.12 318.24 275.87199999999996C339.104 273.024 357.504 268.15999999999997 367.072 260C388.8 229.856 384.128 177.05599999999998 384.128 177.05599999999998z" />
    <glyph glyph-name="person"
      unicode="&#xE027;"
      horiz-adv-x="512" d=" M208.832 277.728C209.888 275.584 211.04 273.6 212.256 271.648C212.416 271.424 212.544 271.2 212.672 271.00800000000004C215.264 267.072 218.24 263.488 221.568 260.448C221.76000000000002 260.256 221.952 260.12800000000004 222.144 259.93600000000004C223.584 258.656 225.12 257.44 226.68800000000002 256.32C227.04000000000002 256.06399999999996 227.36 255.808 227.71200000000002 255.61599999999999C231.232 253.18400000000003 235.04 251.264 239.04 249.92000000000002C239.52 249.728 240.032 249.60000000000002 240.544 249.44C242.048 248.95999999999998 243.616 248.608 245.184 248.32C245.792 248.192 246.33599999999998 248.06400000000002 246.944 248C249.024 247.68 251.136 247.45600000000002 253.248 247.45600000000002C255.392 247.45600000000002 257.504 247.68 259.55199999999996 248C260.16 248.06400000000002 260.736 248.192 261.344 248.32C262.912 248.608 264.48 248.95999999999998 265.984 249.44C266.496 249.60000000000002 267.008 249.728 267.488 249.92000000000002C269.504 250.56 271.456 251.36 273.344 252.32C273.344 252.32 273.376 252.32 273.408 252.35199999999998C275.296 253.27999999999997 277.05600000000004 254.368 278.81600000000003 255.61599999999999C279.20000000000005 255.87199999999996 279.52000000000004 256.128 279.90400000000005 256.352C281.44000000000005 257.472 282.9440000000001 258.65599999999995 284.38400000000007 259.936C284.5760000000001 260.096 284.80000000000007 260.288 284.9920000000001 260.448C288.288 263.52 291.264 267.10400000000004 293.856 271.03999999999996C294.016 271.264 294.144 271.488 294.272 271.67999999999995C295.52 273.664 296.704 275.67999999999995 297.728 277.792L297.728 277.792V277.824C302.016 286.496 304.44800000000004 296.544 304.44800000000004 307.232V349.88800000000003C304.44800000000004 382.72 281.408 401.12 253.24800000000005 401.12S202.04800000000006 382.752 202.04800000000006 349.88800000000003V307.23199999999997C202.04800000000006 296.544 204.51200000000006 286.528 208.76800000000006 277.79200000000003C208.8 277.76 208.8 277.728 208.832 277.728z M315.488 275.904C304.832 249.12 280.96 230.39999999999998 253.248 230.39999999999998C225.56799999999998 230.39999999999998 201.696 249.12 191.00799999999998 275.84C170.24 272.99199999999996 152 268.128 142.432 260C120.70399999999998 229.88799999999998 125.37599999999999 177.08799999999997 125.37599999999999 177.08799999999997S178.72 117.37599999999998 253.248 117.37599999999998C253.31199999999998 117.37599999999998 253.344 117.37599999999998 253.408 117.37599999999998C253.44 117.37599999999998 253.47199999999998 117.37599999999998 253.53599999999997 117.37599999999998C328.06399999999996 117.37599999999998 381.376 177.08799999999997 381.376 177.08799999999997S386.048 229.856 364.352 260C354.752 268.15999999999997 336.384 273.05600000000004 315.488 275.904z" />
    <glyph glyph-name="pie-circled"
      unicode="&#xE028;"
      horiz-adv-x="512" d=" M256 512C114.624 512 0 397.376 0 256C0 114.62400000000002 114.624 0 256 0S512 114.62400000000002 512 256C512 397.376 397.376 512 256 512zM256 17.055999999999983C124.256 17.055999999999983 17.087999999999994 124.25599999999997 17.087999999999994 256S124.256 494.944 256 494.944S494.944 387.744 494.944 256S387.744 17.055999999999983 256 17.055999999999983z M162.528 374.272C126.592 345.79200000000003 105.248 301.952 105.248 256C105.248 172.86400000000003 172.89600000000002 105.24799999999999 256 105.24799999999999C335.168 105.24799999999999 401.728 168.35199999999998 406.496 246.84799999999996H251.264L162.528 374.272z M374.304 349.504C345.824 385.44 301.952 406.752 256 406.752C228.128 406.752 201.088 399.13599999999997 177.47199999999998 384.736L258.272 268.736L374.304 349.504z M285.12 265.152H406.496C404.99199999999996 289.76 397.568 313.568 384.736 334.528L285.12 265.152z" />
    <glyph glyph-name="pie-filled"
      unicode="&#xE029;"
      horiz-adv-x="512" d=" M256 512C114.624 512 0 397.376 0 256C0 114.59199999999998 114.624 0 256 0S512 114.59199999999998 512 256C512 397.376 397.376 512 256 512zM256 406.752C301.92 406.752 345.79200000000003 385.44 374.304 349.472L258.304 268.704L177.504 384.704C201.088 399.168 228.128 406.752 256 406.752zM256 105.21600000000001C172.864 105.21600000000001 105.24799999999999 172.832 105.24799999999999 256C105.24799999999999 301.92 126.59199999999998 345.79200000000003 162.528 374.24L251.264 246.848H406.528C401.76 168.32 335.2 105.21600000000001 256 105.21600000000001zM285.12 265.12L384.736 334.496C397.536 313.536 404.99199999999996 289.728 406.496 265.12H285.12z" />
    <glyph glyph-name="pie"
      unicode="&#xE02A;"
      horiz-adv-x="512" d=" M159.776 374.272C123.84 345.824 102.528 301.952 102.528 256C102.528 172.86400000000003 170.176 105.24799999999999 253.28000000000003 105.24799999999999C332.48 105.24799999999999 399.00800000000004 168.38400000000001 403.744 246.88H248.512L159.776 374.272z M371.552 349.504C343.04 385.44 299.20000000000005 406.784 253.28000000000003 406.784C225.40800000000002 406.784 198.36800000000002 399.168 174.752 384.76800000000003L255.55200000000002 268.736L371.552 349.504z M282.4 265.152H403.74399999999997C402.272 289.76 394.816 313.568 381.984 334.528L282.4 265.152z" />
    <glyph glyph-name="plus-circled"
      unicode="&#xE02B;"
      horiz-adv-x="512" d=" M256 512C114.624 512 0 397.376 0 256C0 114.62400000000002 114.624 0 256 0C397.376 0 512 114.62400000000002 512 256C512 397.376 397.376 512 256 512zM256 17.055999999999983C124.256 17.055999999999983 17.05600000000001 124.25599999999997 17.05600000000001 256S124.256 494.944 256 494.944S494.944 387.744 494.944 256S387.744 17.055999999999983 256 17.055999999999983z M298.656 384L213.344 384L213.344 298.656L128 298.656L128 213.312L213.344 213.312L213.344 128L298.656 128L298.656 213.312L384 213.312L384 298.656L298.656 298.656z" />
    <glyph glyph-name="plus-filled"
      unicode="&#xE02C;"
      horiz-adv-x="512" d=" M256 512C114.624 512 0 397.376 0 256C0 114.59199999999998 114.624 0 256 0C397.376 0 512 114.59199999999998 512 256C512 397.376 397.376 512 256 512zM384 213.312H298.656V128H213.344V213.312H128V298.656H213.344V384H298.688V298.656H384V213.312z" />
    <glyph glyph-name="plus"
      unicode="&#xE02D;"
      horiz-adv-x="512" d=" M298.656 384L213.344 384L213.344 298.688L128 298.688L128 213.344L213.344 213.344L213.344 128L298.656 128L298.656 213.344L384 213.344L384 298.688L298.656 298.688z" />
    <glyph glyph-name="star-circled"
      unicode="&#xE02E;"
      horiz-adv-x="512" d=" M256 512C114.624 512 0 397.376 0 256C0 114.62400000000002 114.624 0 256 0S512 114.62400000000002 512 256C512 397.376 397.376 512 256 512zM256 17.055999999999983C124.256 17.055999999999983 17.087999999999994 124.25599999999997 17.087999999999994 256S124.256 494.944 256 494.944S494.944 387.744 494.944 256S387.744 17.055999999999983 256 17.055999999999983z M305.888 319.456L256 412.288L206.112 319.456L102.4 300.672L175.264 224.54399999999998L161.088 120.12799999999999L256 165.92000000000002L350.944 120.12799999999999L336.736 224.54399999999998L409.632 300.672z" />
    <glyph glyph-name="star-filled"
      unicode="&#xE02F;"
      horiz-adv-x="512" d=" M256 512C114.624 512 0 397.376 0 256C0 114.59199999999998 114.624 0 256 0S512 114.59199999999998 512 256C512 397.376 397.376 512 256 512zM350.944 120.12799999999999L256 165.88799999999998L161.088 120.12799999999999L175.26399999999998 224.54399999999998L102.4 300.672L206.11200000000002 319.424L256 412.288L305.888 319.456L409.63199999999995 300.704L336.7679999999999 224.54399999999998L350.944 120.12799999999999z" />
    <glyph glyph-name="star"
      unicode="&#xE030;"
      horiz-adv-x="512" d=" M303.168 319.456L253.28 412.32L203.36 319.456L99.68 300.704L172.544 224.57600000000002L158.336 120.12799999999999L253.28 165.952L348.192 120.12799999999999L334.016 224.57600000000002L406.88 300.704z" />
    <glyph glyph-name="text-balloon-circled"
      unicode="&#xE031;"
      horiz-adv-x="512" d=" M256 512C114.624 512 0 397.376 0 256C0 114.62400000000002 114.624 0 256 0S512 114.62400000000002 512 256C512 397.376 397.376 512 256 512zM256 17.055999999999983C124.256 17.055999999999983 17.05600000000001 124.25599999999997 17.05600000000001 256S124.256 494.944 256 494.944S494.944 387.744 494.944 256S387.744 17.055999999999983 256 17.055999999999983z M405.312 256C405.312 321.984 338.464 375.456 256 375.456S106.656 321.98400000000004 106.656 256S173.536 136.54399999999998 256 136.54399999999998C278.496 136.54399999999998 299.744 140.64 318.912 147.77599999999995C342.01599999999996 137.43999999999994 368.89599999999996 129.11999999999995 395.74399999999997 129.11999999999995C380.864 144.03199999999993 370.496 159.19999999999993 363.296 173.05599999999993C389.28 194.52800000000002 405.312 223.74400000000003 405.312 256z" />
    <glyph glyph-name="text-balloon-filled"
      unicode="&#xE032;"
      horiz-adv-x="512" d=" M256 512C114.624 512 0 397.376 0 256S114.624 0 256 0S512 114.62400000000002 512 256S397.376 512 256 512zM395.744 129.05599999999998C368.86400000000003 129.05599999999998 341.98400000000004 137.37599999999998 318.91200000000003 147.74399999999997C299.744 140.64 278.496 136.512 256 136.512C173.536 136.512 106.656 190.01600000000002 106.656 256C106.656 321.984 173.50400000000002 375.456 256 375.456S405.312 321.98400000000004 405.312 256C405.312 223.74400000000003 389.28000000000003 194.49599999999998 363.32800000000003 172.99200000000002C370.496 159.13600000000002 380.864 144 395.744 129.05599999999998z" />
    <glyph glyph-name="text-balloon"
      unicode="&#xE033;"
      horiz-adv-x="512" d=" M402.56 256C402.56 321.984 335.712 375.456 253.248 375.456S103.936 321.98400000000004 103.936 256C103.936 190.048 170.784 136.57600000000002 253.24800000000002 136.57600000000002C275.744 136.57600000000002 296.992 140.67200000000003 316.16 147.808C339.264 137.47199999999998 366.144 129.152 392.992 129.152C378.112 144.03199999999998 367.744 159.2 360.54400000000004 173.08799999999997C386.528 194.56 402.56 223.74400000000003 402.56 256z" />
    <glyph glyph-name="three-bars-circled"
      unicode="&#xE034;"
      horiz-adv-x="512" d=" M256 512C114.624 512 0 397.376 0 256C0 114.62400000000002 114.624 0 256 0C397.376 0 512 114.62400000000002 512 256C512 397.376 397.376 512 256 512zM256 17.055999999999983C124.256 17.055999999999983 17.05600000000001 124.25599999999997 17.05600000000001 256S124.256 494.944 256 494.944S494.944 387.744 494.944 256S387.744 17.055999999999983 256 17.055999999999983z M128 290.144H384V221.88800000000003H128z M128 204.8H384V136.512H128z M128 375.456H384V307.2H128z" />
    <glyph glyph-name="three-bars-filled"
      unicode="&#xE035;"
      horiz-adv-x="512" d=" M256 512C114.624 512 0 397.376 0 256C0 114.59199999999998 114.624 0 256 0C397.376 0 512 114.59199999999998 512 256C512 397.376 397.376 512 256 512zM384 136.512H128V204.76799999999997H384V136.512zM384 221.856H128V290.11199999999997H384V221.856zM384 307.2H128V375.456H384V307.2z" />
    <glyph glyph-name="three-bars"
      unicode="&#xE036;"
      horiz-adv-x="512" d=" M125.28 290.144H381.312V221.856H125.28000000000003z M125.28 204.8H381.312V136.54399999999998H125.28000000000003z M125.28 375.456H381.312V307.2H125.28000000000003z" />
    <glyph glyph-name="thumbs-down-circled"
      unicode="&#xE037;"
      horiz-adv-x="512" d=" M256 512C114.624 512 0 397.376 0 256C0 114.62400000000002 114.624 0 256 0S512 114.62400000000002 512 256C512 397.376 397.376 512 256 512zM256 17.055999999999983C124.256 17.055999999999983 17.087999999999994 124.25599999999997 17.087999999999994 256S124.256 494.944 256 494.944S494.944 387.744 494.944 256S387.744 17.055999999999983 256 17.055999999999983z M301.056 370.528H181.568C167.488 370.528 155.96800000000002 359.008 155.96800000000002 344.928C155.96800000000002 338.272 158.62400000000002 332.256 162.78400000000002 327.68C149.504 326.784 138.912 315.776 138.912 302.272C138.912 295.616 141.536 289.6 145.728 285.024C132.448 284.128 121.856 273.08799999999997 121.856 259.584C121.856 250.72000000000003 126.464 242.848 133.376 238.24C126.432 233.632 121.85600000000001 225.79200000000003 121.85600000000001 216.89600000000002C121.85600000000001 202.848 133.376 191.264 147.45600000000002 191.264H249.85600000000002V132.192C249.85600000000002 118.144 260.928 106.62400000000002 274.49600000000004 106.62400000000002C288.03200000000004 106.62400000000002 299.16800000000006 118.11200000000002 299.20000000000005 132.192V149.312C299.26400000000007 163.392 308.70400000000006 181.56799999999998 320.19200000000006 189.632L344.12800000000004 206.43200000000002C344.92800000000005 207.04000000000002 345.63200000000006 207.68 346.30400000000003 208.35200000000003H382.432V354.176H324.86400000000003C321.12 363.712 311.872 370.528 301.056 370.528z" />
    <glyph glyph-name="thumbs-down-filled"
      unicode="&#xE038;"
      horiz-adv-x="512" d=" M256 512C114.624 512 0 397.376 0 256C0 114.59199999999998 114.624 0 256 0S512 114.59199999999998 512 256C512 397.376 397.376 512 256 512zM382.432 208.38400000000001H346.30400000000003C345.632 207.74400000000003 344.92800000000005 207.072 344.12800000000004 206.464L320.19200000000006 189.69600000000003C308.70400000000006 181.60000000000002 299.26400000000007 163.45600000000002 299.20000000000005 149.37600000000003V132.25600000000003C299.136 118.17599999999999 288 106.62400000000002 274.464 106.62400000000002C260.928 106.62400000000002 249.824 118.17600000000004 249.824 132.25600000000003V191.32800000000003H147.424C133.344 191.32800000000003 121.82400000000001 202.81600000000003 121.82400000000001 216.92800000000005C121.82400000000001 225.82400000000007 126.43200000000002 233.66400000000004 133.34400000000002 238.27200000000005C126.40000000000002 242.88000000000005 121.82400000000003 250.72000000000003 121.82400000000003 259.61600000000004C121.82400000000003 273.12 132.44800000000004 284.1600000000001 145.72800000000004 285.02400000000006C141.536 289.6 138.912 295.584 138.912 302.24C138.912 315.744 149.536 326.784 162.816 327.68C158.624 332.256 155.968 338.272 155.968 344.89599999999996C155.968 358.976 167.488 370.528 181.56799999999998 370.528H301.056C311.87199999999996 370.528 321.12 363.67999999999995 324.864 354.144H382.43199999999996V208.38400000000001z" />
    <glyph glyph-name="thumbs-down"
      unicode="&#xE039;"
      horiz-adv-x="512" d=" M298.304 370.528H178.848C164.768 370.528 153.24800000000002 359.03999999999996 153.24800000000002 344.928C153.24800000000002 338.272 155.90400000000002 332.256 160.06400000000002 327.712C146.784 326.81600000000003 136.16 315.776 136.16 302.272C136.16 295.616 138.784 289.6 142.976 285.024C129.728 284.128 119.104 273.08799999999997 119.104 259.616C119.104 250.72000000000003 123.712 242.88 130.624 238.272C123.67999999999999 233.664 119.104 225.824 119.104 216.928C119.104 202.88 130.624 191.36 144.704 191.36H247.104V132.25600000000003C247.104 118.17600000000004 258.176 106.656 271.744 106.656S296.384 118.144 296.44800000000004 132.25600000000003V149.37600000000003C296.51200000000006 163.45600000000002 305.95200000000006 181.60000000000002 317.47200000000004 189.728L341.37600000000003 206.464C342.208 207.072 342.88000000000005 207.712 343.61600000000004 208.38400000000001H379.68000000000006V354.176H322.1120000000001C318.368 363.712 309.12 370.528 298.304 370.528z" />
    <glyph glyph-name="thumbs-up-circled"
      unicode="&#xE03A;"
      horiz-adv-x="512" d=" M256 512C114.624 512 0 397.376 0 256C0 114.62400000000002 114.624 0 256 0C397.376 0 512 114.62400000000002 512 256C512 397.376 397.376 512 256 512zM256 17.055999999999983C124.256 17.055999999999983 17.05600000000001 124.25599999999997 17.05600000000001 256S124.256 494.944 256 494.944S494.944 387.744 494.944 256S387.744 17.055999999999983 256 17.055999999999983z M390.112 295.072C390.112 309.15200000000004 378.624 320.672 364.54400000000004 320.672H262.144V379.744C262.144 393.824 251.072 405.344 237.50400000000002 405.344S212.83200000000002 393.824 212.83200000000002 379.744L212.8 362.624C212.768 348.544 203.328 330.4 191.776 322.304L167.904 305.504C167.04 304.89599999999996 166.4 304.256 165.664 303.584H129.6V157.79200000000003H187.168C190.912 148.25600000000003 200.16 141.44000000000005 210.976 141.44000000000005H330.432C344.48 141.44000000000005 356 152.96000000000004 356 167.04000000000008C356 173.69600000000008 353.376 179.7120000000001 349.184 184.28800000000007C362.49600000000004 185.15200000000004 373.05600000000004 196.22400000000005 373.05600000000004 209.72800000000007C373.05600000000004 216.3520000000001 370.432 222.4000000000001 366.24000000000007 226.94400000000007C379.5520000000001 227.8400000000001 390.1120000000001 238.88000000000005 390.1120000000001 252.38400000000007C390.1120000000001 261.24800000000005 385.53600000000006 269.12000000000006 378.6240000000001 273.72800000000007C385.568 278.336 390.112 286.176 390.112 295.072z" />
    <glyph glyph-name="thumbs-up-filled"
      unicode="&#xE03B;"
      horiz-adv-x="512" d=" M256 512C114.624 512 0 397.376 0 256C0 114.59199999999998 114.624 0 256 0C397.376 0 512 114.59199999999998 512 256C512 397.376 397.376 512 256 512zM390.112 252.38400000000001C390.112 238.91200000000003 379.552 227.872 366.24 226.976C370.432 222.39999999999998 373.056 216.38400000000001 373.056 209.728C373.056 196.224 362.496 185.18400000000003 349.18399999999997 184.288C353.376 179.712 355.99999999999994 173.69600000000003 355.99999999999994 167.072C355.99999999999994 152.99200000000002 344.51199999999994 141.44 330.43199999999996 141.44H210.976C200.16 141.44 190.912 148.25599999999997 187.168 157.824H129.6V303.584H165.664C166.368 304.224 167.04 304.896 167.904 305.504L191.808 322.272C203.328 330.368 212.79999999999998 348.512 212.832 362.592L212.864 379.712C212.89600000000002 393.792 224 405.312 237.536 405.312S262.176 393.82399999999996 262.176 379.712V320.64H364.576C378.624 320.64 390.144 309.12 390.144 295.03999999999996C390.144 286.144 385.568 278.304 378.656 273.696C385.568 269.12 390.112 261.28 390.112 252.38400000000001z" />
    <glyph glyph-name="thumbs-up"
      unicode="&#xE03C;"
      horiz-adv-x="512" d=" M387.424 295.10400000000004C387.424 309.15200000000004 375.936 320.704 361.856 320.704H259.424V379.744C259.424 393.79200000000003 248.35199999999998 405.344 234.784 405.344C221.248 405.344 210.112 393.824 210.112 379.744L210.08 362.624C210.048 348.544 200.608 330.4 189.08800000000002 322.304L165.184 305.536C164.352 304.896 163.68 304.256 162.976 303.616H126.88V157.824H184.44799999999998C188.19199999999998 148.288 197.43999999999997 141.47200000000004 208.25599999999997 141.47200000000004H327.712C341.792 141.47200000000004 353.312 152.96000000000004 353.312 167.07200000000006C353.312 173.72800000000007 350.688 179.74400000000009 346.49600000000004 184.28800000000007C359.776 185.21600000000007 370.36800000000005 196.22400000000005 370.36800000000005 209.72800000000007C370.36800000000005 216.38400000000007 367.744 222.4000000000001 363.5520000000001 226.97600000000006C376.83200000000005 227.84000000000003 387.4240000000001 238.88000000000005 387.4240000000001 252.38400000000007C387.4240000000001 261.2800000000001 382.84800000000007 269.12000000000006 375.9360000000001 273.72800000000007C382.88 278.336 387.424 286.176 387.424 295.10400000000004z" />
    <glyph glyph-name="triangle-left-circled"
      unicode="&#xE03D;"
      horiz-adv-x="512" d=" M256 512C114.624 512 0 397.376 0 256C0 114.62400000000002 114.624 0 256 0S512 114.62400000000002 512 256C512 397.376 397.376 512 256 512zM256 17.055999999999983C124.256 17.055999999999983 17.05600000000001 124.25599999999997 17.05600000000001 256S124.256 494.944 256 494.944C387.712 494.944 494.94399999999996 387.744 494.94399999999996 256S387.712 17.055999999999983 256 17.055999999999983z M114.912 256L225.76 192L336.608 128L336.608 256L336.608 384L225.76 320z" />
    <glyph glyph-name="triangle-left-filled"
      unicode="&#xE03E;"
      horiz-adv-x="512" d=" M256 512C114.624 512 0 397.376 0 256C0 114.59199999999998 114.624 0 256 0S512 114.59199999999998 512 256C512 397.376 397.376 512 256 512zM336.608 256V128L225.76 192L114.912 256L225.76 320L336.608 384V256z" />
    <glyph glyph-name="triangle-left"
      unicode="&#xE03F;"
      horiz-adv-x="512" d=" M112.16 256L223.04 192L333.888 128L333.888 256L333.888 384L223.04 320z" />
    <glyph glyph-name="triangle-right-circled"
      unicode="&#xE040;"
      horiz-adv-x="512" d=" M256 512C114.624 512 0 397.376 0 256C0 114.62400000000002 114.624 0 256 0C397.376 0 512 114.62400000000002 512 256C512 397.376 397.376 512 256 512zM256 17.055999999999983C124.256 17.055999999999983 17.05600000000001 124.25599999999997 17.05600000000001 256S124.256 494.944 256 494.944S494.944 387.744 494.944 256S387.744 17.055999999999983 256 17.055999999999983z M175.392 384L175.392 256L175.392 128L286.24 192L397.056 256L286.24 320z" />
    <glyph glyph-name="triangle-right-filled"
      unicode="&#xE041;"
      horiz-adv-x="512" d=" M256 512C114.624 512 0 397.376 0 256C0 114.59199999999998 114.624 0 256 0C397.376 0 512 114.59199999999998 512 256C512 397.376 397.376 512 256 512zM286.24 192L175.392 128V256V384L286.24 320L397.05600000000004 256L286.24 192z" />
    <glyph glyph-name="triangle-right"
      unicode="&#xE042;"
      horiz-adv-x="512" d=" M172.672 384L172.672 256L172.672 128L283.52 192L394.368 256L283.52 320z" />
    <glyph glyph-name="x-circled"
      unicode="&#xE043;"
      horiz-adv-x="512" d=" M256 512C114.624 512 0 397.376 0 256C0 114.62400000000002 114.624 0 256 0C397.376 0 512 114.62400000000002 512 256C512 397.376 397.376 512 256 512zM256 17.055999999999983C124.256 17.055999999999983 17.05600000000001 124.25599999999997 17.05600000000001 256S124.256 494.944 256 494.944S494.944 387.744 494.944 256S387.744 17.055999999999983 256 17.055999999999983z M323.968 384.288L256 316.352L188.032 384.288L127.712 323.96799999999996L195.648 256L127.712 188.03199999999998L188.032 127.68L256 195.64800000000002L323.968 127.68L384.32 188.03199999999998L316.352 256L384.32 323.96799999999996z" />
    <glyph glyph-name="x-filled"
      unicode="&#xE044;"
      horiz-adv-x="512" d=" M256 512C114.624 512 0 397.376 0 256C0 114.62400000000002 114.624 0 256 0C397.376 0 512 114.62400000000002 512 256C512 397.376 397.376 512 256 512zM384.32 188.03199999999998L323.968 127.68L256 195.64800000000002L188.032 127.68L127.71200000000002 188.03199999999998L195.648 256L127.712 323.96799999999996L188.032 384.288L256 316.352L323.968 384.32L384.32 324L316.352 256L384.32 188.03199999999998z" />
    <glyph glyph-name="x"
      unicode="&#xE045;"
      horiz-adv-x="512" d=" M323.968 405.632L256 337.664L188.032 405.632L127.712 345.312L195.648 277.344L127.712 209.37599999999998L188.032 149.024L256 216.99200000000002L323.968 149.024L384.32 209.37599999999998L316.352 277.344L384.32 345.312z" />
  </font>
</defs>
</svg>
