<?xml version="1.0" encoding="utf-8"?>
<!-- Generator: Adobe Illustrator 16.0.5, SVG Export Plug-In . SVG Version: 6.00 Build 0)  -->
<!DOCTYPE svg PUBLIC "-//W3C//DTD SVG 1.1//EN" "http://www.w3.org/Graphics/SVG/1.1/DTD/svg11.dtd">
<svg version="1.1" id="Layer_1" xmlns="http://www.w3.org/2000/svg" xmlns:xlink="http://www.w3.org/1999/xlink" x="0px" y="0px"
	 width="512px" height="512px" viewBox="0 0 512 512" enable-background="new 0 0 512 512" xml:space="preserve">
<g>
	<path fill="#010101" d="M256,0C114.625,0,0,114.625,0,256s114.625,256,256,256s256-114.625,256-256S397.375,0,256,0z M256,494.938
		C124.25,494.938,17.062,387.75,17.062,256S124.25,17.062,256,17.062S494.938,124.25,494.938,256S387.75,494.938,256,494.938z"/>
	<polygon fill="#010101" points="351.781,133.562 225.312,260.062 172.609,207.359 112.219,267.688 164.953,320.438 
		164.922,320.438 192.953,348.5 225.281,380.75 225.281,380.75 225.312,380.75 258.078,347.969 285.625,320.438 285.594,320.438 
		412.125,193.891 	"/>
</g>
</svg>
