<?xml version="1.0" encoding="utf-8"?>
<!-- Generator: Adobe Illustrator 16.0.5, SVG Export Plug-In . SVG Version: 6.00 Build 0)  -->
<!DOCTYPE svg PUBLIC "-//W3C//DTD SVG 1.1//EN" "http://www.w3.org/Graphics/SVG/1.1/DTD/svg11.dtd">
<svg version="1.1" id="Layer_1" xmlns="http://www.w3.org/2000/svg" xmlns:xlink="http://www.w3.org/1999/xlink" x="0px" y="0px"
	 width="512px" height="512px" viewBox="0 0 512 512" enable-background="new 0 0 512 512" xml:space="preserve">
<path fill="#010101" d="M256,0C114.625,0,0,114.625,0,256s114.625,256,256,256s256-114.625,256-256S397.375,0,256,0z
	 M153.594,298.688c-23.578,0-42.656-19.125-42.656-42.688c0-23.547,19.078-42.656,42.656-42.656
	c23.594,0,42.656,19.109,42.656,42.656C196.25,279.562,177.156,298.688,153.594,298.688z M256,298.688
	c-23.547,0-42.656-19.125-42.656-42.688c0-23.547,19.109-42.656,42.656-42.656c23.562,0,42.688,19.109,42.688,42.656
	C298.688,279.562,279.562,298.688,256,298.688z M358.406,298.688c-23.562,0-42.656-19.125-42.656-42.688
	c0-23.547,19.094-42.656,42.656-42.656c23.531,0,42.656,19.109,42.656,42.656C401.062,279.562,382,298.688,358.406,298.688z"/>
</svg>
