<?xml version="1.0" encoding="utf-8"?>
<!-- Generator: Adobe Illustrator 16.0.4, SVG Export Plug-In . SVG Version: 6.00 Build 0)  -->
<!DOCTYPE svg PUBLIC "-//W3C//DTD SVG 1.1//EN" "http://www.w3.org/Graphics/SVG/1.1/DTD/svg11.dtd">
<svg version="1.1" id="Layer_1" xmlns="http://www.w3.org/2000/svg" xmlns:xlink="http://www.w3.org/1999/xlink" x="0px" y="0px"
	 width="16px" height="16px" viewBox="0 0 16 16" enable-background="new 0 0 16 16" xml:space="preserve">
<path fill="#010101" d="M8,0C3.582,0,0,3.582,0,8s3.582,8,8,8c4.418,0,8-3.582,8-8S12.418,0,8,0z M4.8,9.334
	C4.063,9.334,3.467,8.736,3.467,8S4.063,6.667,4.8,6.667S6.133,7.264,6.133,8S5.536,9.334,4.8,9.334z M8,9.334
	C7.264,9.334,6.667,8.736,6.667,8S7.264,6.667,8,6.667S9.334,7.264,9.334,8S8.736,9.334,8,9.334z M11.2,9.334
	c-0.736,0-1.333-0.598-1.333-1.334s0.597-1.333,1.333-1.333S12.533,7.264,12.533,8S11.937,9.334,11.2,9.334z"/>
</svg>
