<?xml version="1.0" encoding="utf-8"?>
<!-- Generator: Adobe Illustrator 16.0.4, SVG Export Plug-In . SVG Version: 6.00 Build 0)  -->
<!DOCTYPE svg PUBLIC "-//W3C//DTD SVG 1.1//EN" "http://www.w3.org/Graphics/SVG/1.1/DTD/svg11.dtd">
<svg version="1.1" id="Layer_1" xmlns="http://www.w3.org/2000/svg" xmlns:xlink="http://www.w3.org/1999/xlink" x="0px" y="0px"
	 width="16px" height="16px" viewBox="0 0 16 16" enable-background="new 0 0 16 16" xml:space="preserve">
<path fill="#010101" d="M8,0C3.582,0,0,3.582,0,8c0,4.419,3.582,8,8,8s8-3.581,8-8C16,3.582,12.418,0,8,0z M11.467,10.135v1.066
	h-1.067H5.6H4.533v-1.066V5.867V4.801H5.6h1.067v1.066H5.6v4.268h4.8V9.067h1.067V10.135z M11.268,6.093l-0.516,1.926L9.908,7.175
	L8.517,8.566L7.385,7.435l1.392-1.392L7.933,5.199l1.926-0.516l1.926-0.516L11.268,6.093z"/>
</svg>
