<?xml version="1.0" encoding="utf-8"?>
<!-- Generator: Adobe Illustrator 16.0.5, SVG Export Plug-In . SVG Version: 6.00 Build 0)  -->
<!DOCTYPE svg PUBLIC "-//W3C//DTD SVG 1.1//EN" "http://www.w3.org/Graphics/SVG/1.1/DTD/svg11.dtd">
<svg version="1.1" id="Layer_1" xmlns="http://www.w3.org/2000/svg" xmlns:xlink="http://www.w3.org/1999/xlink" x="0px" y="0px"
	 width="512px" height="512px" viewBox="0 0 512 512" enable-background="new 0 0 512 512" xml:space="preserve">
<path fill="#010101" d="M256,0C114.625,0,0,114.625,0,256c0,141.406,114.625,256,256,256s256-114.594,256-256
	C512,114.625,397.375,0,256,0z M366.938,324.312v34.125h-34.125H179.203h-34.141v-34.125V187.75v-34.125h34.141h34.141v34.125
	h-34.141v136.562h153.609v-34.188h34.125V324.312L366.938,324.312z M360.562,194.969l-16.5,61.641l-27-27.016l-44.5,44.531
	l-36.25-36.203l44.562-44.547l-27.016-27l61.642-16.516l61.625-16.516L360.562,194.969z"/>
</svg>
