<?xml version="1.0" encoding="utf-8"?>
<!-- Generator: Adobe Illustrator 16.0.4, SVG Export Plug-In . SVG Version: 6.00 Build 0)  -->
<!DOCTYPE svg PUBLIC "-//W3C//DTD SVG 1.1//EN" "http://www.w3.org/Graphics/SVG/1.1/DTD/svg11.dtd">
<svg version="1.1" id="Layer_1" xmlns="http://www.w3.org/2000/svg" xmlns:xlink="http://www.w3.org/1999/xlink" x="0px" y="0px"
	 width="16px" height="16px" viewBox="0 0 16 16" enable-background="new 0 0 16 16" xml:space="preserve">
<g>
	<polygon fill="#010101" points="7.933,5.199 8.776,6.043 7.385,7.435 8.517,8.566 9.908,7.174 10.752,8.018 11.268,6.093 
		11.784,4.167 9.858,4.683 	"/>
	<path fill="#010101" d="M8,0C3.582,0,0,3.582,0,8c0,4.418,3.582,8,8,8s8-3.582,8-8C16,3.582,12.418,0,8,0z M8,15.467
		c-4.117,0-7.467-3.35-7.467-7.467S3.883,0.533,8,0.533S15.467,3.883,15.467,8S12.117,15.467,8,15.467z"/>
	<polygon fill="#010101" points="10.399,10.133 5.6,10.133 5.6,5.867 6.667,5.867 6.667,4.8 5.6,4.8 4.533,4.8 4.533,5.867 
		4.533,10.133 4.533,11.2 5.6,11.2 10.399,11.2 11.467,11.2 11.467,10.133 11.467,9.066 10.399,9.066 	"/>
</g>
</svg>
