<?xml version="1.0" encoding="utf-8"?>
<!-- Generator: Adobe Illustrator 19.1.0, SVG Export Plug-In . SVG Version: 6.00 Build 0)  -->
<svg version="1.1" id="Layer_1" xmlns="http://www.w3.org/2000/svg" xmlns:xlink="http://www.w3.org/1999/xlink" x="0px" y="0px"
	 viewBox="-143 145 512 512" style="enable-background:new -143 145 512 512;" xml:space="preserve">
<style type="text/css">
	.st0{fill:none;stroke:#000000;stroke-width:51.18;}
	.st1{fill:none;stroke:#000000;stroke-width:34.12;}
</style>
<g>
	<path d="M113,162.2c32.3,0,63.5,6.3,93,18.8c28.4,12,54,29.3,75.9,51.2c21.9,21.9,39.2,47.5,51.2,75.9c12.4,29.4,18.8,60.7,18.8,93
		c0,32.3-6.3,63.5-18.8,93c-12,28.4-29.3,54-51.2,75.9c-21.9,21.9-47.5,39.2-75.9,51.2c-29.4,12.4-60.7,18.8-93,18.8
		s-63.5-6.3-93-18.8c-28.4-12-54-29.3-75.9-51.2c-21.9-21.9-39.2-47.5-51.2-75.9c-12.4-29.4-18.8-60.7-18.8-93s6.3-63.5,18.8-93
		c12-28.4,29.3-54,51.2-75.9C-33.9,210.2-8.4,193,20,180.9C49.5,168.5,80.7,162.2,113,162.2 M113,145.1
		c-141.3,0-255.9,114.6-255.9,255.9c0,141.3,114.6,255.9,255.9,255.9S368.9,542.3,368.9,401C368.9,259.7,254.3,145.1,113,145.1
		L113,145.1z"/>
</g>
<polygon points="114.7,469.7 146.6,414.5 178.5,359.3 114.7,359.3 51,359.3 82.8,414.5 "/>
<line class="st0" x1="114.7" y1="397.4" x2="114.7" y2="296.4"/>
<line class="st1" x1="4.1" y1="494.8" x2="225.9" y2="494.8"/>
</svg>
