<?xml version="1.0" encoding="utf-8"?>
<!-- Generator: Adobe Illustrator 19.1.0, SVG Export Plug-In . SVG Version: 6.00 Build 0)  -->
<svg version="1.1" id="Layer_1" xmlns="http://www.w3.org/2000/svg" xmlns:xlink="http://www.w3.org/1999/xlink" x="0px" y="0px"
	 viewBox="-143 145 512 512" style="enable-background:new -143 145 512 512;" xml:space="preserve">
<g>
	<path d="M112.9,162.1c32.3,0,63.5,6.3,93,18.8c28.4,12,54,29.3,75.9,51.2S321,279.6,333,308c12.4,29.4,18.8,60.7,18.8,93
		s-6.3,63.5-18.8,93c-12,28.4-29.3,54-51.2,75.9c-21.9,21.9-47.5,39.2-75.9,51.2c-29.4,12.4-60.7,18.8-93,18.8s-63.5-6.3-93-18.8
		c-28.4-12-54-29.3-75.9-51.2s-39.2-47.5-51.2-75.9c-12.4-29.4-18.8-60.7-18.8-93s6.3-63.5,18.8-93c12-28.4,29.3-54,51.2-75.9
		c22-22,47.5-39.2,75.9-51.3C49.4,168.4,80.6,162.1,112.9,162.1 M112.9,145C-28.4,145-143,259.6-143,400.9s114.6,255.9,255.9,255.9
		s255.9-114.6,255.9-255.9S254.2,145,112.9,145L112.9,145z"/>
</g>
<polygon points="114.6,469.6 146.5,414.4 178.4,359.2 114.6,359.2 50.9,359.2 82.7,414.4 "/>
<rect x="89" y="296.3" width="51.2" height="101"/>
<rect x="4" y="477.6" width="221.8" height="34.1"/>
</svg>
