<?xml version="1.0" encoding="utf-8"?>
<!-- Generator: Adobe Illustrator 16.0.5, SVG Export Plug-In . SVG Version: 6.00 Build 0)  -->
<!DOCTYPE svg PUBLIC "-//W3C//DTD SVG 1.1//EN" "http://www.w3.org/Graphics/SVG/1.1/DTD/svg11.dtd">
<svg version="1.1" id="Layer_1" xmlns="http://www.w3.org/2000/svg" xmlns:xlink="http://www.w3.org/1999/xlink" x="0px" y="0px"
	 width="512px" height="512px" viewBox="0 0 512 512" enable-background="new 0 0 512 512" xml:space="preserve">
<path fill="#010101" d="M256,0C114.625,0,0,114.625,0,256s114.625,256,256,256s256-114.625,256-256S397.375,0,256,0z M256,375.5
	c-95.391,0-149.344-119.5-149.344-119.5S160.609,136.547,256,136.547C351.375,136.547,405.312,256,405.312,256
	S351.375,375.5,256,375.5z"/>
<path fill="#010101" d="M256,213.344c23.562,0,42.656,19.094,42.656,42.656c0,23.562-19.094,42.656-42.656,42.656
	c-23.562,0-42.656-19.094-42.656-42.656C213.344,232.438,232.438,213.344,256,213.344z"/>
</svg>
