<?xml version="1.0" encoding="utf-8"?>
<!-- Generator: Adobe Illustrator 19.1.0, SVG Export Plug-In . SVG Version: 6.00 Build 0)  -->
<svg version="1.1" id="Layer_1" xmlns="http://www.w3.org/2000/svg" xmlns:xlink="http://www.w3.org/1999/xlink" x="0px" y="0px"
	 viewBox="-143 -164 512 512" style="enable-background:new -143 -164 512 512;" xml:space="preserve">
<path d="M113-164C-28.4-164-143-49.4-143,92c0,141.4,114.6,256,256,256S369,233.4,369,92C369-49.4,254.4-164,113-164z M31.9-1
	c6.7,16.8,13.4,33.7,19.9,50.1c6.6-6.3,18.9-32.1,25.6-58.7c5.4-21.4,8.8-43.3,13.2-66c43.2,17.6,62.2,55.7,77.7,96.6
	c0.8-0.1,1.6-0.3,2.4-0.4c-1.2-8.2-1.8-16.6-3.9-24.6c-2.2-8.3-5.9-16.2-7.4-25.2c7,6.1,14.8,11.5,20.9,18.5
	c32.5,37,52.9,79.6,54.7,129.4c1.7,47.2-19.2,84.5-54.6,114.1c-11.7,9.8-24.6,18.2-38.8,26c2.8-6.5,5.8-13,8.5-19.5
	c18.1-43.5,14.5-84.2-16.4-121c-2.2-2.6-4.5-5-8.5-9.2c-1.7,37-14.6,67.2-39.1,92.6c1.6-16.8,3.3-33.3,4.9-49.9
	c-1.1-0.1-2.2-0.2-3.4-0.3c-25.7,34.1-30.2,69.9-6.6,108c-28.3-16.8-55-34.1-72.1-62.2C-9,167.9-7.9,136.7,1.5,105
	c2-6.9,4.4-13.7,7.3-20.2c12.1-27,22.5-54.4,19.7-85C29.7-0.5,30.8-0.7,31.9-1z"/>
</svg>
