<?xml version="1.0" encoding="utf-8"?>
<!-- Generator: Adobe Illustrator 16.0.5, SVG Export Plug-In . SVG Version: 6.00 Build 0)  -->
<!DOCTYPE svg PUBLIC "-//W3C//DTD SVG 1.1//EN" "http://www.w3.org/Graphics/SVG/1.1/DTD/svg11.dtd">
<svg version="1.1" id="Layer_1" xmlns="http://www.w3.org/2000/svg" xmlns:xlink="http://www.w3.org/1999/xlink" x="0px" y="0px"
	 width="512px" height="512px" viewBox="0 0 512 512" enable-background="new 0 0 512 512" xml:space="preserve">
<path fill="#010101" d="M256,0C114.625,0,0,114.625,0,256c0,141.406,114.625,256,256,256s256-114.594,256-256
	C512,114.625,397.375,0,256,0z M256.703,401.438c-0.219-0.438-1.188-0.438-1.375,0c-213.219-128.25-140.031-251.906-60.953-250.469
	c2.516,0.031,5.078,0.234,7.641,0.547c31.875,3.843,46.875,21.546,53.984,36.734c7.109-15.188,22.062-32.859,53.938-36.734
	C391.688,141.594,476.75,269.062,256.703,401.438z"/>
</svg>
