<?xml version="1.0" encoding="utf-8"?>
<!-- Generator: Adobe Illustrator 25.4.1, SVG Export Plug-In . SVG Version: 6.00 Build 0)  -->
<svg version="1.1" id="Layer_1" xmlns="http://www.w3.org/2000/svg" xmlns:xlink="http://www.w3.org/1999/xlink" x="0px" y="0px"
	 viewBox="0 0 512 512" style="enable-background:new 0 0 512 512;" xml:space="preserve">
<g>
	<path d="M256,17c32.3,0,63.6,6.3,93,18.7c28.5,12,54,29.2,76,51.1c21.9,21.9,39.2,47.4,51.2,75.8c12.5,29.4,18.8,60.6,18.8,92.8
		c0,32.2-6.3,63.4-18.8,92.8c-12,28.4-29.3,53.9-51.2,75.8c-21.9,21.9-47.5,39.1-76,51.1c-29.5,12.4-60.7,18.7-93,18.7
		s-63.6-6.3-93-18.7c-28.5-12-54-29.2-76-51.1c-21.9-21.9-39.2-47.4-51.2-75.8C23.4,318.9,17,287.7,17,255.5
		c0-32.2,6.3-63.4,18.8-92.8c12-28.4,29.3-53.9,51.2-75.8C109,65,134.5,47.8,163,35.8C192.4,23.4,223.7,17,256,17 M256,0
		C114.6,0,0,114.4,0,255.5C0,396.6,114.6,511,256,511s256-114.4,256-255.5C512,114.4,397.4,0,256,0L256,0z"/>
</g>
<g>
	<polygon points="257.7,145.7 289.6,200.9 321.5,256 257.7,256 193.9,256 225.8,200.9 	"/>
	<rect x="232.3" y="255.5" width="51.4" height="64.5"/>
	<rect x="146.8" y="333" width="221.9" height="32.4"/>
</g>
</svg>
