<?xml version="1.0" encoding="utf-8"?>
<!-- Generator: Adobe Illustrator 16.0.5, SVG Export Plug-In . SVG Version: 6.00 Build 0)  -->
<!DOCTYPE svg PUBLIC "-//W3C//DTD SVG 1.1//EN" "http://www.w3.org/Graphics/SVG/1.1/DTD/svg11.dtd">
<svg version="1.1" id="Layer_1" xmlns="http://www.w3.org/2000/svg" xmlns:xlink="http://www.w3.org/1999/xlink" x="0px" y="0px"
	 width="512px" height="512px" viewBox="0 0 512 512" enable-background="new 0 0 512 512" xml:space="preserve">
<g>
	<path d="M256,17.066c131.75,0,238.934,107.184,238.934,238.934S387.75,494.934,256,494.934S17.067,387.75,17.067,256
		S124.25,17.066,256,17.066 M256,0C114.617,0,0,114.612,0,256c0,141.383,114.617,256,256,256c141.384,0,256-114.617,256-256
		C512,114.612,397.384,0,256,0L256,0z"/>
	<g>
		<polygon points="396.8,160.413 396.8,153.6 115.2,153.6 115.2,160.413 256,254.279 		"/>
		<polygon points="262.15,270.684 256,274.783 249.85,270.684 115.2,180.921 115.2,358.4 396.8,358.4 396.8,180.921 		"/>
	</g>
</g>
</svg>
