<?xml version="1.0" encoding="utf-8"?>
<!-- Generator: Adobe Illustrator 16.0.5, SVG Export Plug-In . SVG Version: 6.00 Build 0)  -->
<!DOCTYPE svg PUBLIC "-//W3C//DTD SVG 1.1//EN" "http://www.w3.org/Graphics/SVG/1.1/DTD/svg11.dtd">
<svg version="1.1" id="Layer_1" xmlns="http://www.w3.org/2000/svg" xmlns:xlink="http://www.w3.org/1999/xlink" x="0px" y="0px"
	 width="512px" height="512px" viewBox="0 0 512 512" enable-background="new 0 0 512 512" xml:space="preserve">
<g>
	<path fill="#010101" d="M256,140.797c-28.219,0-51.203,22.984-51.203,51.203v21.344h102.391V192
		C307.188,163.781,284.25,140.797,256,140.797z"/>
	<path fill="#010101" d="M256,0C114.625,0,0,114.625,0,256c0,141.406,114.625,256,256,256s256-114.594,256-256
		C512,114.625,397.375,0,256,0z M375.438,332.812c0,28.188-23,51.188-51.188,51.188h-136.5c-28.203,0-51.234-23-51.234-51.188
		v-68.266c0-22.141,14.297-41.094,34.141-48.203V192c0-47.141,38.141-85.312,85.312-85.312c47.156,0,85.375,38.172,85.375,85.312
		v24.344c19.812,7.109,34.094,26.031,34.094,48.203V332.812z"/>
</g>
</svg>
