<?xml version="1.0" encoding="utf-8"?>
<!-- Generator: Adobe Illustrator 16.0.4, SVG Export Plug-In . SVG Version: 6.00 Build 0)  -->
<!DOCTYPE svg PUBLIC "-//W3C//DTD SVG 1.1//EN" "http://www.w3.org/Graphics/SVG/1.1/DTD/svg11.dtd">
<svg version="1.1" id="Layer_1" xmlns="http://www.w3.org/2000/svg" xmlns:xlink="http://www.w3.org/1999/xlink" x="0px" y="0px"
	 width="16px" height="16px" viewBox="0 0 16 16" enable-background="new 0 0 16 16" xml:space="preserve">
<g>
	<path fill="#010101" d="M8,4.4C7.118,4.4,6.4,5.118,6.4,6v0.667H9.6V6C9.6,5.118,8.883,4.4,8,4.4z"/>
	<path fill="#010101" d="M8,0C3.582,0,0,3.582,0,8c0,4.419,3.582,8,8,8s8-3.581,8-8C16,3.582,12.418,0,8,0z M11.733,10.4
		c0,0.881-0.72,1.6-1.6,1.6H5.867c-0.881,0-1.601-0.719-1.601-1.6V8.267c0-0.692,0.447-1.284,1.067-1.506V6
		c0-1.473,1.192-2.666,2.666-2.666S10.667,4.527,10.667,6v0.761c0.619,0.222,1.066,0.813,1.066,1.506V10.4z"/>
</g>
</svg>
