<?xml version="1.0" encoding="utf-8"?>
<!-- Generator: Adobe Illustrator 16.0.4, SVG Export Plug-In . SVG Version: 6.00 Build 0)  -->
<!DOCTYPE svg PUBLIC "-//W3C//DTD SVG 1.1//EN" "http://www.w3.org/Graphics/SVG/1.1/DTD/svg11.dtd">
<svg version="1.1" id="Layer_1" xmlns="http://www.w3.org/2000/svg" xmlns:xlink="http://www.w3.org/1999/xlink" x="0px" y="0px"
	 width="16px" height="16px" viewBox="0 0 16 16" enable-background="new 0 0 16 16" xml:space="preserve">
<g>
	<path fill="#010101" d="M8,0C3.582,0,0,3.582,0,8c0,4.418,3.582,8,8,8s8-3.582,8-8C16,3.582,12.418,0,8,0z M8,15.467
		c-4.117,0-7.467-3.35-7.467-7.467S3.883,0.533,8,0.533S15.467,3.883,15.467,8S12.117,15.467,8,15.467z"/>
	<path fill="#010101" d="M10.667,6.765V6c0-1.474-1.193-2.667-2.667-2.667S5.334,4.526,5.334,6v0.765
		C4.715,6.987,4.267,7.574,4.267,8.267V10.4c0,0.879,0.72,1.6,1.601,1.6h4.267c0.88,0,1.6-0.721,1.6-1.6V8.267
		C11.733,7.574,11.285,6.987,10.667,6.765z M8,4.4c0.883,0,1.6,0.718,1.6,1.6v0.667H6.4V6C6.4,5.118,7.118,4.4,8,4.4z"/>
</g>
</svg>
