<?xml version="1.0" encoding="utf-8"?>
<!-- Generator: Adobe Illustrator 16.0.5, SVG Export Plug-In . SVG Version: 6.00 Build 0)  -->
<!DOCTYPE svg PUBLIC "-//W3C//DTD SVG 1.1//EN" "http://www.w3.org/Graphics/SVG/1.1/DTD/svg11.dtd">
<svg version="1.1" id="Layer_1" xmlns="http://www.w3.org/2000/svg" xmlns:xlink="http://www.w3.org/1999/xlink" x="0px" y="0px"
	 width="512px" height="512px" viewBox="0 0 512 512" enable-background="new 0 0 512 512" xml:space="preserve">
<g>
	<path d="M256,0C114.625,0,0,114.625,0,256s114.625,256,256,256s256-114.625,256-256S397.375,0,256,0z M382.812,203.906
		c0.094,2.625,0.155,5.25,0.155,7.906c0,80.625-61.375,173.625-173.594,173.625c-34.469,0-66.531-10.125-93.531-27.438
		c4.766,0.594,9.625,0.875,14.562,0.875c28.594,0,54.906-9.781,75.766-26.125c-26.719-0.531-49.25-18.188-56.984-42.406
		c3.703,0.72,7.516,1.095,11.453,1.095c5.562,0,10.938-0.75,16.062-2.156c-27.936-5.594-48.952-30.281-48.952-59.843
		c0-0.25,0-0.516,0-0.766c8.25,4.609,17.656,7.328,27.672,7.641c-16.375-10.938-27.172-29.625-27.172-50.781
		c0-11.188,3.016-21.656,8.266-30.656c30.109,36.906,75.031,61.219,125.781,63.75c-1.047-4.453-1.594-9.125-1.594-13.891
		c0-33.688,27.328-61.016,61.047-61.016c17.5,0,33.375,7.391,44.5,19.25c13.938-2.719,27-7.797,38.781-14.812
		c-4.594,14.25-14.219,26.219-26.844,33.766c12.344-1.469,24.125-4.766,35.062-9.609
		C405.062,184.547,394.719,195.297,382.812,203.906z"/>
</g>
</svg>
