<?xml version="1.0" encoding="utf-8"?>
<!-- Generator: Adobe Illustrator 16.0.5, SVG Export Plug-In . SVG Version: 6.00 Build 0)  -->
<!DOCTYPE svg PUBLIC "-//W3C//DTD SVG 1.1//EN" "http://www.w3.org/Graphics/SVG/1.1/DTD/svg11.dtd">
<svg version="1.1" id="Layer_1" xmlns="http://www.w3.org/2000/svg" xmlns:xlink="http://www.w3.org/1999/xlink" x="0px" y="0px"
	 width="16px" height="16px" viewBox="0 0 16 16" enable-background="new 0 0 16 16" xml:space="preserve">
<g id="g896" transform="translate(54.7051,745.3706)">
	<path id="path898" d="M-43.195-734.28c0,0-2.1-1.091-2.404,1.506c-0.64,0.08-3.652,0.771-5.174-2.996c0,0,0.464-1.105-0.48-1.506
		c0.048-0.978,0.464-5.144,4.791-3.365c0.047-0.464,0.016-0.769-0.145-1.426c0.304,0.113,1.025,0.481,1.234,1.458
		c0.192-0.225,0.353-0.657,1.458-0.833c-0.128,0.319-0.32,0.64-0.85,1.073c0.546,0.097,1.395,0.097,1.875,0.337
		c-0.354,0.24-0.577,0.175-1.442,0.4c0.722,0.401,1.586,0.305,2.179,1.939c-0.176,0.208-0.207,0.187-0.334,0.448
		c-0.012,0.05-0.082,0.272,0.078,0.658c0.141,0.336,0.305,0.383,0.178,0.801C-42.393-735.272-42.875-734.52-43.195-734.28"/>
</g>
</svg>
