<?xml version="1.0" encoding="utf-8"?>
<!-- Generator: Adobe Illustrator 16.0.5, SVG Export Plug-In . SVG Version: 6.00 Build 0)  -->
<!DOCTYPE svg PUBLIC "-//W3C//DTD SVG 1.1//EN" "http://www.w3.org/Graphics/SVG/1.1/DTD/svg11.dtd">
<svg version="1.1" id="Layer_1" xmlns="http://www.w3.org/2000/svg" xmlns:xlink="http://www.w3.org/1999/xlink" x="0px" y="0px"
	 width="512px" height="512px" viewBox="0 0 512 512" enable-background="new 0 0 512 512" xml:space="preserve">
<g>
	<g>
		<path d="M85.8,186.212c12.117,0.062,24.233,0.054,36.351,0.017c-0.034,46.237-0.075,92.471,0.033,138.704
			c-12.134,0.051-24.267,0.051-36.4,0.033C85.892,278.7,85.867,232.467,85.8,186.212z"/>
		<path d="M134.217,186.325c15.667,0.062,31.325-0.025,46.983,0.054c1.642,10.138,3.333,20.263,4.333,30.488
			c1.742,11.058,3.2,22.175,5,33.212c3.067-21.184,5.184-42.517,8.208-63.708c15.8,0,31.575-0.055,47.367,0.024
			c-0.125,46.167-0.05,92.321-0.05,138.496c-10.6,0-21.184,0.06-31.767-0.032c0.167-26.518-0.125-53.066-0.017-79.583
			c0.191-4.137,0.175-8.258-0.142-12.379c-1.459,6.226-1.233,12.68-2.384,18.955c-3.308,24.325-6.875,48.633-9.808,73.008
			c-7.467,0.074-14.942,0.125-22.392,0c-0.899-0.968-0.616-2.56-0.95-3.783c-3.9-28.742-8.425-57.426-12.367-86.175
			c-0.483,4.062,0.059,8.138-0.017,12.217c-0.075,25.925-0.092,51.841-0.117,77.774c-10.633,0.018-21.267,0.075-31.908-0.017
			C134.309,278.684,134.233,232.508,134.217,186.325z"/>
		<g>
			<path d="M258.1,186.316c14.668,0.108,29.334-0.191,44,0.229c8.435,0.237,17.25,1,24.734,5.225
				c7.232,3.983,11.883,11.909,12.508,20.062c1.275,12.959,0.758,26.025,0.858,39.034c-0.125,14.875,0.25,29.766-0.267,44.649
				c-0.476,7.385-0.668,15.825-6.26,21.417c-5.566,6.208-14.408,7.666-22.341,7.75c-17.742,0.509-35.509,0.143-53.269,0.226
				C258.158,278.7,258.125,232.508,258.1,186.316z M294.482,210.008c-0.232,30.321-0.032,60.643-0.1,90.95
				c3.149-0.351,7.083-0.226,9.25-3c1.533-4.366,1.475-9.083,1.684-13.642c0.018-20.783,0.018-41.55,0-62.312
				c-0.268-3.421,0.301-7.542-2.366-10.188C300.492,210.096,297.316,210.342,294.482,210.008z"/>
		</g>
		<g>
			<path d="M351.95,186.229c11.717,0.045,23.434,0.037,35.157-0.009c-0.207,14.987,0.191,29.979-0.232,44.954
				c2.834-3.017,5.992-5.866,9.809-7.533c7.5-2.638,15.851-3.108,23.476-0.725c5.607,1.454,10.25,5.858,12.375,11.188
				c1.482,4.5,1.226,9.295,1.351,13.966c0.05,15.497,0.066,30.962,0.018,46.429c0.017,5.967-0.385,11.925-1.602,17.75
				c-1.7,4.892-5.583,8.733-9.883,11.434c-11.617,6.083-27.607,3.351-35.518-7.449c-0.416,2.925-1.226,5.75-1.875,8.642
				c-11.051,0.208-22.074,0.092-33.125,0.059C352.075,278.684,351.982,232.467,351.95,186.229z M389.9,241.95
				c-2.95,1.45-2.51,5.217-2.783,7.971c-0.158,13.646-0.025,27.296-0.059,40.954c0.092,4.066-0.158,8.175,0.732,12.15
				c0.833,5.208,10.667,4.208,10.558-1.067c1.144-14.524,0.31-29.108,0.584-43.671c0.018-4.375,0-8.82-0.866-13.116
				C397.233,241.592,392.809,241.487,389.9,241.95z"/>
		</g>
	</g>
</g>
</svg>
