<?xml version="1.0" encoding="utf-8"?>
<!-- Generator: Adobe Illustrator 16.0.5, SVG Export Plug-In . SVG Version: 6.00 Build 0)  -->
<!DOCTYPE svg PUBLIC "-//W3C//DTD SVG 1.1//EN" "http://www.w3.org/Graphics/SVG/1.1/DTD/svg11.dtd">
<svg version="1.1" id="Layer_1" xmlns="http://www.w3.org/2000/svg" xmlns:xlink="http://www.w3.org/1999/xlink" x="0px" y="0px"
	 width="512px" height="512px" viewBox="0 0 512 512" enable-background="new 0 0 512 512" xml:space="preserve">
<g>
	<path d="M294.483,210.008c-0.233,30.321-0.033,60.642-0.101,90.95c3.15-0.35,7.084-0.225,9.25-3
		c1.534-4.366,1.476-9.083,1.684-13.642c0.017-20.783,0.017-41.55,0-62.312c-0.267-3.421,0.301-7.542-2.366-10.188
		C300.492,210.096,297.316,210.342,294.483,210.008z"/>
	<path d="M398.934,258.283c0.017-4.367,0-8.816-0.867-13.112c-0.833-3.579-5.258-3.684-8.166-3.221
		c-2.95,1.45-2.509,5.216-2.783,7.971c-0.159,13.646-0.025,27.296-0.059,40.954c0.092,4.066-0.158,8.175,0.733,12.15
		c0.833,5.208,10.666,4.208,10.558-1.067C399.492,287.434,398.658,272.85,398.934,258.283z"/>
	<path d="M256,0C114.617,0,0,114.612,0,256c0,141.383,114.617,256,256,256c141.383,0,256-114.617,256-256
		C512,114.612,397.383,0,256,0z M85.783,324.967c0.108-46.267,0.083-92.5,0.017-138.754c12.117,0.062,24.233,0.054,36.35,0.017
		c-0.033,46.238-0.075,92.471,0.034,138.705C110.05,324.983,97.917,324.983,85.783,324.967z M246.059,324.892
		c-10.601,0-21.184,0.059-31.767-0.033c0.166-26.517-0.125-53.067-0.017-79.583c0.192-4.137,0.175-8.258-0.142-12.379
		c-1.458,6.225-1.233,12.68-2.383,18.954c-3.309,24.325-6.875,48.634-9.809,73.009c-7.466,0.075-14.941,0.125-22.392,0
		c-0.9-0.967-0.616-2.559-0.95-3.783c-3.9-28.742-8.425-57.425-12.367-86.175c-0.483,4.062,0.059,8.137-0.017,12.216
		c-0.075,25.925-0.092,51.842-0.117,77.775c-10.633,0.017-21.267,0.075-31.909-0.017c0.117-46.191,0.042-92.367,0.025-138.55
		c15.667,0.062,31.325-0.025,46.983,0.054c1.642,10.138,3.333,20.263,4.333,30.487c1.742,11.059,3.2,22.175,5,33.213
		c3.067-21.184,5.184-42.517,8.208-63.708c15.8,0,31.575-0.054,47.367,0.025C245.983,232.562,246.059,278.717,246.059,324.892z
		 M339.934,295.517c-0.476,7.384-0.667,15.825-6.259,21.417c-5.566,6.208-14.408,7.666-22.342,7.75
		c-17.741,0.508-35.508,0.142-53.267,0.225c0.092-46.208,0.059-92.4,0.033-138.592c14.667,0.108,29.334-0.191,44,0.229
		c8.434,0.237,17.25,1,24.733,5.225c7.233,3.983,11.884,11.908,12.509,20.062c1.275,12.958,0.758,26.025,0.858,39.033
		C340.075,265.741,340.45,280.633,339.934,295.517z M432.3,312.25c-1.7,4.892-5.583,8.733-9.883,11.434
		c-11.617,6.083-27.608,3.35-35.517-7.45c-0.417,2.925-1.226,5.75-1.875,8.642c-11.051,0.208-22.075,0.092-33.125,0.059
		c0.175-46.25,0.083-92.467,0.05-138.705c11.717,0.046,23.433,0.038,35.158-0.008c-0.208,14.987,0.191,29.979-0.233,44.954
		c2.833-3.017,5.992-5.867,9.809-7.533c7.5-2.638,15.85-3.108,23.475-0.725c5.608,1.454,10.25,5.858,12.375,11.188
		c1.483,4.5,1.225,9.296,1.35,13.967c0.051,15.496,0.067,30.962,0.018,46.429C433.917,300.467,433.517,306.425,432.3,312.25z"/>
</g>
</svg>
