<?xml version="1.0" encoding="utf-8"?>
<!-- Generator: Adobe Illustrator 16.0.5, SVG Export Plug-In . SVG Version: 6.00 Build 0)  -->
<!DOCTYPE svg PUBLIC "-//W3C//DTD SVG 1.1//EN" "http://www.w3.org/Graphics/SVG/1.1/DTD/svg11.dtd">
<svg version="1.1" id="Layer_1" xmlns="http://www.w3.org/2000/svg" xmlns:xlink="http://www.w3.org/1999/xlink" x="0px" y="0px"
	 width="512px" height="512px" viewBox="0 0 512 512" enable-background="new 0 0 512 512" xml:space="preserve">
<g>
	<path d="M256,0C114.625,0,0,114.625,0,256s114.625,256,256,256s256-114.625,256-256S397.375,0,256,0z M393.406,281.062
		c4.531,10.78,9.781,12.28,5.656,25.655c-5.062,16.47-20.5,40.531-30.781,48.188c0,0-67.156-34.875-76.906,48.219
		c-20.5,2.531-116.875,24.625-165.578-95.875c0,0,14.844-35.375-15.359-48.203c1.5-31.297,14.812-164.609,153.25-107.719
		c1.531-14.844,0.531-24.609-4.578-45.625c9.688,3.609,32.767,15.391,39.453,46.688c6.125-7.203,11.312-21.031,46.656-26.656
		c-4.094,10.203-10.281,20.469-27.156,34.328c17.438,3.109,44.594,3.109,59.938,10.781c-11.281,7.688-18.438,5.609-46.125,12.812
		c23.094,12.828,50.75,9.75,69.719,62.047c-5.625,6.641-6.656,5.984-10.719,14.328C390.531,261.625,388.281,268.734,393.406,281.062
		z"/>
</g>
</svg>
