<?xml version="1.0" encoding="utf-8"?>
<!-- Generator: Adobe Illustrator 16.0.5, SVG Export Plug-In . SVG Version: 6.00 Build 0)  -->
<!DOCTYPE svg PUBLIC "-//W3C//DTD SVG 1.1//EN" "http://www.w3.org/Graphics/SVG/1.1/DTD/svg11.dtd">
<svg version="1.1" id="Layer_1" xmlns="http://www.w3.org/2000/svg" xmlns:xlink="http://www.w3.org/1999/xlink" x="0px" y="0px"
	 width="16px" height="16px" viewBox="0 0 16 16" enable-background="new 0 0 16 16" xml:space="preserve">
<g>
	<path d="M8,0C3.582,0,0,3.582,0,8c0,4.418,3.582,8,8,8c4.418,0,8-3.582,8-8C16,3.582,12.418,0,8,0z M12.294,8.783
		c0.141,0.337,0.305,0.384,0.177,0.802c-0.158,0.514-0.641,1.266-0.962,1.506c0,0-2.099-1.09-2.403,1.506
		c-0.641,0.08-3.653,0.77-5.175-2.996c0,0,0.464-1.105-0.48-1.506C3.498,7.117,3.914,2.951,8.24,4.729
		C8.288,4.265,8.257,3.96,8.097,3.303C8.4,3.416,9.121,3.784,9.33,4.762c0.192-0.225,0.353-0.657,1.458-0.833
		c-0.128,0.319-0.321,0.64-0.849,1.073c0.545,0.097,1.394,0.097,1.874,0.337c-0.353,0.24-0.577,0.175-1.442,0.4
		c0.722,0.401,1.586,0.305,2.179,1.939c-0.176,0.208-0.208,0.187-0.335,0.448C12.204,8.176,12.134,8.398,12.294,8.783z"/>
</g>
</svg>
