<?xml version="1.0" encoding="utf-8"?>
<!-- Generator: Adobe Illustrator 16.0.5, SVG Export Plug-In . SVG Version: 6.00 Build 0)  -->
<!DOCTYPE svg PUBLIC "-//W3C//DTD SVG 1.1//EN" "http://www.w3.org/Graphics/SVG/1.1/DTD/svg11.dtd">
<svg version="1.1" id="Layer_1" xmlns="http://www.w3.org/2000/svg" xmlns:xlink="http://www.w3.org/1999/xlink" x="0px" y="0px"
	 width="512px" height="512px" viewBox="0 0 512 512" enable-background="new 0 0 512 512" xml:space="preserve">
<g>
	<path d="M256,17.062c131.75,0,238.938,107.188,238.938,238.938S387.75,494.938,256,494.938S17.062,387.75,17.062,256
		S124.25,17.062,256,17.062 M256,0C114.625,0,0,114.625,0,256s114.625,256,256,256s256-114.625,256-256S397.375,0,256,0L256,0z"/>
	<g id="g896" transform="translate(54.7051,745.3706)">
		<path id="path898" d="M313.607-390.464c0,0-67.188-34.906-76.938,48.188c-20.483,2.562-116.875,24.655-165.578-95.875
			c0,0,14.844-35.359-15.359-48.188c1.531-31.297,14.844-164.608,153.312-107.688c1.5-14.844,0.517-24.609-4.642-45.625
			c9.72,3.609,32.798,15.391,39.484,46.656c6.156-7.203,11.281-21.031,46.656-26.656c-4.094,10.203-10.25,20.469-27.188,34.328
			c17.469,3.109,44.625,3.109,60,10.781c-11.312,7.688-18.469,5.609-46.156,12.812c23.094,12.828,50.75,9.75,69.719,62.047
			c-5.625,6.656-6.625,5.984-10.688,14.328c-0.375,1.608-2.625,8.703,2.5,21.047c4.5,10.75,9.75,12.25,5.688,25.625
			C339.295-422.214,323.857-398.152,313.607-390.464"/>
	</g>
</g>
</svg>
