<?xml version="1.0" encoding="utf-8"?>
<!-- Generator: Adobe Illustrator 16.0.5, SVG Export Plug-In . SVG Version: 6.00 Build 0)  -->
<!DOCTYPE svg PUBLIC "-//W3C//DTD SVG 1.1//EN" "http://www.w3.org/Graphics/SVG/1.1/DTD/svg11.dtd">
<svg version="1.1" id="Layer_1" xmlns="http://www.w3.org/2000/svg" xmlns:xlink="http://www.w3.org/1999/xlink" x="0px" y="0px"
	 width="16px" height="16px" viewBox="0 0 16 16" enable-background="new 0 0 16 16" xml:space="preserve">
<g>
	<g>
		<path d="M8,16c-4.411,0-8-3.589-8-8s3.589-8,8-8s8,3.589,8,8S12.411,16,8,16z M8,0.516C3.874,0.516,0.516,3.874,0.516,8
			c0,4.127,3.357,7.483,7.484,7.483c4.127,0,7.483-3.356,7.483-7.483C15.483,3.874,12.127,0.516,8,0.516z"/>
	</g>
	<g>
		<g>
			<rect x="2.853" y="5.89" width="1.081" height="4.16"/>
		</g>
		<g>
			<path d="M7.706,5.89v4.16H6.764L6.759,7.241L6.383,10.05H5.708L5.315,7.301L5.311,10.05H4.368V5.89h1.398
				c0.037,0.252,0.08,0.548,0.129,0.886L6.05,7.833L6.299,5.89H7.706z"/>
		</g>
		<g>
			<path d="M9.219,6.599v2.742c0.153,0,0.248-0.031,0.284-0.095c0.035-0.062,0.053-0.232,0.053-0.51v-1.62
				c0-0.189-0.006-0.31-0.018-0.363C9.525,6.7,9.499,6.661,9.457,6.636S9.335,6.599,9.219,6.599 M8.138,5.89h0.807
				c0.521,0,0.874,0.024,1.059,0.072c0.184,0.048,0.323,0.127,0.419,0.236c0.096,0.11,0.155,0.231,0.179,0.367
				c0.024,0.134,0.037,0.398,0.037,0.792v1.457c0,0.374-0.019,0.623-0.053,0.749c-0.035,0.126-0.097,0.225-0.184,0.296
				c-0.088,0.071-0.195,0.121-0.323,0.149S9.757,10.05,9.499,10.05H8.138V5.89L8.138,5.89z"/>
		</g>
		<g>
			<path d="M12.367,7.612c0-0.176-0.011-0.29-0.034-0.344c-0.022-0.054-0.065-0.081-0.132-0.081c-0.064,0-0.106,0.023-0.125,0.07
				c-0.02,0.047-0.028,0.166-0.028,0.355v1.465c0,0.183,0.011,0.3,0.032,0.351c0.021,0.052,0.064,0.077,0.129,0.077
				c0.065,0,0.108-0.026,0.128-0.079c0.021-0.054,0.03-0.181,0.03-0.383V7.612L12.367,7.612z M12.048,5.89v0.99
				c0.086-0.1,0.182-0.175,0.286-0.225c0.106-0.049,0.222-0.074,0.345-0.074c0.143,0,0.266,0.022,0.371,0.066
				c0.104,0.045,0.185,0.107,0.239,0.188c0.055,0.081,0.088,0.16,0.1,0.236c0.011,0.077,0.017,0.241,0.017,0.493v1.534
				c0,0.25-0.017,0.437-0.051,0.559c-0.033,0.122-0.112,0.229-0.235,0.318c-0.124,0.09-0.271,0.135-0.441,0.135
				c-0.122,0-0.236-0.026-0.342-0.08c-0.106-0.054-0.203-0.134-0.291-0.24l-0.066,0.26H11.01V5.89H12.048z"/>
		</g>
	</g>
</g>
</svg>
