<?xml version="1.0" encoding="utf-8"?>
<!-- Generator: Adobe Illustrator 16.0.5, SVG Export Plug-In . SVG Version: 6.00 Build 0)  -->
<!DOCTYPE svg PUBLIC "-//W3C//DTD SVG 1.1//EN" "http://www.w3.org/Graphics/SVG/1.1/DTD/svg11.dtd">
<svg version="1.1" id="Layer_1" xmlns="http://www.w3.org/2000/svg" xmlns:xlink="http://www.w3.org/1999/xlink" x="0px" y="0px"
	 width="16px" height="16px" viewBox="0 0 16 16" enable-background="new 0 0 16 16" xml:space="preserve">
<g>
	<path d="M12.341,7.16c-0.066,0-0.109,0.024-0.129,0.073s-0.029,0.171-0.029,0.366v1.515c0,0.188,0.011,0.31,0.033,0.362
		c0.022,0.054,0.066,0.079,0.133,0.079c0.068,0,0.112-0.027,0.133-0.081c0.021-0.056,0.031-0.187,0.031-0.396V7.599
		c0-0.181-0.012-0.299-0.035-0.355C12.455,7.188,12.409,7.16,12.341,7.16z"/>
	<path d="M8,0C3.582,0,0,3.582,0,8c0,4.418,3.582,8,8,8c4.418,0,8-3.582,8-8C16,3.582,12.418,0,8,0z M3.798,10.118H2.681V5.819
		h1.117V10.118z M7.696,10.118H6.722L6.718,7.216L6.33,10.118H5.632l-0.406-2.84l-0.004,2.84H4.247V5.819h1.445
		C5.73,6.081,5.774,6.386,5.826,6.735l0.159,1.092l0.257-2.008h1.455V10.118z M10.726,8.841c0,0.387-0.02,0.644-0.055,0.774
		c-0.036,0.13-0.1,0.231-0.189,0.305c-0.091,0.074-0.202,0.125-0.334,0.154c-0.133,0.029-0.332,0.044-0.599,0.044H8.142V5.819h0.835
		c0.538,0,0.903,0.025,1.093,0.074s0.334,0.131,0.434,0.244c0.098,0.114,0.16,0.239,0.185,0.379
		c0.025,0.139,0.038,0.412,0.038,0.818V8.841z M13.585,9.136c0,0.258-0.017,0.45-0.052,0.577c-0.034,0.126-0.116,0.236-0.243,0.329
		c-0.129,0.093-0.28,0.139-0.456,0.139c-0.127,0-0.244-0.027-0.354-0.083c-0.11-0.056-0.21-0.139-0.3-0.248l-0.069,0.269H11.11
		V5.819h1.072v1.023c0.089-0.104,0.188-0.181,0.296-0.232c0.11-0.051,0.229-0.076,0.356-0.076c0.146,0,0.274,0.023,0.383,0.069
		c0.108,0.046,0.191,0.111,0.248,0.194s0.091,0.165,0.103,0.244s0.017,0.249,0.017,0.509V9.136z"/>
	<path d="M9.505,6.591C9.462,6.565,9.38,6.552,9.259,6.552v2.833c0.159,0,0.258-0.032,0.294-0.098
		c0.036-0.064,0.055-0.24,0.055-0.527V7.087c0-0.195-0.006-0.32-0.019-0.375C9.576,6.657,9.549,6.616,9.505,6.591z"/>
</g>
</svg>
