<?xml version="1.0" encoding="utf-8"?>
<!-- Generator: Adobe Illustrator 16.0.5, SVG Export Plug-In . SVG Version: 6.00 Build 0)  -->
<!DOCTYPE svg PUBLIC "-//W3C//DTD SVG 1.1//EN" "http://www.w3.org/Graphics/SVG/1.1/DTD/svg11.dtd">
<svg version="1.1" id="Layer_1" xmlns="http://www.w3.org/2000/svg" xmlns:xlink="http://www.w3.org/1999/xlink" x="0px" y="0px"
	 width="16px" height="16px" viewBox="0 0 16 16" enable-background="new 0 0 16 16" xml:space="preserve">
<g>
	<path d="M8,0.533c4.117,0,7.467,3.35,7.467,7.467S12.117,15.467,8,15.467S0.533,12.117,0.533,8S3.883,0.533,8,0.533 M8,0
		C3.582,0,0,3.582,0,8c0,4.418,3.582,8,8,8c4.418,0,8-3.582,8-8C16,3.582,12.418,0,8,0L8,0z"/>
	<path d="M12.914,5.384c-0.342,0.151-0.71,0.254-1.096,0.3c0.395-0.236,0.696-0.61,0.839-1.055
		c-0.368,0.219-0.776,0.377-1.211,0.463c-0.348-0.371-0.844-0.602-1.392-0.602c-1.054,0-1.907,0.854-1.907,1.907
		c0,0.149,0.017,0.295,0.049,0.434c-1.585-0.079-2.989-0.838-3.93-1.992C4.102,5.121,4.008,5.448,4.008,5.798
		c0,0.662,0.337,1.245,0.849,1.587C4.544,7.375,4.25,7.29,3.993,7.146c0,0.008,0,0.016,0,0.024c0,0.924,0.657,1.695,1.53,1.87
		C5.362,9.084,5.194,9.107,5.02,9.107c-0.123,0-0.242-0.013-0.358-0.034c0.242,0.757,0.947,1.309,1.781,1.324
		c-0.652,0.511-1.475,0.816-2.368,0.816c-0.154,0-0.306-0.01-0.455-0.027c0.844,0.541,1.847,0.857,2.923,0.857
		c3.507,0,5.425-2.906,5.425-5.426c0-0.083-0.002-0.165-0.005-0.247C12.335,6.103,12.658,5.767,12.914,5.384z"/>
</g>
</svg>
