<?xml version="1.0" encoding="utf-8"?>
<!-- Generator: Adobe Illustrator 16.0.5, SVG Export Plug-In . SVG Version: 6.00 Build 0)  -->
<!DOCTYPE svg PUBLIC "-//W3C//DTD SVG 1.1//EN" "http://www.w3.org/Graphics/SVG/1.1/DTD/svg11.dtd">
<svg version="1.1" id="Layer_1" xmlns="http://www.w3.org/2000/svg" xmlns:xlink="http://www.w3.org/1999/xlink" x="0px" y="0px"
	 width="512px" height="512px" viewBox="0 0 512 512" enable-background="new 0 0 512 512" xml:space="preserve">
<g>
	<path d="M256,17.062c131.75,0,238.938,107.188,238.938,238.938S387.75,494.938,256,494.938S17.062,387.75,17.062,256
		S124.25,17.062,256,17.062 M256,0C114.625,0,0,114.625,0,256s114.625,256,256,256s256-114.625,256-256S397.375,0,256,0L256,0z"/>
	<path d="M413.25,172.281c-10.938,4.844-22.719,8.141-35.062,9.609c12.625-7.547,22.25-19.516,26.845-33.766
		c-11.781,7.016-24.845,12.062-38.781,14.812c-11.125-11.859-27-19.25-44.5-19.25C288,143.688,260.703,171,260.703,204.703
		c0,4.766,0.547,9.438,1.562,13.891c-50.72-2.531-95.642-26.812-125.75-63.75c-5.25,9.031-8.266,19.5-8.266,30.688
		c0,21.188,10.797,39.844,27.172,50.781c-10.015-0.313-19.421-3.032-27.64-7.641c0,0.25,0,0.516,0,0.766
		c0,29.562,21.016,54.25,48.953,59.844c-5.156,1.405-10.531,2.155-16.094,2.155c-3.938,0-7.75-0.438-11.453-1.094
		c7.734,24.219,30.297,41.875,56.984,42.344c-20.859,16.375-47.203,26.125-75.766,26.125c-4.938,0-9.797-0.312-14.562-0.875
		c27,17.312,59.094,27.438,93.531,27.438c112.219,0,173.594-93,173.594-173.625c0-2.656-0.062-5.281-0.155-7.906
		C394.719,195.297,405.062,184.547,413.25,172.281z"/>
</g>
</svg>
