<?xml version="1.0" encoding="utf-8"?>
<!-- Generator: Adobe Illustrator 16.0.5, SVG Export Plug-In . SVG Version: 6.00 Build 0)  -->
<!DOCTYPE svg PUBLIC "-//W3C//DTD SVG 1.1//EN" "http://www.w3.org/Graphics/SVG/1.1/DTD/svg11.dtd">
<svg version="1.1" id="Layer_1" xmlns="http://www.w3.org/2000/svg" xmlns:xlink="http://www.w3.org/1999/xlink" x="0px" y="0px"
	 width="16px" height="16px" viewBox="0 0 16 16" enable-background="new 0 0 16 16" xml:space="preserve">
<g>
	<path d="M8,0C3.582,0,0,3.582,0,8c0,4.418,3.582,8,8,8c4.418,0,8-3.582,8-8C16,3.582,12.418,0,8,0z M11.963,6.372
		c0.003,0.082,0.005,0.164,0.005,0.247c0,2.52-1.918,5.426-5.425,5.426c-1.077,0-2.079-0.316-2.923-0.857
		c0.149,0.018,0.301,0.027,0.455,0.027c0.894,0,1.716-0.306,2.368-0.816C5.608,10.382,4.904,9.83,4.662,9.073
		C4.778,9.095,4.897,9.107,5.02,9.107c0.174,0,0.342-0.023,0.502-0.067c-0.873-0.175-1.53-0.946-1.53-1.87c0-0.008,0-0.016,0-0.024
		C4.25,7.29,4.544,7.375,4.857,7.385C4.345,7.043,4.008,6.459,4.008,5.798c0-0.35,0.094-0.677,0.258-0.958
		c0.941,1.153,2.345,1.913,3.931,1.992c-0.033-0.139-0.05-0.285-0.05-0.434c0-1.053,0.854-1.907,1.907-1.907
		c0.548,0,1.044,0.231,1.392,0.602c0.435-0.085,0.843-0.244,1.211-0.463c-0.143,0.445-0.444,0.819-0.839,1.055
		c0.386-0.046,0.754-0.149,1.096-0.3C12.658,5.767,12.335,6.103,11.963,6.372z"/>
</g>
</svg>
