<?xml version="1.0" encoding="utf-8"?>
<!-- Generator: Adobe Illustrator 16.0.5, SVG Export Plug-In . SVG Version: 6.00 Build 0)  -->
<!DOCTYPE svg PUBLIC "-//W3C//DTD SVG 1.1//EN" "http://www.w3.org/Graphics/SVG/1.1/DTD/svg11.dtd">
<svg version="1.1" id="Layer_1" xmlns="http://www.w3.org/2000/svg" xmlns:xlink="http://www.w3.org/1999/xlink" x="0px" y="0px"
	 width="16px" height="16px" viewBox="0 0 16 16" enable-background="new 0 0 16 16" xml:space="preserve">
<path d="M12.914,5.384c-0.342,0.151-0.71,0.254-1.096,0.3c0.395-0.236,0.695-0.61,0.839-1.055c-0.368,0.219-0.776,0.377-1.212,0.463
	c-0.348-0.371-0.844-0.602-1.391-0.602C9,4.49,8.147,5.344,8.147,6.397c0,0.149,0.017,0.295,0.049,0.434
	c-1.585-0.079-2.989-0.838-3.93-1.992C4.102,5.121,4.008,5.448,4.008,5.798c0,0.662,0.337,1.245,0.849,1.587
	C4.544,7.375,4.25,7.29,3.993,7.146c0,0.008,0,0.016,0,0.024c0,0.924,0.657,1.695,1.53,1.87C5.362,9.084,5.194,9.107,5.02,9.107
	c-0.123,0-0.242-0.014-0.358-0.034c0.242,0.757,0.947,1.309,1.781,1.323c-0.652,0.512-1.475,0.816-2.368,0.816
	c-0.154,0-0.306-0.01-0.455-0.027c0.844,0.541,1.847,0.857,2.923,0.857c3.507,0,5.425-2.906,5.425-5.426
	c0-0.083-0.002-0.165-0.005-0.247C12.335,6.103,12.658,5.767,12.914,5.384z"/>
</svg>
