<?xml version="1.0" encoding="utf-8"?>
<!-- Generator: Adobe Illustrator 16.0.4, SVG Export Plug-In . SVG Version: 6.00 Build 0)  -->
<!DOCTYPE svg PUBLIC "-//W3C//DTD SVG 1.1//EN" "http://www.w3.org/Graphics/SVG/1.1/DTD/svg11.dtd">
<svg version="1.1" id="Layer_1" xmlns="http://www.w3.org/2000/svg" xmlns:xlink="http://www.w3.org/1999/xlink" x="0px" y="0px"
	 width="16px" height="16px" viewBox="0 0 16 16" enable-background="new 0 0 16 16" xml:space="preserve">
<path fill="#010101" d="M11.114,7.466c0-2.061-1.671-3.732-3.733-3.732S3.647,5.405,3.647,7.466c0,2.062,1.671,3.733,3.733,3.733
	c0.616,0,1.196-0.152,1.709-0.416l1.67,1.67l1.508-1.508l-1.641-1.641C10.936,8.762,11.114,8.135,11.114,7.466z M7.381,9.866
	c-1.323,0-2.399-1.076-2.399-2.4c0-1.323,1.076-2.399,2.399-2.399s2.4,1.076,2.4,2.399C9.781,8.79,8.704,9.866,7.381,9.866z"/>
</svg>
