<?xml version="1.0" encoding="utf-8"?>
<!-- Generator: Adobe Illustrator 16.0.4, SVG Export Plug-In . SVG Version: 6.00 Build 0)  -->
<!DOCTYPE svg PUBLIC "-//W3C//DTD SVG 1.1//EN" "http://www.w3.org/Graphics/SVG/1.1/DTD/svg11.dtd">
<svg version="1.1" id="Layer_1" xmlns="http://www.w3.org/2000/svg" xmlns:xlink="http://www.w3.org/1999/xlink" x="0px" y="0px"
	 width="16px" height="16px" viewBox="0 0 16 16" enable-background="new 0 0 16 16" xml:space="preserve">
<g>
	<circle fill="#010101" cx="7.467" cy="7.467" r="2.4"/>
	<path fill="#010101" d="M8,0C3.582,0,0,3.582,0,8s3.582,8,8,8s8-3.582,8-8S12.418,0,8,0z M10.846,12.455l-1.671-1.672
		c-0.512,0.266-1.092,0.418-1.708,0.418c-2.062,0-3.733-1.674-3.733-3.734s1.671-3.733,3.733-3.733S11.2,5.406,11.2,7.467
		c0,0.669-0.179,1.295-0.487,1.838l1.641,1.641L10.846,12.455z"/>
</g>
</svg>
