<?xml version="1.0" encoding="utf-8"?>
<!-- Generator: Adobe Illustrator 16.0.5, SVG Export Plug-In . SVG Version: 6.00 Build 0)  -->
<!DOCTYPE svg PUBLIC "-//W3C//DTD SVG 1.1//EN" "http://www.w3.org/Graphics/SVG/1.1/DTD/svg11.dtd">
<svg version="1.1" id="Layer_1" xmlns="http://www.w3.org/2000/svg" xmlns:xlink="http://www.w3.org/1999/xlink" x="0px" y="0px"
	 width="512px" height="512px" viewBox="0 0 512 512" enable-background="new 0 0 512 512" xml:space="preserve">
<g>
	<path fill="#010101" d="M256,0C114.625,0,0,114.625,0,256s114.625,256,256,256s256-114.625,256-256S397.375,0,256,0z M256,494.938
		C124.25,494.938,17.062,387.75,17.062,256S124.25,17.062,256,17.062S494.938,124.25,494.938,256S387.75,494.938,256,494.938z"/>
	<path fill="#010101" d="M358.406,238.938c0-65.938-53.469-119.453-119.469-119.453c-65.984,0-119.484,53.516-119.484,119.453
		s53.469,119.468,119.453,119.468c19.719,0,38.281-4.875,54.656-13.344l53.5,53.5l48.25-48.312l-52.531-52.5
		C352.688,280.375,358.406,260.344,358.406,238.938z M238.938,315.75c-42.359,0-76.797-34.469-76.797-76.812
		c0-42.359,34.438-76.797,76.797-76.797c42.344,0,76.812,34.438,76.812,76.797C315.75,281.281,281.281,315.75,238.938,315.75z"/>
</g>
</svg>
