<?xml version="1.0" encoding="utf-8"?>
<!-- Generator: Adobe Illustrator 16.0.5, SVG Export Plug-In . SVG Version: 6.00 Build 0)  -->
<!DOCTYPE svg PUBLIC "-//W3C//DTD SVG 1.1//EN" "http://www.w3.org/Graphics/SVG/1.1/DTD/svg11.dtd">
<svg version="1.1" id="Layer_1" xmlns="http://www.w3.org/2000/svg" xmlns:xlink="http://www.w3.org/1999/xlink" x="0px" y="0px"
	 width="512px" height="512px" viewBox="0 0 512 512" enable-background="new 0 0 512 512" xml:space="preserve">
<g>
	<path fill="#010101" d="M238.938,162.141c42.438,0,76.812,34.391,76.812,76.797c0,42.438-34.375,76.812-76.812,76.812
		c-42.406,0-76.797-34.375-76.797-76.812C162.141,196.531,196.531,162.141,238.938,162.141z"/>
	<path fill="#010101" d="M256,0C114.625,0,0,114.625,0,256s114.625,256,256,256s256-114.625,256-256S397.375,0,256,0z
		 M347.062,398.562l-53.47-53.5c-16.375,8.5-34.938,13.375-54.656,13.375c-65.984,0-119.453-53.562-119.453-119.5
		c0-65.906,53.469-119.453,119.453-119.453c66,0,119.469,53.516,119.469,119.453c0,21.406-5.719,41.438-15.594,58.812l52.5,52.5
		L347.062,398.562z"/>
</g>
</svg>
