<?xml version="1.0" encoding="utf-8"?>
<!-- Generator: Adobe Illustrator 16.0.5, SVG Export Plug-In . SVG Version: 6.00 Build 0)  -->
<!DOCTYPE svg PUBLIC "-//W3C//DTD SVG 1.1//EN" "http://www.w3.org/Graphics/SVG/1.1/DTD/svg11.dtd">
<svg version="1.1" id="Layer_1" xmlns="http://www.w3.org/2000/svg" xmlns:xlink="http://www.w3.org/1999/xlink" x="0px" y="0px"
	 width="512px" height="512px" viewBox="0 0 512 512" enable-background="new 0 0 512 512" xml:space="preserve">
<g>
	<polygon fill="#010101" points="360.188,203.969 374.25,175.719 344.312,165.656 346.5,134.203 315,136.344 305,106.469 
		276.75,120.484 256,96.703 235.266,120.484 207,106.469 196.953,136.344 165.469,134.203 167.641,165.656 137.734,175.719 
		151.781,203.969 128,224.703 151.781,245.438 137.734,273.688 167.641,283.75 165.469,315.25 196.953,313.062 197.312,314.125 
		164.359,404.688 195.75,394.062 213,422.406 243.547,338.438 256,352.688 268.453,338.438 299,422.406 316.25,394.062 
		347.625,404.688 314.688,314.125 315,313.062 346.5,315.25 344.312,283.75 374.25,273.688 360.188,245.438 384,224.703 	"/>
</g>
</svg>
