<?xml version="1.0" encoding="utf-8"?>
<!-- Generator: Adobe Illustrator 16.0.4, SVG Export Plug-In . SVG Version: 6.00 Build 0)  -->
<!DOCTYPE svg PUBLIC "-//W3C//DTD SVG 1.1//EN" "http://www.w3.org/Graphics/SVG/1.1/DTD/svg11.dtd">
<svg version="1.1" id="Layer_1" xmlns="http://www.w3.org/2000/svg" xmlns:xlink="http://www.w3.org/1999/xlink" x="0px" y="0px"
	 width="16px" height="16px" viewBox="0 0 16 16" enable-background="new 0 0 16 16" xml:space="preserve">
<polygon fill="#010101" points="11.172,6.374 11.611,5.491 10.676,5.177 10.744,4.193 9.76,4.261 9.446,3.326 8.563,3.765 
	7.915,3.021 7.268,3.765 6.385,3.326 6.07,4.261 5.087,4.193 5.154,5.177 4.22,5.491 4.658,6.374 3.915,7.021 4.658,7.669 
	4.22,8.552 5.154,8.866 5.087,9.85 6.07,9.783 6.081,9.816 5.051,12.646 6.032,12.314 6.571,13.199 7.526,10.576 7.915,11.021 
	8.304,10.576 9.259,13.199 9.798,12.314 10.779,12.646 9.749,9.816 9.76,9.783 10.744,9.85 10.676,8.866 11.611,8.552 11.172,7.669 
	11.916,7.021 "/>
</svg>
