<?xml version="1.0" encoding="utf-8"?>
<!-- Generator: Adobe Illustrator 16.0.4, SVG Export Plug-In . SVG Version: 6.00 Build 0)  -->
<!DOCTYPE svg PUBLIC "-//W3C//DTD SVG 1.1//EN" "http://www.w3.org/Graphics/SVG/1.1/DTD/svg11.dtd">
<svg version="1.1" id="Layer_1" xmlns="http://www.w3.org/2000/svg" xmlns:xlink="http://www.w3.org/1999/xlink" x="0px" y="0px"
	 width="16px" height="16px" viewBox="0 0 16 16" enable-background="new 0 0 16 16" xml:space="preserve">
<g>
	<path fill="#010101" d="M8,0C3.582,0,0,3.582,0,8c0,4.418,3.582,8,8,8c4.418,0,8-3.582,8-8C16,3.582,12.418,0,8,0z M8,15.467
		c-4.117,0-7.467-3.35-7.467-7.467S3.883,0.533,8,0.533S15.467,3.883,15.467,8S12.117,15.467,8,15.467z"/>
	<polygon fill="#010101" points="11.256,6.374 11.695,5.491 10.76,5.177 10.828,4.194 9.844,4.261 9.531,3.327 8.648,3.765 8,3.022 
		7.352,3.765 6.469,3.327 6.155,4.261 5.171,4.194 5.239,5.177 4.304,5.491 4.743,6.374 4,7.022 4.743,7.67 4.304,8.553 
		5.239,8.867 5.171,9.851 6.155,9.783 6.166,9.816 5.136,12.646 6.117,12.315 6.656,13.2 7.611,10.576 8,11.021 8.389,10.576 
		9.344,13.2 9.883,12.315 10.863,12.646 9.834,9.816 9.844,9.783 10.828,9.851 10.76,8.867 11.695,8.553 11.256,7.67 12,7.022 	"/>
</g>
</svg>
