<?xml version="1.0" encoding="utf-8"?>
<!-- Generator: Adobe Illustrator 16.0.4, SVG Export Plug-In . SVG Version: 6.00 Build 0)  -->
<!DOCTYPE svg PUBLIC "-//W3C//DTD SVG 1.1//EN" "http://www.w3.org/Graphics/SVG/1.1/DTD/svg11.dtd">
<svg version="1.1" id="Layer_1" xmlns="http://www.w3.org/2000/svg" xmlns:xlink="http://www.w3.org/1999/xlink" x="0px" y="0px"
	 width="16px" height="16px" viewBox="0 0 16 16" enable-background="new 0 0 16 16" xml:space="preserve">
<path fill="#010101" d="M8,0C3.582,0,0,3.582,0,8c0,4.419,3.582,8,8,8c4.418,0,8-3.581,8-8C16,3.582,12.418,0,8,0z M11.695,8.553
	L10.76,8.867l0.068,0.984L9.844,9.783l-0.01,0.034l1.029,2.83l-0.98-0.331l-0.539,0.885l-0.955-2.625L8,11.022l-0.389-0.446
	l-0.955,2.625l-0.539-0.885l-0.981,0.331l1.03-2.83L6.155,9.783L5.171,9.852l0.067-0.984L4.304,8.553L4.743,7.67L4,7.022
	l0.743-0.647L4.304,5.491l0.935-0.313L5.171,4.194l0.983,0.066l0.314-0.934l0.883,0.438L8,3.022l0.648,0.743l0.883-0.438
	l0.312,0.934l0.984-0.066L10.76,5.178l0.936,0.313l-0.439,0.884L12,7.022L11.256,7.67L11.695,8.553z"/>
</svg>
