<?xml version="1.0" encoding="utf-8"?>
<!-- Generator: Adobe Illustrator 16.0.5, SVG Export Plug-In . SVG Version: 6.00 Build 0)  -->
<!DOCTYPE svg PUBLIC "-//W3C//DTD SVG 1.1//EN" "http://www.w3.org/Graphics/SVG/1.1/DTD/svg11.dtd">
<svg version="1.1" id="Layer_1" xmlns="http://www.w3.org/2000/svg" xmlns:xlink="http://www.w3.org/1999/xlink" x="0px" y="0px"
	 width="512px" height="512px" viewBox="0 0 512 512" enable-background="new 0 0 512 512" xml:space="preserve">
<path fill="#010101" d="M256,0C114.625,0,0,114.625,0,256c0,141.406,114.625,256,256,256s256-114.594,256-256
	C512,114.625,397.375,0,256,0z M374.25,273.688l-29.938,10.062l2.188,31.5l-31.5-2.188l-0.312,1.062l32.938,90.562l-31.376-10.561
	L299,422.438l-30.547-84L256,352.688l-12.453-14.25l-30.547,84l-17.25-28.312l-31.391,10.562l32.953-90.562l-0.359-1.062
	l-31.484,2.188l2.141-31.469l-29.875-10.094l14.047-28.25L128,224.703L151.781,204l-14.047-28.281l29.906-10.016l-2.172-31.5
	l31.453,2.109l10.047-29.875l28.266,14.016L256,96.703l20.75,23.781L305,106.469l9.969,29.875l31.5-2.109l-2.156,31.469
	l29.938,10.016L360.219,204L384,224.703l-23.812,20.735L374.25,273.688z"/>
</svg>
