<?xml version="1.0" encoding="utf-8"?>
<!-- Generator: Adobe Illustrator 16.0.5, SVG Export Plug-In . SVG Version: 6.00 Build 0)  -->
<!DOCTYPE svg PUBLIC "-//W3C//DTD SVG 1.1//EN" "http://www.w3.org/Graphics/SVG/1.1/DTD/svg11.dtd">
<svg version="1.1" id="Layer_1" xmlns="http://www.w3.org/2000/svg" xmlns:xlink="http://www.w3.org/1999/xlink" x="0px" y="0px"
	 width="512px" height="512px" viewBox="0 0 512 512" enable-background="new 0 0 512 512" xml:space="preserve">
<g>
	<polygon fill="#010101" points="233.562,258.938 198.438,223.781 158.172,264 193.312,299.188 193.312,299.188 211.609,317.469 
		233.531,339.375 233.531,339.375 233.562,339.375 254.719,318.25 273.812,299.188 273.75,299.188 358.062,214.781 317.875,174.594 
			"/>
	<path fill="#010101" d="M256,0C114.625,0,0,114.625,0,256c0,141.406,114.625,256,256,256s256-114.594,256-256
		C512,114.625,397.375,0,256,0z M411.719,321.938l-39.906,13.375l2.906,42l-41.969-2.844l-13.438,39.844l-37.656-18.75
		l-27.64,31.688l-27.641-31.688l-37.672,18.75l-13.406-39.845l-41.953,2.812l2.875-41.969L96.36,321.936l18.719-37.688
		l-31.75-27.641L115.047,229l-18.688-37.703l39.859-13.406l-2.875-41.984l41.984,2.875l13.406-39.844l37.672,18.688l27.641-31.672
		l27.642,31.672l37.688-18.688l13.375,39.844l42-2.875l-2.906,41.984l39.906,13.406l-18.812,37.656l31.75,27.625l-31.75,27.672
		L411.719,321.938z"/>
</g>
</svg>
