<?xml version="1.0" encoding="utf-8"?>
<!-- Generator: Adobe Illustrator 16.0.4, SVG Export Plug-In . SVG Version: 6.00 Build 0)  -->
<!DOCTYPE svg PUBLIC "-//W3C//DTD SVG 1.1//EN" "http://www.w3.org/Graphics/SVG/1.1/DTD/svg11.dtd">
<svg version="1.1" id="Layer_1" xmlns="http://www.w3.org/2000/svg" xmlns:xlink="http://www.w3.org/1999/xlink" x="0px" y="0px"
	 width="16px" height="16px" viewBox="0 0 16 16" enable-background="new 0 0 16 16" xml:space="preserve">
<path fill="#010101" d="M12.257,7.154l0.586-1.178l-1.247-0.419l0.091-1.311l-1.312,0.089L9.956,3.091L8.779,3.675l-0.864-0.99
	l-0.864,0.99L5.874,3.091L5.455,4.336L4.144,4.247l0.09,1.311L2.987,5.977l0.585,1.178L2.581,8.018l0.991,0.864l-0.585,1.177
	l1.246,0.419l-0.09,1.312l1.312-0.09l0.419,1.246l1.177-0.585l0.864,0.99l0.864-0.99l1.177,0.585l0.419-1.246l1.312,0.09
	l-0.091-1.312l1.247-0.419l-0.586-1.177l0.991-0.864L12.257,7.154z M8.531,9.349L8.531,9.349L7.937,9.943l-0.661,0.662l-0.001-0.001
	v0.001L6.59,9.92L6.018,9.349V9.348L4.92,8.249l1.258-1.257l1.098,1.099L9.91,5.455l1.257,1.257L8.531,9.349z"/>
</svg>
