<?xml version="1.0" encoding="utf-8"?>
<!-- Generator: Adobe Illustrator 16.0.4, SVG Export Plug-In . SVG Version: 6.00 Build 0)  -->
<!DOCTYPE svg PUBLIC "-//W3C//DTD SVG 1.1//EN" "http://www.w3.org/Graphics/SVG/1.1/DTD/svg11.dtd">
<svg version="1.1" id="Layer_1" xmlns="http://www.w3.org/2000/svg" xmlns:xlink="http://www.w3.org/1999/xlink" x="0px" y="0px"
	 width="16px" height="16px" viewBox="0 0 16 16" enable-background="new 0 0 16 16" xml:space="preserve">
<g>
	<path fill="#010101" d="M8,0C3.582,0,0,3.582,0,8c0,4.418,3.582,8,8,8s8-3.582,8-8C16,3.582,12.418,0,8,0z M8,15.467
		c-4.117,0-7.467-3.35-7.467-7.467S3.883,0.533,8,0.533S15.467,3.883,15.467,8S12.117,15.467,8,15.467z"/>
	<path fill="#010101" d="M12.28,7.154l0.586-1.177l-1.247-0.419l0.091-1.311l-1.312,0.09L9.979,3.091L8.803,3.675l-0.864-0.99
		l-0.864,0.99L5.897,3.091L5.479,4.337l-1.312-0.09l0.09,1.311L3.011,5.978l0.585,1.177L2.604,8.018l0.991,0.864l-0.585,1.177
		l1.246,0.42l-0.09,1.311L5.479,11.7l0.419,1.245l1.177-0.584l0.864,0.99l0.864-0.99l1.177,0.584l0.419-1.245l1.312,0.089
		l-0.091-1.311l1.247-0.42L12.28,8.882l0.991-0.864L12.28,7.154z M8.555,9.349L8.555,9.349L7.96,9.944l-0.661,0.661H7.298l0,0
		L6.613,9.92L6.041,9.349l0,0L4.943,8.25l1.258-1.257l1.098,1.099l2.635-2.636l1.257,1.257L8.555,9.349z"/>
</g>
</svg>
