<?xml version="1.0" encoding="utf-8"?>
<!-- Generator: Adobe Illustrator 16.0.4, SVG Export Plug-In . SVG Version: 6.00 Build 0)  -->
<!DOCTYPE svg PUBLIC "-//W3C//DTD SVG 1.1//EN" "http://www.w3.org/Graphics/SVG/1.1/DTD/svg11.dtd">
<svg version="1.1" id="Layer_1" xmlns="http://www.w3.org/2000/svg" xmlns:xlink="http://www.w3.org/1999/xlink" x="0px" y="0px"
	 width="16px" height="16px" viewBox="0 0 16 16" enable-background="new 0 0 16 16" xml:space="preserve">
<g>
	<polygon fill="#010101" points="7.299,8.092 6.201,6.993 4.943,8.25 6.041,9.35 6.041,9.35 6.613,9.921 7.298,10.606 7.298,10.605 
		7.299,10.606 7.96,9.945 8.556,9.35 8.555,9.35 11.19,6.712 9.934,5.456 	"/>
	<path fill="#010101" d="M8,0C3.582,0,0,3.582,0,8c0,4.419,3.582,8,8,8s8-3.581,8-8C16,3.582,12.418,0,8,0z M12.866,10.06
		l-1.247,0.419l0.091,1.312l-1.312-0.089l-0.419,1.245l-1.177-0.585l-0.864,0.99l-0.864-0.99l-1.177,0.585l-0.419-1.245L4.167,11.79
		l0.09-1.312L3.011,10.06l0.585-1.177L2.604,8.019l0.991-0.863L3.011,5.978l1.246-0.419l-0.09-1.312l1.312,0.09l0.419-1.245
		l1.177,0.584l0.864-0.99l0.864,0.99l1.177-0.584l0.419,1.245l1.312-0.09l-0.091,1.312l1.247,0.419L12.28,7.155l0.991,0.863
		L12.28,8.883L12.866,10.06z"/>
</g>
</svg>
