<?xml version="1.0" encoding="utf-8"?>
<!-- Generator: Adobe Illustrator 16.0.5, SVG Export Plug-In . SVG Version: 6.00 Build 0)  -->
<!DOCTYPE svg PUBLIC "-//W3C//DTD SVG 1.1//EN" "http://www.w3.org/Graphics/SVG/1.1/DTD/svg11.dtd">
<svg version="1.1" id="Layer_1" xmlns="http://www.w3.org/2000/svg" xmlns:xlink="http://www.w3.org/1999/xlink" x="0px" y="0px"
	 width="512px" height="512px" viewBox="0 0 512 512" enable-background="new 0 0 512 512" xml:space="preserve">
<g>
	<path fill="#010101" d="M392.938,228.922l18.781-37.656l-39.906-13.406l2.906-41.953l-41.969,2.875l-13.438-39.875l-37.625,18.688
		l-27.642-31.673l-27.641,31.672l-37.703-18.688l-13.375,39.875l-41.984-2.875l2.875,41.953L96.36,191.297l18.719,37.656
		l-31.75,27.625l31.719,27.641l-18.734,37.656l39.875,13.438l-2.875,41.971l42.016-2.875l13.406,39.844l37.672-18.688l27.639,31.688
		l27.641-31.688l37.688,18.688l13.375-39.844l42,2.844l-2.905-41.938l39.905-13.438l-18.812-37.655l31.75-27.642L392.938,228.922z
		 M273.75,299.188L273.75,299.188l-19.031,19l-21.156,21.188h-0.031l0,0l-21.922-21.938l-18.297-18.25l0,0L158.172,264
		l40.266-40.219l35.125,35.156l84.312-84.346l40.25,40.219L273.75,299.188z"/>
</g>
</svg>
