<?xml version="1.0" encoding="utf-8"?>
<!-- Generator: Adobe Illustrator 16.0.5, SVG Export Plug-In . SVG Version: 6.00 Build 0)  -->
<!DOCTYPE svg PUBLIC "-//W3C//DTD SVG 1.1//EN" "http://www.w3.org/Graphics/SVG/1.1/DTD/svg11.dtd">
<svg version="1.1" id="Layer_1" xmlns="http://www.w3.org/2000/svg" xmlns:xlink="http://www.w3.org/1999/xlink" x="0px" y="0px"
	 width="16px" height="16px" viewBox="0 0 16 16" enable-background="new 0 0 16 16" xml:space="preserve">
<g>
	<path d="M8,0C3.582,0,0,3.582,0,8c0,4.418,3.582,8,8,8c4.418,0,8-3.582,8-8C16,3.582,12.418,0,8,0z M4.105,11.895l1.19-3.075
		l1.886,1.886L4.105,11.895z M7.714,10.171L5.829,8.286l2.667-2.667l1.886,1.885L7.714,10.171z M11.661,6.225l-0.747,0.746
		L9.028,5.085l0.747-0.746c0.207-0.208,0.547-0.208,0.754,0l1.132,1.131C11.868,5.678,11.868,6.018,11.661,6.225z"/>
</g>
</svg>
