<?xml version="1.0" encoding="utf-8"?>
<!-- Generator: Adobe Illustrator 16.0.5, SVG Export Plug-In . SVG Version: 6.00 Build 0)  -->
<!DOCTYPE svg PUBLIC "-//W3C//DTD SVG 1.1//EN" "http://www.w3.org/Graphics/SVG/1.1/DTD/svg11.dtd">
<svg version="1.1" id="Layer_1" xmlns="http://www.w3.org/2000/svg" xmlns:xlink="http://www.w3.org/1999/xlink" x="0px" y="0px"
	 width="16px" height="16px" viewBox="0 0 16 16" enable-background="new 0 0 16 16" xml:space="preserve">
<g>
	<path d="M8,0.533c4.117,0,7.467,3.35,7.467,7.467S12.117,15.467,8,15.467S0.533,12.117,0.533,8S3.883,0.533,8,0.533 M8,0
		C3.582,0,0,3.582,0,8c0,4.418,3.582,8,8,8c4.418,0,8-3.582,8-8C16,3.582,12.418,0,8,0L8,0z"/>
	<g>
		<rect x="6.771" y="6.01" transform="matrix(0.7071 0.7071 -0.7071 0.7071 7.9564 -3.4183)" width="2.666" height="3.771"/>
	</g>
	<g>
		<path d="M9.028,5.085l0.747-0.746c0.207-0.208,0.547-0.208,0.754,0l1.132,1.131c0.207,0.208,0.207,0.547,0,0.754l-0.747,0.746
			L9.028,5.085z"/>
	</g>
	<g>
		<polygon points="5.295,8.819 7.181,10.705 4.105,11.895 		"/>
	</g>
</g>
</svg>
