<?xml version="1.0" encoding="utf-8"?>
<!-- Generator: Adobe Illustrator 16.0.5, SVG Export Plug-In . SVG Version: 6.00 Build 0)  -->
<!DOCTYPE svg PUBLIC "-//W3C//DTD SVG 1.1//EN" "http://www.w3.org/Graphics/SVG/1.1/DTD/svg11.dtd">
<svg version="1.1" id="Layer_1" xmlns="http://www.w3.org/2000/svg" xmlns:xlink="http://www.w3.org/1999/xlink" x="0px" y="0px"
	 width="512px" height="512px" viewBox="0 0 512 512" enable-background="new 0 0 512 512" xml:space="preserve">
<g>
	<path d="M256,0C114.625,0,0,114.625,0,256s114.625,256,256,256s256-114.625,256-256S397.375,0,256,0z M131.359,380.625
		l38.078-98.375l60.359,60.344L131.359,380.625z M246.844,325.469l-60.312-60.312l85.344-85.344l60.343,60.312L246.844,325.469z
		 M373.156,199.203l-23.906,23.875l-60.375-60.359l23.938-23.875c6.625-6.656,17.5-6.656,24.125,0l36.22,36.203
		C379.781,181.703,379.781,192.578,373.156,199.203z"/>
</g>
</svg>
