<?xml version="1.0" encoding="utf-8"?>
<!-- Generator: Adobe Illustrator 16.0.4, SVG Export Plug-In . SVG Version: 6.00 Build 0)  -->
<!DOCTYPE svg PUBLIC "-//W3C//DTD SVG 1.1//EN" "http://www.w3.org/Graphics/SVG/1.1/DTD/svg11.dtd">
<svg version="1.1" id="Layer_1" xmlns="http://www.w3.org/2000/svg" xmlns:xlink="http://www.w3.org/1999/xlink" x="0px" y="0px"
	 width="16px" height="16px" viewBox="0 0 16 16" enable-background="new 0 0 16 16" xml:space="preserve">
<path fill="#010101" d="M6.526,7.321C6.559,7.388,6.595,7.45,6.633,7.511c0.005,0.007,0.009,0.014,0.013,0.02
	C6.727,7.654,6.82,7.766,6.924,7.861c0.006,0.006,0.012,0.01,0.018,0.016c0.045,0.04,0.093,0.078,0.142,0.113
	c0.011,0.008,0.021,0.016,0.032,0.022C7.226,8.088,7.345,8.148,7.47,8.19C7.485,8.196,7.501,8.2,7.517,8.205
	C7.564,8.22,7.613,8.231,7.662,8.24c0.019,0.004,0.036,0.008,0.055,0.01c0.065,0.01,0.131,0.017,0.197,0.017
	c0.067,0,0.133-0.007,0.197-0.017C8.13,8.248,8.148,8.244,8.167,8.24C8.216,8.231,8.265,8.22,8.312,8.205
	C8.328,8.2,8.344,8.196,8.359,8.19C8.422,8.17,8.483,8.145,8.542,8.115c0,0,0.001,0,0.002-0.001
	c0.059-0.029,0.114-0.063,0.169-0.102c0.012-0.008,0.022-0.016,0.034-0.023c0.048-0.035,0.095-0.072,0.14-0.112
	c0.006-0.005,0.013-0.011,0.019-0.016C9.009,7.765,9.102,7.653,9.183,7.53c0.005-0.007,0.009-0.014,0.013-0.02
	c0.039-0.062,0.076-0.125,0.108-0.191l0,0V7.318c0.134-0.271,0.21-0.585,0.21-0.919V5.066c0-1.026-0.72-1.601-1.6-1.601
	s-1.6,0.574-1.6,1.601v1.333c0,0.334,0.077,0.647,0.21,0.92C6.525,7.32,6.525,7.321,6.526,7.321z"/>
<path fill="#010101" d="M9.859,7.378C9.526,8.215,8.78,8.8,7.914,8.8c-0.865,0-1.611-0.585-1.945-1.42
	C5.32,7.469,4.75,7.621,4.451,7.875c-0.679,0.941-0.533,2.591-0.533,2.591s1.667,1.866,3.996,1.866c0.002,0,0.003,0,0.005,0
	c0.001,0,0.002,0,0.004,0c2.329,0,3.995-1.866,3.995-1.866s0.146-1.649-0.532-2.591C11.086,7.62,10.512,7.467,9.859,7.378z"/>
</svg>
