<?xml version="1.0" encoding="utf-8"?>
<!-- Generator: Adobe Illustrator 16.0.4, SVG Export Plug-In . SVG Version: 6.00 Build 0)  -->
<!DOCTYPE svg PUBLIC "-//W3C//DTD SVG 1.1//EN" "http://www.w3.org/Graphics/SVG/1.1/DTD/svg11.dtd">
<svg version="1.1" id="Layer_1" xmlns="http://www.w3.org/2000/svg" xmlns:xlink="http://www.w3.org/1999/xlink" x="0px" y="0px"
	 width="16px" height="16px" viewBox="0 0 16 16" enable-background="new 0 0 16 16" xml:space="preserve">
<g>
	<path fill="#010101" d="M8,0C3.582,0,0,3.582,0,8c0,4.418,3.582,8,8,8s8-3.582,8-8C16,3.582,12.418,0,8,0z M8,15.467
		c-4.117,0-7.467-3.35-7.467-7.467S3.883,0.533,8,0.533S15.467,3.883,15.467,8S12.117,15.467,8,15.467z"/>
	<path fill="#010101" d="M6.612,7.322C6.644,7.388,6.68,7.451,6.719,7.511c0.004,0.007,0.009,0.013,0.013,0.02
		C6.812,7.654,6.906,7.766,7.01,7.862c0.006,0.005,0.012,0.01,0.018,0.015C7.072,7.917,7.12,7.956,7.168,7.99
		C7.179,7.998,7.19,8.006,7.201,8.013C7.312,8.088,7.43,8.149,7.555,8.191c0.016,0.005,0.032,0.009,0.047,0.014
		C7.65,8.22,7.699,8.232,7.748,8.241c0.018,0.003,0.036,0.007,0.055,0.01C7.868,8.26,7.933,8.267,8,8.267S8.132,8.26,8.197,8.251
		c0.019-0.003,0.037-0.006,0.055-0.01C8.302,8.232,8.35,8.22,8.397,8.206C8.414,8.201,8.43,8.197,8.445,8.191
		C8.508,8.17,8.569,8.146,8.627,8.116c0,0,0.001,0,0.002-0.001c0.059-0.029,0.115-0.064,0.169-0.101
		C8.811,8.006,8.821,7.998,8.833,7.99c0.048-0.035,0.095-0.072,0.14-0.112c0.006-0.005,0.012-0.011,0.018-0.016
		c0.104-0.096,0.197-0.208,0.278-0.331c0.005-0.007,0.009-0.014,0.013-0.02C9.32,7.45,9.357,7.386,9.39,7.32c0,0,0,0,0,0l0,0
		C9.523,7.047,9.6,6.734,9.6,6.4V5.067c0-1.027-0.72-1.6-1.6-1.6s-1.6,0.573-1.6,1.6V6.4c0,0.334,0.078,0.648,0.21,0.92
		C6.611,7.321,6.611,7.321,6.612,7.322z"/>
	<path fill="#010101" d="M9.945,7.379C9.612,8.215,8.866,8.8,8,8.8c-0.866,0-1.611-0.584-1.945-1.42
		C5.406,7.469,4.835,7.621,4.537,7.875c-0.679,0.942-0.533,2.592-0.533,2.592S5.67,12.334,8,12.334c0.001,0,0.003-0.001,0.004-0.001
		c0.001,0,0.002,0.001,0.004,0.001c2.33,0,3.996-1.867,3.996-1.867s0.146-1.65-0.532-2.592C11.172,7.62,10.598,7.468,9.945,7.379z"
		/>
</g>
</svg>
