<?xml version="1.0" encoding="utf-8"?>
<!-- Generator: Adobe Illustrator 16.0.5, SVG Export Plug-In . SVG Version: 6.00 Build 0)  -->
<!DOCTYPE svg PUBLIC "-//W3C//DTD SVG 1.1//EN" "http://www.w3.org/Graphics/SVG/1.1/DTD/svg11.dtd">
<svg version="1.1" id="Layer_1" xmlns="http://www.w3.org/2000/svg" xmlns:xlink="http://www.w3.org/1999/xlink" x="0px" y="0px"
	 width="512px" height="512px" viewBox="0 0 512 512" enable-background="new 0 0 512 512" xml:space="preserve">
<g>
	<path fill="#010101" d="M256,0C114.625,0,0,114.625,0,256s114.625,256,256,256s256-114.625,256-256S397.375,0,256,0z M256,494.938
		C124.25,494.938,17.062,387.75,17.062,256S124.25,17.062,256,17.062S494.938,124.25,494.938,256S387.75,494.938,256,494.938z"/>
	<path fill="#010101" d="M211.578,234.297c1.031,2.125,2.188,4.141,3.422,6.047c0.141,0.234,0.297,0.422,0.422,0.656
		c2.562,3.922,5.578,7.516,8.89,10.578c0.203,0.172,0.391,0.328,0.578,0.484c1.406,1.281,2.953,2.531,4.484,3.625
		c0.359,0.25,0.703,0.5,1.062,0.734c3.547,2.392,7.328,4.345,11.328,5.688c0.5,0.156,1.016,0.297,1.5,0.453
		c1.531,0.483,3.109,0.858,4.672,1.155c0.578,0.095,1.156,0.22,1.766,0.312c2.079,0.283,4.157,0.518,6.298,0.518
		c2.141,0,4.219-0.234,6.297-0.516c0.609-0.094,1.188-0.188,1.766-0.312c1.595-0.297,3.142-0.672,4.642-1.125
		c0.547-0.156,1.062-0.297,1.53-0.484c2.017-0.672,3.953-1.438,5.828-2.391c0,0,0.031,0,0.062-0.031
		c1.875-0.938,3.688-2.062,5.406-3.234c0.406-0.266,0.719-0.516,1.125-0.766c1.531-1.125,3.031-2.312,4.469-3.594
		c0.188-0.156,0.375-0.344,0.594-0.516c3.344-3.061,6.281-6.655,8.906-10.577c0.125-0.234,0.25-0.453,0.406-0.656
		c1.219-1.938,2.406-4,3.469-6.109l0,0l0,0c4.25-8.734,6.688-18.75,6.688-29.438v-42.656c0-32.859-23.03-51.203-51.188-51.203
		s-51.203,18.344-51.203,51.203v42.656c0,10.688,2.5,20.734,6.719,29.438C211.547,234.266,211.547,234.266,211.578,234.297z"/>
	<path fill="#010101" d="M318.25,236.125c-10.688,26.75-34.531,45.469-62.25,45.469s-51.547-18.688-62.234-45.438
		C173,239,154.719,243.875,145.188,252c-21.734,30.125-17.062,82.938-17.062,82.938s53.312,59.75,127.874,59.75
		c0.031,0,0.094-0.03,0.125-0.03s0.062,0.03,0.125,0.03c74.562,0,127.875-59.75,127.875-59.75s4.688-52.812-17-82.938
		C357.5,243.844,339.125,238.969,318.25,236.125z"/>
</g>
</svg>
