<?xml version="1.0" encoding="utf-8"?>
<!-- Generator: Adobe Illustrator 16.0.5, SVG Export Plug-In . SVG Version: 6.00 Build 0)  -->
<!DOCTYPE svg PUBLIC "-//W3C//DTD SVG 1.1//EN" "http://www.w3.org/Graphics/SVG/1.1/DTD/svg11.dtd">
<svg version="1.1" id="Layer_1" xmlns="http://www.w3.org/2000/svg" xmlns:xlink="http://www.w3.org/1999/xlink" x="0px" y="0px"
	 width="512px" height="512px" viewBox="0 0 512 512" enable-background="new 0 0 512 512" xml:space="preserve">
<path fill="#010101" d="M256,0C114.625,0,0,114.625,0,256s114.625,256,256,256s256-114.625,256-256S397.375,0,256,0z
	 M204.797,162.141c0-32.859,23.047-51.203,51.203-51.203s51.188,18.344,51.188,51.203v42.656c0,10.656-2.438,20.703-6.688,29.406
	l0,0c-1.062,2.141-2.25,4.203-3.5,6.141c-0.125,0.234-0.25,0.453-0.438,0.656c-2.562,3.922-5.5,7.484-8.844,10.578
	c-0.219,0.172-0.406,0.328-0.594,0.516c-1.438,1.281-2.938,2.469-4.469,3.594c-0.406,0.25-0.719,0.5-1.094,0.766
	c-1.75,1.172-3.562,2.267-5.438,3.233c0,0-0.031,0-0.062,0c-1.875,0.953-3.845,1.72-5.828,2.422
	c-0.469,0.188-0.984,0.328-1.531,0.484c-1.5,0.453-3.047,0.828-4.641,1.125c-0.609,0.094-1.188,0.219-1.767,0.312
	c-2.078,0.281-4.155,0.516-6.297,0.516c-2.141,0-4.219-0.234-6.297-0.516c-0.609-0.062-1.188-0.188-1.766-0.312
	c-1.562-0.297-3.141-0.672-4.641-1.125c-0.516-0.156-1.031-0.297-1.531-0.484c-4-1.344-7.781-3.297-11.328-5.655
	c-0.359-0.266-0.703-0.516-1.062-0.766c-1.531-1.094-3.078-2.312-4.516-3.625c-0.188-0.156-0.344-0.312-0.547-0.484
	c-3.311-3.063-6.327-6.657-8.92-10.579c-0.125-0.234-0.25-0.422-0.422-0.656c-1.203-1.906-2.359-3.922-3.391-6.047
	c0-0.031-0.031-0.031-0.031-0.062c-4.25-8.703-6.75-18.75-6.75-29.438V162.141z M384.125,334.938c0,0-53.312,59.75-127.875,59.75
	c-0.031,0-0.094,0-0.125,0s-0.094,0-0.125,0c-74.562,0-127.875-59.75-127.875-59.75s-4.672-52.812,17.063-82.938
	c9.562-8.094,27.844-13,48.578-15.844c10.687,26.75,34.515,45.438,62.234,45.438s51.562-18.719,62.25-45.469
	c20.875,2.844,39.25,7.719,48.812,15.875C388.812,282.125,384.125,334.938,384.125,334.938z"/>
</svg>
