<?xml version="1.0" encoding="utf-8"?>
<!-- Generator: Adobe Illustrator 16.0.4, SVG Export Plug-In . SVG Version: 6.00 Build 0)  -->
<!DOCTYPE svg PUBLIC "-//W3C//DTD SVG 1.1//EN" "http://www.w3.org/Graphics/SVG/1.1/DTD/svg11.dtd">
<svg version="1.1" id="Layer_1" xmlns="http://www.w3.org/2000/svg" xmlns:xlink="http://www.w3.org/1999/xlink" x="0px" y="0px"
	 width="16px" height="16px" viewBox="0 0 16 16" enable-background="new 0 0 16 16" xml:space="preserve">
<path fill="#010101" d="M8,0C3.582,0,0,3.582,0,8c0,4.419,3.582,8,8,8s8-3.581,8-8C16,3.582,12.418,0,8,0z M8,3.289
	c1.435,0,2.806,0.666,3.697,1.79L8.072,7.603L5.547,3.978C6.284,3.526,7.129,3.289,8,3.289z M8,12.712
	c-2.598,0-4.711-2.113-4.711-4.712c0-1.435,0.667-2.806,1.79-3.695l2.773,3.981h4.852C12.555,10.74,10.475,12.712,8,12.712z
	 M8.91,7.715l3.113-2.168c0.4,0.655,0.633,1.399,0.68,2.168H8.91z"/>
</svg>
