<?xml version="1.0" encoding="utf-8"?>
<!-- Generator: Adobe Illustrator 16.0.5, SVG Export Plug-In . SVG Version: 6.00 Build 0)  -->
<!DOCTYPE svg PUBLIC "-//W3C//DTD SVG 1.1//EN" "http://www.w3.org/Graphics/SVG/1.1/DTD/svg11.dtd">
<svg version="1.1" id="Layer_1" xmlns="http://www.w3.org/2000/svg" xmlns:xlink="http://www.w3.org/1999/xlink" x="0px" y="0px"
	 width="512px" height="512px" viewBox="0 0 512 512" enable-background="new 0 0 512 512" xml:space="preserve">
<g>
	<path fill="#010101" d="M256,0C114.625,0,0,114.625,0,256s114.625,256,256,256s256-114.625,256-256S397.375,0,256,0z M256,494.938
		C124.25,494.938,17.094,387.75,17.094,256S124.25,17.062,256,17.062S494.938,124.25,494.938,256S387.75,494.938,256,494.938z"/>
	<path fill="#010101" d="M162.531,137.734C126.594,166.203,105.25,210.047,105.25,256c0,83.125,67.641,150.75,150.75,150.75
		c79.188,0,145.75-63.094,150.5-141.594H251.266L162.531,137.734z"/>
	<path fill="#010101" d="M374.312,162.5c-28.5-35.938-72.375-57.25-118.312-57.25c-27.875,0-54.906,7.609-78.531,22.016l80.797,116
		L374.312,162.5z"/>
	<path fill="#010101" d="M285.125,246.844H406.5c-1.5-24.609-8.938-48.406-21.75-69.375L285.125,246.844z"/>
</g>
</svg>
