<?xml version="1.0" encoding="utf-8"?>
<!-- Generator: Adobe Illustrator 16.0.4, SVG Export Plug-In . SVG Version: 6.00 Build 0)  -->
<!DOCTYPE svg PUBLIC "-//W3C//DTD SVG 1.1//EN" "http://www.w3.org/Graphics/SVG/1.1/DTD/svg11.dtd">
<svg version="1.1" id="Layer_1" xmlns="http://www.w3.org/2000/svg" xmlns:xlink="http://www.w3.org/1999/xlink" x="0px" y="0px"
	 width="16px" height="16px" viewBox="0 0 16 16" enable-background="new 0 0 16 16" xml:space="preserve">
<g>
	<path fill="#010101" d="M8,0C3.582,0,0,3.582,0,8c0,4.418,3.582,8,8,8s8-3.582,8-8C16,3.582,12.418,0,8,0z M8,15.467
		c-4.117,0-7.466-3.35-7.466-7.467S3.883,0.533,8,0.533S15.467,3.883,15.467,8S12.117,15.467,8,15.467z"/>
	<path fill="#010101" d="M5.079,4.304C3.956,5.194,3.289,6.564,3.289,8c0,2.598,2.114,4.711,4.711,4.711
		c2.474,0,4.554-1.972,4.703-4.425H7.852L5.079,4.304z"/>
	<path fill="#010101" d="M11.697,5.078C10.807,3.955,9.436,3.289,8,3.289c-0.871,0-1.716,0.238-2.454,0.688l2.525,3.625
		L11.697,5.078z"/>
	<path fill="#010101" d="M8.91,7.714h3.793c-0.047-0.769-0.279-1.513-0.68-2.168L8.91,7.714z"/>
</g>
</svg>
