<?xml version="1.0" encoding="utf-8"?>
<!-- Generator: Adobe Illustrator 19.1.0, SVG Export Plug-In . SVG Version: 6.00 Build 0)  -->
<svg version="1.1" id="Layer_1" xmlns="http://www.w3.org/2000/svg" xmlns:xlink="http://www.w3.org/1999/xlink" x="0px" y="0px"
	 viewBox="-49 141 512 512" enable-background="new -49 141 512 512" xml:space="preserve">
<g>
	<path d="M207,158.1c32.3,0,63.6,6.3,93,18.8c28.4,12,54,29.3,76,51.2c21.9,21.9,39.2,47.5,51.2,76c12.5,29.4,18.8,60.7,18.8,93
		s-6.3,63.6-18.8,93c-12,28.5-29.3,54-51.2,76c-21.9,21.9-47.5,39.2-76,51.2c-29.4,12.5-60.7,18.8-93,18.8s-63.6-6.3-93-18.8
		c-28.5-12-54-29.3-76-51.2C16.1,544-1.1,518.4-13.2,490C-25.7,460.6-32,429.3-32,397s6.3-63.6,18.8-93c12-28.5,29.3-54,51.2-76
		c21.9-21.9,47.5-39.2,76-51.2C143.4,164.4,174.7,158.1,207,158.1 M207,141C65.6,141-49,255.6-49,397S65.6,653,207,653
		s256-114.6,256-256S348.4,141,207,141L207,141z"/>
</g>
<path d="M344.4,516.5c-5.6-5.4-11.2-10.8-16.8-16.2c-25.1-23.7-51.8-43.7-81.4-56.3c-17.6-7.5-35.5-12.1-54.1-10.9
	c-6.9,0.4-13.8,2.5-20.7,3.8c-2,0.4-2.6,1.8-2.5,4.4c0.1,20.7,0.1,41.5,0.1,62.2c0,1.4,0,2.7,0,4.9c-4.5-4.2-8.8-7.7-12.6-11.7
	c-22.1-23.1-44.1-46.5-66.2-69.6c-14.7-15.4-29.5-30.6-44.2-45.8c0-0.8,0-1.5,0-2.3c40-38.6,80-77.3,120.1-115.9
	c0.8-0.8,1.7-1.5,3-2.6c0,21.7,0,42.9,0,64.3c4.3,0.3,8.4,0.6,12.4,1c39,4.2,72.6,24.6,101.6,58.2c25.1,29.1,44.5,63.7,56.6,104.8
	c2.2,7.5,3.4,15.4,5.1,23.2C344.4,513.4,344.4,514.9,344.4,516.5z"/>
</svg>
