<?xml version="1.0" encoding="utf-8"?>
<!-- Generator: Adobe Illustrator 19.1.0, SVG Export Plug-In . SVG Version: 6.00 Build 0)  -->
<svg version="1.1" id="Layer_1" xmlns="http://www.w3.org/2000/svg" xmlns:xlink="http://www.w3.org/1999/xlink" x="0px" y="0px"
	 viewBox="-49 141 512 512" enable-background="new -49 141 512 512" xml:space="preserve">
<g>
	<path d="M80,397c0-36.8,0-73.6,0-110.5c0-8.7,4.1-14.8,11.5-16.8c1.8-0.5,3.8-0.6,5.8-0.6c50.6,0,101.2-0.1,151.9,0
		c11.7,0,21.8,4.4,30.1,12.6c14.6,14.5,29.2,29.1,43.7,43.7c8.6,8.6,12.9,18.9,12.9,31.1c0,39.9,0,79.9,0,119.8c0,10-0.4,20,0.1,30
		c0.6,11.6-7.3,18.9-18.6,18.7c-34.4-0.4-68.8-0.1-103.2-0.1c-39,0-77.9,0-116.9,0c-8.6,0-14.8-4.3-16.7-11.7
		c-0.5-2.1-0.6-4.4-0.6-6.6C80,470,80,433.5,80,397z M314.4,503.5c0.1-0.9,0.1-1.5,0.1-2.2c0-48.7,0-97.4,0-146.1
		c0-5.2-2-10-5.6-13.7c-15.1-15.3-30.3-30.4-45.5-45.6c-3.4-3.4-7.8-4.8-12.6-5.7c-0.1,1-0.2,1.8-0.2,2.5c0,20.1,0,40.2,0,60.4
		c0,3.1,0.2,6.3-0.2,9.3c-0.9,6.3-6.7,13.3-17,13.2c-31-0.2-62-0.3-93,0c-10.7,0.1-18-7.7-17.8-17.8c0.4-21.4,0.1-42.8,0.1-64.1
		c0-1.1,0-2.2,0-3.3c-7.4,0-14.2,0-21.2,0c0,71.1,0,141.9,0,213c7.1,0,14,0,21.2,0c0-1.3,0-2.5,0-3.6c0-21.4,0-42.8,0-64.1
		c0-11,6.3-17.3,17.4-17.3c45.3,0,90.6,0,135.9,0c1.8,0,3.7,0.1,5.5,0.5c7.2,1.8,11.8,8,11.8,16c0,21.7,0,43.3,0,65
		c0,1.1,0,2.3,0,3.6C300.4,503.5,307.2,503.5,314.4,503.5z M271.8,439.7c-42.8,0-85.2,0-127.7,0c0,21.4,0,42.5,0,63.7
		c42.7,0,85.1,0,127.7,0C271.8,482.2,271.8,461,271.8,439.7z M229.3,322.6c0-8.3,0-16.5,0-24.8c0-5.9-1.7-7.6-7.7-7.6
		c-9.4,0-18.8,0-28.3,0c-4.8,0-6.8,1.9-6.8,6.7c0,16.9,0,33.8,0,50.7c0,4.8,2,6.7,6.8,6.7c9.6,0,19.2,0,28.8,0c5.2,0,7.1-1.8,7.1-7
		C229.3,339.1,229.3,330.8,229.3,322.6z"/>
</g>
</svg>
