<?xml version="1.0" encoding="utf-8"?>
<!-- Generator: Adobe Illustrator 16.0.4, SVG Export Plug-In . SVG Version: 6.00 Build 0)  -->
<!DOCTYPE svg PUBLIC "-//W3C//DTD SVG 1.1//EN" "http://www.w3.org/Graphics/SVG/1.1/DTD/svg11.dtd">
<svg version="1.1" id="Layer_1" xmlns="http://www.w3.org/2000/svg" xmlns:xlink="http://www.w3.org/1999/xlink" x="0px" y="0px"
	 width="16px" height="16px" viewBox="0 0 16 16" enable-background="new 0 0 16 16" xml:space="preserve">
<path fill="#010101" d="M8,0C3.582,0,0,3.582,0,8s3.582,8,8,8s8-3.582,8-8S12.418,0,8,0z M12.367,11.967
	c-0.84,0-1.68-0.26-2.401-0.584C9.367,11.605,8.703,11.734,8,11.734c-2.577,0-4.667-1.672-4.667-3.734
	c0-2.062,2.089-3.733,4.667-3.733S12.666,5.938,12.666,8c0,1.008-0.501,1.922-1.312,2.594C11.578,11.027,11.902,11.5,12.367,11.967z
	"/>
</svg>
