<?xml version="1.0" encoding="utf-8"?>
<!-- Generator: Adobe Illustrator 16.0.5, SVG Export Plug-In . SVG Version: 6.00 Build 0)  -->
<!DOCTYPE svg PUBLIC "-//W3C//DTD SVG 1.1//EN" "http://www.w3.org/Graphics/SVG/1.1/DTD/svg11.dtd">
<svg version="1.1" id="Layer_1" xmlns="http://www.w3.org/2000/svg" xmlns:xlink="http://www.w3.org/1999/xlink" x="0px" y="0px"
	 width="512px" height="512px" viewBox="0 0 512 512" enable-background="new 0 0 512 512" xml:space="preserve">
<g>
	<path fill="#010101" d="M256,0C114.625,0,0,114.625,0,256s114.625,256,256,256s256-114.625,256-256S397.375,0,256,0z M256,494.938
		C124.25,494.938,17.062,387.75,17.062,256S124.25,17.062,256,17.062S494.938,124.25,494.938,256S387.75,494.938,256,494.938z"/>
	<path fill="#010101" d="M405.312,256c0-65.984-66.845-119.453-149.312-119.453S106.656,190.016,106.656,256
		c0,66,66.875,119.438,149.344,119.438c22.5,0,43.75-4.062,62.906-11.219c23.094,10.344,49.969,18.656,76.844,18.656
		c-14.875-14.906-25.25-30.062-32.438-43.938C389.281,317.469,405.312,288.25,405.312,256z"/>
</g>
</svg>
