<?xml version="1.0" encoding="utf-8"?>
<!-- Generator: Adobe Illustrator 16.0.5, SVG Export Plug-In . SVG Version: 6.00 Build 0)  -->
<!DOCTYPE svg PUBLIC "-//W3C//DTD SVG 1.1//EN" "http://www.w3.org/Graphics/SVG/1.1/DTD/svg11.dtd">
<svg version="1.1" id="Layer_1" xmlns="http://www.w3.org/2000/svg" xmlns:xlink="http://www.w3.org/1999/xlink" x="0px" y="0px"
	 width="512px" height="512px" viewBox="0 0 512 512" enable-background="new 0 0 512 512" xml:space="preserve">
<g>
	<path fill="#010101" d="M256,0C114.625,0,0,114.625,0,256s114.625,256,256,256s256-114.625,256-256S397.375,0,256,0z M256,494.938
		C124.25,494.938,17.094,387.75,17.094,256S124.25,17.062,256,17.062S494.938,124.25,494.938,256S387.75,494.938,256,494.938z"/>
	<path fill="#010101" d="M301.062,141.469h-119.5c-14.078,0-25.594,11.531-25.594,25.609c0,6.656,2.656,12.672,6.812,17.234
		c-13.281,0.906-23.875,11.906-23.875,25.422c0,6.656,2.625,12.672,6.828,17.234c-13.281,0.906-23.875,11.938-23.875,25.453
		c0,8.858,4.609,16.733,11.516,21.328c-6.938,4.625-11.516,12.438-11.516,21.375c0,14.03,11.516,25.625,25.594,25.625h102.407
		v59.062c0,14.062,11.062,25.562,24.641,25.562c13.531,0,24.688-11.5,24.688-25.562v-17.125c0.062-14.062,9.5-32.25,21-40.312
		l23.938-16.812c0.812-0.625,1.5-1.25,2.188-1.906h36.125V157.828h-57.564C321.125,148.281,311.875,141.469,301.062,141.469z"/>
</g>
</svg>
