<?xml version="1.0" encoding="utf-8"?>
<!-- Generator: Adobe Illustrator 16.0.5, SVG Export Plug-In . SVG Version: 6.00 Build 0)  -->
<!DOCTYPE svg PUBLIC "-//W3C//DTD SVG 1.1//EN" "http://www.w3.org/Graphics/SVG/1.1/DTD/svg11.dtd">
<svg version="1.1" id="Layer_1" xmlns="http://www.w3.org/2000/svg" xmlns:xlink="http://www.w3.org/1999/xlink" x="0px" y="0px"
	 width="512px" height="512px" viewBox="0 0 512 512" enable-background="new 0 0 512 512" xml:space="preserve">
<path fill="#010101" d="M256,0C114.625,0,0,114.625,0,256c0,141.406,114.625,256,256,256s256-114.594,256-256
	C512,114.625,397.375,0,256,0z M382.438,303.625h-36.125c-0.688,0.625-1.375,1.312-2.188,1.906l-23.937,16.781
	c-11.5,8.094-20.938,26.25-21,40.312v17.125c-0.062,14.063-11.188,25.626-24.719,25.626c-13.547,0-24.641-11.562-24.641-25.625
	v-59.062H147.422c-14.078,0-25.594-11.5-25.594-25.625c0-8.875,4.609-16.719,11.516-21.312
	c-6.938-4.625-11.516-12.469-11.516-21.359c0-13.516,10.625-24.547,23.906-25.422c-4.203-4.562-6.828-10.547-6.828-17.203
	c0-13.516,10.625-24.547,23.906-25.453c-4.188-4.562-6.844-10.578-6.844-17.203c0-14.078,11.516-25.641,25.594-25.641h119.5
	c10.812,0,20.062,6.844,23.812,16.391h57.562v145.764H382.438z"/>
</svg>
