<?xml version="1.0" encoding="utf-8"?>
<!-- Generator: Adobe Illustrator 16.0.4, SVG Export Plug-In . SVG Version: 6.00 Build 0)  -->
<!DOCTYPE svg PUBLIC "-//W3C//DTD SVG 1.1//EN" "http://www.w3.org/Graphics/SVG/1.1/DTD/svg11.dtd">
<svg version="1.1" id="Layer_1" xmlns="http://www.w3.org/2000/svg" xmlns:xlink="http://www.w3.org/1999/xlink" x="0px" y="0px"
	 width="16px" height="16px" viewBox="0 0 16 16" enable-background="new 0 0 16 16" xml:space="preserve">
<path fill="#010101" d="M12.107,6.778c0-0.439-0.359-0.8-0.799-0.8H8.107V4.133c0-0.439-0.346-0.8-0.77-0.8
	c-0.423,0-0.771,0.36-0.771,0.8L6.565,4.668c-0.001,0.44-0.296,1.007-0.656,1.26L5.162,6.452c-0.026,0.02-0.047,0.04-0.069,0.06
	H3.965v4.556h1.799c0.117,0.298,0.406,0.511,0.744,0.511h3.733c0.44,0,0.8-0.359,0.8-0.8c0-0.208-0.082-0.396-0.213-0.538
	c0.415-0.029,0.746-0.373,0.746-0.795c0-0.208-0.082-0.396-0.213-0.539c0.415-0.027,0.746-0.372,0.746-0.794
	c0-0.278-0.143-0.523-0.359-0.667C11.965,7.302,12.107,7.057,12.107,6.778z"/>
</svg>
