<?xml version="1.0" encoding="utf-8"?>
<!-- Generator: Adobe Illustrator 16.0.4, SVG Export Plug-In . SVG Version: 6.00 Build 0)  -->
<!DOCTYPE svg PUBLIC "-//W3C//DTD SVG 1.1//EN" "http://www.w3.org/Graphics/SVG/1.1/DTD/svg11.dtd">
<svg version="1.1" id="Layer_1" xmlns="http://www.w3.org/2000/svg" xmlns:xlink="http://www.w3.org/1999/xlink" x="0px" y="0px"
	 width="16px" height="16px" viewBox="0 0 16 16" enable-background="new 0 0 16 16" xml:space="preserve">
<g>
	<path fill="#010101" d="M8,0C3.582,0,0,3.582,0,8c0,4.418,3.582,8,8,8c4.418,0,8-3.582,8-8C16,3.582,12.418,0,8,0z M8,15.467
		c-4.117,0-7.467-3.35-7.467-7.467S3.883,0.533,8,0.533S15.467,3.883,15.467,8S12.117,15.467,8,15.467z"/>
	<path fill="#010101" d="M12.191,6.779c0-0.44-0.359-0.8-0.799-0.8h-3.2V4.133c0-0.44-0.346-0.8-0.77-0.8s-0.771,0.36-0.771,0.8
		L6.65,4.668c-0.001,0.44-0.296,1.007-0.657,1.26L5.247,6.453C5.22,6.472,5.2,6.492,5.177,6.513H4.05v4.556h1.799
		c0.117,0.298,0.406,0.511,0.744,0.511h3.733c0.439,0,0.799-0.36,0.799-0.8c0-0.208-0.082-0.396-0.213-0.539
		c0.416-0.027,0.746-0.373,0.746-0.795c0-0.207-0.082-0.396-0.213-0.538c0.416-0.028,0.746-0.373,0.746-0.795
		c0-0.277-0.143-0.523-0.359-0.667C12.049,7.302,12.191,7.057,12.191,6.779z"/>
</g>
</svg>
