<?xml version="1.0" encoding="utf-8"?>
<!-- Generator: Adobe Illustrator 16.0.4, SVG Export Plug-In . SVG Version: 6.00 Build 0)  -->
<!DOCTYPE svg PUBLIC "-//W3C//DTD SVG 1.1//EN" "http://www.w3.org/Graphics/SVG/1.1/DTD/svg11.dtd">
<svg version="1.1" id="Layer_1" xmlns="http://www.w3.org/2000/svg" xmlns:xlink="http://www.w3.org/1999/xlink" x="0px" y="0px"
	 width="16px" height="16px" viewBox="0 0 16 16" enable-background="new 0 0 16 16" xml:space="preserve">
<path fill="#010101" d="M8,0C3.582,0,0,3.582,0,8c0,4.419,3.582,8,8,8c4.418,0,8-3.581,8-8C16,3.582,12.418,0,8,0z M12.191,8.113
	c0,0.421-0.33,0.766-0.746,0.794c0.131,0.143,0.213,0.331,0.213,0.539c0,0.422-0.33,0.767-0.746,0.795
	c0.131,0.143,0.213,0.331,0.213,0.538c0,0.44-0.359,0.801-0.799,0.801H6.593c-0.338,0-0.627-0.213-0.744-0.512H4.05V6.513h1.127
	c0.022-0.02,0.043-0.041,0.07-0.06l0.747-0.524c0.36-0.253,0.656-0.82,0.657-1.26l0.001-0.535c0.001-0.44,0.348-0.8,0.771-0.8
	s0.77,0.359,0.77,0.8v1.846h3.2c0.439,0,0.799,0.36,0.799,0.8c0,0.278-0.143,0.523-0.359,0.667
	C12.049,7.59,12.191,7.835,12.191,8.113z"/>
</svg>
