<?xml version="1.0" encoding="utf-8"?>
<!-- Generator: Adobe Illustrator 16.0.5, SVG Export Plug-In . SVG Version: 6.00 Build 0)  -->
<!DOCTYPE svg PUBLIC "-//W3C//DTD SVG 1.1//EN" "http://www.w3.org/Graphics/SVG/1.1/DTD/svg11.dtd">
<svg version="1.1" id="Layer_1" xmlns="http://www.w3.org/2000/svg" xmlns:xlink="http://www.w3.org/1999/xlink" x="0px" y="0px"
	 width="512px" height="512px" viewBox="0 0 512 512" enable-background="new 0 0 512 512" xml:space="preserve">
<path fill="#010101" d="M256,0C114.625,0,0,114.625,0,256c0,141.406,114.625,256,256,256s256-114.594,256-256
	C512,114.625,397.375,0,256,0z M390.125,259.609c0,13.483-10.562,24.516-23.875,25.422c4.188,4.562,6.812,10.594,6.812,17.219
	c0,13.531-10.562,24.562-23.875,25.469c4.188,4.562,6.812,10.594,6.812,17.219c0,14.062-11.5,25.625-25.562,25.625H210.969
	c-10.812,0-20.062-6.812-23.797-16.375h-57.578V208.422h36.062c0.719-0.641,1.391-1.312,2.25-1.922l23.906-16.766
	c11.516-8.109,20.984-26.25,21.016-40.328l0.031-17.125c0.031-14.078,11.141-25.594,24.672-25.594
	c13.547,0,24.641,11.484,24.641,25.594v59.078h102.391c14.062,0,25.562,11.516,25.562,25.594c0,8.906-4.562,16.75-11.469,21.344
	C385.562,242.875,390.125,250.719,390.125,259.609z"/>
</svg>
