<?xml version="1.0" encoding="utf-8"?>
<!-- Generator: Adobe Illustrator 16.0.4, SVG Export Plug-In . SVG Version: 6.00 Build 0)  -->
<!DOCTYPE svg PUBLIC "-//W3C//DTD SVG 1.1//EN" "http://www.w3.org/Graphics/SVG/1.1/DTD/svg11.dtd">
<svg version="1.1" id="Layer_1" xmlns="http://www.w3.org/2000/svg" xmlns:xlink="http://www.w3.org/1999/xlink" x="0px" y="0px"
	 width="16px" height="16px" viewBox="0 0 16 16" enable-background="new 0 0 16 16" xml:space="preserve">
<path fill="#010101" d="M8,0C3.582,0,0,3.582,0,8c0,4.419,3.582,8,8,8s8-3.581,8-8C16,3.582,12.418,0,8,0z M11.951,9.488h-1.129
	c-0.021,0.02-0.043,0.041-0.068,0.06l-0.748,0.524c-0.359,0.253-0.654,0.82-0.656,1.26v0.535C9.348,12.307,9,12.668,8.577,12.668
	c-0.423,0-0.77-0.361-0.77-0.801v-1.846h-3.2c-0.44,0-0.8-0.359-0.8-0.8c0-0.278,0.144-0.523,0.36-0.667
	c-0.217-0.144-0.36-0.389-0.36-0.667c0-0.422,0.332-0.767,0.747-0.794C4.423,6.95,4.341,6.763,4.341,6.555
	c0-0.422,0.332-0.767,0.747-0.795C4.957,5.617,4.874,5.429,4.874,5.222c0-0.44,0.36-0.801,0.8-0.801h3.734
	c0.338,0,0.627,0.214,0.744,0.512h1.799V9.488z"/>
</svg>
