<?xml version="1.0" encoding="utf-8"?>
<!-- Generator: Adobe Illustrator 16.0.5, SVG Export Plug-In . SVG Version: 6.00 Build 0)  -->
<!DOCTYPE svg PUBLIC "-//W3C//DTD SVG 1.1//EN" "http://www.w3.org/Graphics/SVG/1.1/DTD/svg11.dtd">
<svg version="1.1" id="Layer_1" xmlns="http://www.w3.org/2000/svg" xmlns:xlink="http://www.w3.org/1999/xlink" x="0px" y="0px"
	 width="512px" height="512px" viewBox="0 0 512 512" enable-background="new 0 0 512 512" xml:space="preserve">
<path fill="#010101" d="M380.125,216.922c0-14.078-11.5-25.594-25.562-25.594H252.141V132.25c0-14.078-11.062-25.594-24.641-25.594
	c-13.562,0-24.672,11.516-24.672,25.594l-0.031,17.125c-0.031,14.078-9.469,32.219-21.016,40.328L157.906,206.5
	c-0.859,0.609-1.5,1.25-2.25,1.922h-36.062v145.766h57.578c3.734,9.562,12.984,16.375,23.797,16.375h119.468
	c14.062,0,25.562-11.5,25.562-25.625c0-6.625-2.625-12.653-6.812-17.219c13.312-0.875,23.875-11.938,23.875-25.469
	c0-6.594-2.625-12.656-6.812-17.188c13.312-0.906,23.875-11.938,23.875-25.453c0-8.859-4.594-16.734-11.5-21.344
	C375.562,233.656,380.125,225.828,380.125,216.922z"/>
</svg>
