<?xml version="1.0" encoding="utf-8"?>
<!-- Generator: Adobe Illustrator 16.0.5, SVG Export Plug-In . SVG Version: 6.00 Build 0)  -->
<!DOCTYPE svg PUBLIC "-//W3C//DTD SVG 1.1//EN" "http://www.w3.org/Graphics/SVG/1.1/DTD/svg11.dtd">
<svg version="1.1" id="Layer_1" xmlns="http://www.w3.org/2000/svg" xmlns:xlink="http://www.w3.org/1999/xlink" x="0px" y="0px"
	 width="512px" height="512px" viewBox="0 0 512 512" enable-background="new 0 0 512 512" xml:space="preserve">
<path fill="#010101" d="M256,0C114.625,0,0,114.625,0,256s114.625,256,256,256s256-114.625,256-256S397.375,0,256,0z M256,494.938
	C124.25,494.938,17.062,387.75,17.062,256S124.25,17.062,256,17.062S494.938,124.25,494.938,256S387.75,494.938,256,494.938z"/>
<polygon fill="#010101" points="323.954,127.703 255.984,195.641 188.016,127.703 127.703,188.016 195.626,255.984 127.703,323.953 
	188.016,384.297 255.984,316.328 323.954,384.297 384.297,323.953 316.359,255.984 384.297,188.016 "/>
</svg>
